%TF.GenerationSoftware,KiCad,Pcbnew,9.0.4*%
%TF.CreationDate,2025-09-19T00:48:39-04:00*%
%TF.ProjectId,frameortho,6672616d-656f-4727-9468-6f2e6b696361,rev?*%
%TF.SameCoordinates,Original*%
%TF.FileFunction,Soldermask,Top*%
%TF.FilePolarity,Negative*%
%FSLAX46Y46*%
G04 Gerber Fmt 4.6, Leading zero omitted, Abs format (unit mm)*
G04 Created by KiCad (PCBNEW 9.0.4) date 2025-09-19 00:48:39*
%MOMM*%
%LPD*%
G01*
G04 APERTURE LIST*
G04 Aperture macros list*
%AMRoundRect*
0 Rectangle with rounded corners*
0 $1 Rounding radius*
0 $2 $3 $4 $5 $6 $7 $8 $9 X,Y pos of 4 corners*
0 Add a 4 corners polygon primitive as box body*
4,1,4,$2,$3,$4,$5,$6,$7,$8,$9,$2,$3,0*
0 Add four circle primitives for the rounded corners*
1,1,$1+$1,$2,$3*
1,1,$1+$1,$4,$5*
1,1,$1+$1,$6,$7*
1,1,$1+$1,$8,$9*
0 Add four rect primitives between the rounded corners*
20,1,$1+$1,$2,$3,$4,$5,0*
20,1,$1+$1,$4,$5,$6,$7,0*
20,1,$1+$1,$6,$7,$8,$9,0*
20,1,$1+$1,$8,$9,$2,$3,0*%
G04 Aperture macros list end*
%ADD10C,2.000000*%
%ADD11RoundRect,0.250000X-0.945055X-0.481530X0.481530X-0.945055X0.945055X0.481530X-0.481530X0.945055X0*%
%ADD12RoundRect,0.140000X0.140000X0.170000X-0.140000X0.170000X-0.140000X-0.170000X0.140000X-0.170000X0*%
%ADD13RoundRect,0.225000X-0.134877X-0.416003X0.303590X-0.314775X0.134877X0.416003X-0.303590X0.314775X0*%
%ADD14RoundRect,0.225000X-0.329869X-0.287117X0.098106X-0.426175X0.329869X0.287117X-0.098106X0.426175X0*%
%ADD15RoundRect,0.225000X-0.098106X-0.426175X0.329869X-0.287117X0.098106X0.426175X-0.329869X0.287117X0*%
%ADD16RoundRect,0.135000X-0.135000X-0.185000X0.135000X-0.185000X0.135000X0.185000X-0.135000X0.185000X0*%
%ADD17RoundRect,0.250000X-0.650000X-0.350000X0.650000X-0.350000X0.650000X0.350000X-0.650000X0.350000X0*%
%ADD18RoundRect,0.250000X-0.481530X-0.945055X0.945055X-0.481530X0.481530X0.945055X-0.945055X0.481530X0*%
%ADD19RoundRect,0.140000X-0.140000X-0.170000X0.140000X-0.170000X0.140000X0.170000X-0.140000X0.170000X0*%
%ADD20RoundRect,0.250000X-0.899491X-0.562064X0.562064X-0.899491X0.899491X0.562064X-0.562064X0.899491X0*%
%ADD21RoundRect,0.135000X0.185000X-0.135000X0.185000X0.135000X-0.185000X0.135000X-0.185000X-0.135000X0*%
%ADD22RoundRect,0.250000X-0.310107X-1.014314X1.014314X-0.310107X0.310107X1.014314X-1.014314X0.310107X0*%
%ADD23RoundRect,0.225000X-0.420304X-0.120808X-0.091195X-0.427707X0.420304X0.120808X0.091195X0.427707X0*%
%ADD24RoundRect,0.225000X-0.022611X-0.436736X0.374715X-0.225474X0.022611X0.436736X-0.374715X0.225474X0*%
%ADD25RoundRect,0.250000X-0.037017X-1.060014X1.060014X-0.037017X0.037017X1.060014X-1.060014X0.037017X0*%
%ADD26R,1.700000X1.000000*%
%ADD27RoundRect,0.135000X0.135000X0.185000X-0.135000X0.185000X-0.135000X-0.185000X0.135000X-0.185000X0*%
%ADD28RoundRect,0.225000X-0.303590X-0.314775X0.134877X-0.416003X0.303590X0.314775X-0.134877X0.416003X0*%
%ADD29RoundRect,0.225000X-0.374715X-0.225474X0.022611X-0.436736X0.374715X0.225474X-0.022611X0.436736X0*%
%ADD30RoundRect,0.050000X-0.387500X-0.050000X0.387500X-0.050000X0.387500X0.050000X-0.387500X0.050000X0*%
%ADD31RoundRect,0.050000X-0.050000X-0.387500X0.050000X-0.387500X0.050000X0.387500X-0.050000X0.387500X0*%
%ADD32R,3.200000X3.200000*%
%ADD33RoundRect,0.250000X-1.014314X-0.310107X0.310107X-1.014314X1.014314X0.310107X-0.310107X1.014314X0*%
%ADD34RoundRect,0.150000X0.150000X-0.512500X0.150000X0.512500X-0.150000X0.512500X-0.150000X-0.512500X0*%
%ADD35RoundRect,0.140000X0.170000X-0.140000X0.170000X0.140000X-0.170000X0.140000X-0.170000X-0.140000X0*%
%ADD36RoundRect,0.225000X0.091195X-0.427707X0.420304X-0.120808X-0.091195X0.427707X-0.420304X0.120808X0*%
%ADD37RoundRect,0.140000X-0.170000X0.140000X-0.170000X-0.140000X0.170000X-0.140000X0.170000X0.140000X0*%
%ADD38RoundRect,0.250000X-1.060014X-0.037017X0.037017X-1.060014X1.060014X0.037017X-0.037017X1.060014X0*%
%ADD39RoundRect,0.162500X0.162500X-0.650000X0.162500X0.650000X-0.162500X0.650000X-0.162500X-0.650000X0*%
%ADD40RoundRect,0.250000X-0.562064X-0.899491X0.899491X-0.562064X0.562064X0.899491X-0.899491X0.562064X0*%
G04 APERTURE END LIST*
D10*
%TO.C,S3*%
X158316022Y-93584191D03*
X161264298Y-94542144D03*
D11*
X156423948Y-83874271D03*
X152715744Y-95286949D03*
X168502366Y-87798787D03*
X164794162Y-99211465D03*
%TD*%
D10*
%TO.C,S13*%
X153203827Y-109276631D03*
X156152103Y-110234584D03*
D11*
X151311753Y-99566711D03*
X147603549Y-110979389D03*
X163390171Y-103491227D03*
X159681967Y-114903905D03*
%TD*%
D12*
%TO.C,C1*%
X204797600Y-99263200D03*
X203837600Y-99263200D03*
%TD*%
D13*
%TO.C,D36*%
X256833985Y-153987309D03*
X260049407Y-153244971D03*
%TD*%
D14*
%TO.C,D2*%
X143174743Y-87601212D03*
X146313229Y-88620968D03*
%TD*%
D15*
%TO.C,D28*%
X272079517Y-120951813D03*
X275218003Y-119932057D03*
%TD*%
%TO.C,D9*%
X278825592Y-88404656D03*
X281964078Y-87384900D03*
%TD*%
D10*
%TO.C,S12*%
X136233346Y-108114338D03*
X139181622Y-109072291D03*
D11*
X134341272Y-98404418D03*
X130633068Y-109817096D03*
X146419690Y-102328934D03*
X142711486Y-113741612D03*
%TD*%
D10*
%TO.C,TP6*%
X214670000Y-139377778D03*
%TD*%
%TO.C,S11*%
X117166854Y-113385940D03*
X120115130Y-114343893D03*
D11*
X115274780Y-103676020D03*
X111566576Y-115088698D03*
X127353198Y-107600536D03*
X123644994Y-119013214D03*
%TD*%
D14*
%TO.C,D24*%
X164335218Y-129156874D03*
X167473704Y-130176630D03*
%TD*%
D16*
%TO.C,R5*%
X202055001Y-115595400D03*
X203074999Y-115595400D03*
%TD*%
D10*
%TO.C,S15*%
X182543814Y-125724392D03*
X185492090Y-126682345D03*
D11*
X180651740Y-116014472D03*
X176943536Y-127427150D03*
X192730158Y-119938988D03*
X189021954Y-131351666D03*
%TD*%
D10*
%TO.C,TP11*%
X214670001Y-146608889D03*
%TD*%
D14*
%TO.C,D22*%
X132950353Y-118986076D03*
X136088839Y-120005832D03*
%TD*%
D10*
%TO.C,TP14*%
X214670000Y-153840000D03*
%TD*%
D14*
%TO.C,D14*%
X169447413Y-113464450D03*
X172585899Y-114484206D03*
%TD*%
D17*
%TO.C,Y1*%
X210191600Y-124796401D03*
X214191600Y-124796401D03*
X214191600Y-122396399D03*
X210191600Y-122396399D03*
%TD*%
D10*
%TO.C,S10*%
X299245756Y-98651469D03*
X302194032Y-97693516D03*
D18*
X292007688Y-91908112D03*
X295715892Y-103320790D03*
X304086106Y-87983596D03*
X307794310Y-99396274D03*
%TD*%
D10*
%TO.C,TP10*%
X210752500Y-146608889D03*
%TD*%
%TO.C,TP1*%
X206835000Y-132146667D03*
%TD*%
%TO.C,TP9*%
X206835002Y-146608889D03*
%TD*%
D14*
%TO.C,D25*%
X179260821Y-136596147D03*
X182399307Y-137615903D03*
%TD*%
D10*
%TO.C,TP7*%
X218587501Y-139377778D03*
%TD*%
D19*
%TO.C,C9*%
X216766200Y-111328200D03*
X217726200Y-111328200D03*
%TD*%
D10*
%TO.C,S31*%
X163703643Y-158364205D03*
X166724190Y-159061553D03*
D20*
X160972493Y-148856138D03*
X158273081Y-160548579D03*
X173346993Y-151713017D03*
X170647581Y-163405458D03*
%TD*%
D10*
%TO.C,S26*%
X244093203Y-142374786D03*
X247041479Y-141416833D03*
D18*
X236855135Y-135631429D03*
X240563339Y-147044107D03*
X248933553Y-131706913D03*
X252641757Y-143119591D03*
%TD*%
D21*
%TO.C,R3*%
X212902800Y-108712000D03*
X212902800Y-107692002D03*
%TD*%
D10*
%TO.C,S18*%
X268320978Y-110234584D03*
X271269254Y-109276631D03*
D18*
X261082910Y-103491227D03*
X264791114Y-114903905D03*
X273161328Y-99566711D03*
X276869532Y-110979389D03*
%TD*%
D10*
%TO.C,TP22*%
X231720000Y-135240000D03*
%TD*%
%TO.C,S35*%
X240986931Y-165710411D03*
X243724068Y-164255049D03*
D22*
X232687853Y-160326378D03*
X238321512Y-170921749D03*
X243901288Y-154364089D03*
X249534947Y-164959460D03*
%TD*%
D14*
%TO.C,D4*%
X174559608Y-97772010D03*
X177698094Y-98791766D03*
%TD*%
D23*
%TO.C,D33*%
X199226914Y-170678216D03*
X201640380Y-172928810D03*
%TD*%
D15*
%TO.C,D18*%
X266967306Y-105259389D03*
X270105792Y-104239633D03*
%TD*%
D24*
%TO.C,D35*%
X238789889Y-161045863D03*
X241703617Y-159496607D03*
%TD*%
D10*
%TO.C,S17*%
X253906594Y-119243089D03*
X256854870Y-118285136D03*
D18*
X246668526Y-112499732D03*
X250376730Y-123912410D03*
X258746944Y-108575216D03*
X262455148Y-119987894D03*
%TD*%
D10*
%TO.C,TP4*%
X218587500Y-132146667D03*
%TD*%
%TO.C,S4*%
X172730406Y-102592696D03*
X175678682Y-103550649D03*
D11*
X170838332Y-92882776D03*
X167130128Y-104295454D03*
X182916750Y-96807292D03*
X179208546Y-108219970D03*
%TD*%
D10*
%TO.C,S23*%
X148091632Y-124969055D03*
X151039908Y-125927008D03*
D11*
X146199558Y-115259135D03*
X142491354Y-126671813D03*
X158277976Y-119183651D03*
X154569772Y-130596329D03*
%TD*%
D10*
%TO.C,S34*%
X226674100Y-176388382D03*
X228941297Y-174274187D03*
D25*
X217264317Y-173335764D03*
X225448297Y-182112009D03*
X226552509Y-164674385D03*
X234736489Y-173450630D03*
%TD*%
D10*
%TO.C,S7*%
X248794399Y-103550649D03*
X251742675Y-102592696D03*
D18*
X241556331Y-96807292D03*
X245264535Y-108219970D03*
X253634749Y-92882776D03*
X257342953Y-104295454D03*
%TD*%
D15*
%TO.C,D8*%
X261855111Y-89566949D03*
X264993597Y-88547193D03*
%TD*%
D26*
%TO.C,SW1*%
X228168200Y-123256200D03*
X221868202Y-123256200D03*
X228168200Y-119456200D03*
X221868202Y-119456200D03*
%TD*%
D10*
%TO.C,TP16*%
X222504999Y-153840000D03*
%TD*%
%TO.C,S20*%
X304357951Y-114343893D03*
X307306227Y-113385940D03*
D18*
X297119883Y-107600536D03*
X300828087Y-119013214D03*
X309198301Y-103676020D03*
X312906505Y-115088698D03*
%TD*%
D10*
%TO.C,S25*%
X177431619Y-141416833D03*
X180379895Y-142374786D03*
D11*
X175539545Y-131706913D03*
X171831341Y-143119591D03*
X187617963Y-135631429D03*
X183909759Y-147044107D03*
%TD*%
D14*
%TO.C,D11*%
X118996056Y-108565254D03*
X122134542Y-109585010D03*
%TD*%
D10*
%TO.C,S30*%
X309470146Y-130036333D03*
X312418422Y-129078380D03*
D18*
X302232078Y-123292976D03*
X305940282Y-134705654D03*
X314310496Y-119368460D03*
X318018700Y-130781138D03*
%TD*%
D15*
%TO.C,D16*%
X237627335Y-121707150D03*
X240765821Y-120687394D03*
%TD*%
D10*
%TO.C,S2*%
X141345541Y-92421898D03*
X144293817Y-93379851D03*
D11*
X139453467Y-82711978D03*
X135745263Y-94124656D03*
X151531885Y-86636494D03*
X147823681Y-98049172D03*
%TD*%
D27*
%TO.C,R9*%
X203074999Y-117729000D03*
X202055001Y-117729000D03*
%TD*%
D14*
%TO.C,D15*%
X184373016Y-120903706D03*
X187511502Y-121923462D03*
%TD*%
D28*
%TO.C,D31*%
X165105733Y-153402437D03*
X168321155Y-154144775D03*
%TD*%
D29*
%TO.C,D32*%
X183387543Y-159825238D03*
X186301271Y-161374494D03*
%TD*%
D21*
%TO.C,R6*%
X215900000Y-123194599D03*
X215900000Y-122174601D03*
%TD*%
D30*
%TO.C,U1*%
X208799040Y-112343500D03*
X208799040Y-112743500D03*
X208799040Y-113143500D03*
X208799040Y-113543500D03*
X208799040Y-113943500D03*
X208799040Y-114343500D03*
X208799040Y-114743500D03*
X208799040Y-115143500D03*
X208799040Y-115543500D03*
X208799040Y-115943500D03*
X208799040Y-116343500D03*
X208799040Y-116743500D03*
X208799040Y-117143500D03*
X208799040Y-117543500D03*
D31*
X209636540Y-118381000D03*
X210036540Y-118381000D03*
X210436540Y-118381000D03*
X210836540Y-118381000D03*
X211236540Y-118381000D03*
X211636540Y-118381000D03*
X212036540Y-118381000D03*
X212436540Y-118381000D03*
X212836540Y-118381000D03*
X213236540Y-118381000D03*
X213636540Y-118381000D03*
X214036540Y-118381000D03*
X214436540Y-118381000D03*
X214836540Y-118381000D03*
D30*
X215674040Y-117543500D03*
X215674040Y-117143500D03*
X215674040Y-116743500D03*
X215674040Y-116343500D03*
X215674040Y-115943500D03*
X215674040Y-115543500D03*
X215674040Y-115143500D03*
X215674040Y-114743500D03*
X215674040Y-114343500D03*
X215674040Y-113943500D03*
X215674040Y-113543500D03*
X215674040Y-113143500D03*
X215674040Y-112743500D03*
X215674040Y-112343500D03*
D31*
X214836540Y-111506000D03*
X214436540Y-111506000D03*
X214036540Y-111506000D03*
X213636540Y-111506000D03*
X213236540Y-111506000D03*
X212836540Y-111506000D03*
X212436540Y-111506000D03*
X212036540Y-111506000D03*
X211636540Y-111506000D03*
X211236540Y-111506000D03*
X210836540Y-111506000D03*
X210436540Y-111506000D03*
X210036540Y-111506000D03*
X209636540Y-111506000D03*
D32*
X212236540Y-114943500D03*
%TD*%
D12*
%TO.C,C5*%
X207515400Y-111658400D03*
X206555400Y-111658400D03*
%TD*%
D10*
%TO.C,TP15*%
X218587498Y-153840000D03*
%TD*%
%TO.C,S32*%
X180749029Y-164255049D03*
X183486166Y-165710411D03*
D33*
X180571809Y-154364089D03*
X174938150Y-164959460D03*
X191785244Y-160326378D03*
X186151585Y-170921749D03*
%TD*%
D10*
%TO.C,TP12*%
X218587501Y-146608889D03*
%TD*%
D15*
%TO.C,D20*%
X303004279Y-109368698D03*
X306142765Y-108348942D03*
%TD*%
%TO.C,D17*%
X252552922Y-114267894D03*
X255691408Y-113248138D03*
%TD*%
D34*
%TO.C,U3*%
X215518999Y-93218000D03*
X217418999Y-93218000D03*
X216468999Y-90943000D03*
%TD*%
D10*
%TO.C,S16*%
X238981007Y-126682345D03*
X241929283Y-125724392D03*
D18*
X231742939Y-119938988D03*
X235451143Y-131351666D03*
X243821357Y-116014472D03*
X247529561Y-127427150D03*
%TD*%
D35*
%TO.C,C7*%
X211836000Y-103781800D03*
X211836000Y-102821800D03*
%TD*%
D10*
%TO.C,TP5*%
X210752500Y-139377778D03*
%TD*%
%TO.C,S22*%
X131121151Y-123806762D03*
X134069427Y-124764715D03*
D11*
X129229077Y-114096842D03*
X125520873Y-125509520D03*
X141307495Y-118021358D03*
X137599291Y-129434036D03*
%TD*%
D35*
%TO.C,C12*%
X211480400Y-105839200D03*
X211480400Y-104879200D03*
%TD*%
D36*
%TO.C,D34*%
X223344648Y-172451411D03*
X225758114Y-170200817D03*
%TD*%
D19*
%TO.C,C10*%
X215978800Y-110261400D03*
X216938800Y-110261400D03*
%TD*%
D35*
%TO.C,C3*%
X212318600Y-101775200D03*
X212318600Y-100815200D03*
%TD*%
D14*
%TO.C,D21*%
X113883861Y-124257694D03*
X117022347Y-125277450D03*
%TD*%
%TO.C,D13*%
X155033029Y-104455945D03*
X158171515Y-105475701D03*
%TD*%
D10*
%TO.C,TP2*%
X210752500Y-132146667D03*
%TD*%
D37*
%TO.C,C14*%
X208483200Y-122234599D03*
X208483200Y-123194599D03*
%TD*%
D16*
%TO.C,R7*%
X221157800Y-117856000D03*
X222177798Y-117856000D03*
%TD*%
D12*
%TO.C,C4*%
X205765400Y-115943500D03*
X204805400Y-115943500D03*
%TD*%
D14*
%TO.C,D23*%
X149920834Y-120148369D03*
X153059320Y-121168125D03*
%TD*%
D10*
%TO.C,TP21*%
X227669998Y-135240000D03*
%TD*%
%TO.C,S27*%
X259018806Y-134935513D03*
X261967082Y-133977560D03*
D18*
X251780738Y-128192156D03*
X255488942Y-139604834D03*
X263859156Y-124267640D03*
X267567360Y-135680318D03*
%TD*%
D21*
%TO.C,R4*%
X213996533Y-108704200D03*
X213996533Y-107684202D03*
%TD*%
D14*
%TO.C,D3*%
X160145224Y-88763505D03*
X163283710Y-89783261D03*
%TD*%
D10*
%TO.C,S24*%
X162506016Y-133977560D03*
X165454292Y-134935513D03*
D11*
X160613942Y-124267640D03*
X156905738Y-135680318D03*
X172692360Y-128192156D03*
X168984156Y-139604834D03*
%TD*%
D10*
%TO.C,S6*%
X233868796Y-110989904D03*
X236817072Y-110031951D03*
D18*
X226630728Y-104246547D03*
X230338932Y-115659225D03*
X238709146Y-100322031D03*
X242417350Y-111734709D03*
%TD*%
D10*
%TO.C,TP8*%
X222504999Y-139377778D03*
%TD*%
D15*
%TO.C,D26*%
X242739531Y-137399591D03*
X245878017Y-136379835D03*
%TD*%
D10*
%TO.C,S8*%
X263208783Y-94542144D03*
X266157059Y-93584191D03*
D18*
X255970715Y-87798787D03*
X259678919Y-99211465D03*
X268049133Y-83874271D03*
X271757337Y-95286949D03*
%TD*%
D26*
%TO.C,SW2*%
X202616598Y-123256200D03*
X196316600Y-123256200D03*
X202616598Y-119456200D03*
X196316600Y-119456200D03*
%TD*%
D35*
%TO.C,C11*%
X215080267Y-108666400D03*
X215080267Y-107706400D03*
%TD*%
D15*
%TO.C,D10*%
X297892084Y-93676274D03*
X301030570Y-92656518D03*
%TD*%
D10*
%TO.C,S9*%
X280179264Y-93379851D03*
X283127540Y-92421898D03*
D18*
X272941196Y-86636494D03*
X276649400Y-98049172D03*
X285019614Y-82711978D03*
X288727818Y-94124656D03*
%TD*%
D10*
%TO.C,TP13*%
X210752500Y-153840000D03*
%TD*%
D35*
%TO.C,C2*%
X216154000Y-108658600D03*
X216154000Y-107698600D03*
%TD*%
%TO.C,C15*%
X215900000Y-125168600D03*
X215900000Y-124208600D03*
%TD*%
D10*
%TO.C,S28*%
X273433189Y-125927008D03*
X276381465Y-124969055D03*
D18*
X266195121Y-119183651D03*
X269903325Y-130596329D03*
X278273539Y-115259135D03*
X281981743Y-126671813D03*
%TD*%
D10*
%TO.C,S14*%
X167618211Y-118285136D03*
X170566487Y-119243089D03*
D11*
X165726137Y-108575216D03*
X162017933Y-119987894D03*
X177804555Y-112499732D03*
X174096351Y-123912410D03*
%TD*%
D10*
%TO.C,TP3*%
X214670000Y-132146667D03*
%TD*%
D37*
%TO.C,C6*%
X217060700Y-122202000D03*
X217060700Y-123162000D03*
%TD*%
D27*
%TO.C,R8*%
X203074999Y-116662200D03*
X202055001Y-116662200D03*
%TD*%
D10*
%TO.C,S5*%
X187656009Y-110031951D03*
X190604285Y-110989904D03*
D11*
X185763935Y-100322031D03*
X182055731Y-111734709D03*
X197842353Y-104246547D03*
X194134149Y-115659225D03*
%TD*%
D15*
%TO.C,D7*%
X247440727Y-98575454D03*
X250579213Y-97555698D03*
%TD*%
D10*
%TO.C,S33*%
X195531784Y-174274187D03*
X197798981Y-176388382D03*
D38*
X197920572Y-164674385D03*
X189736592Y-173450630D03*
X207208764Y-173335764D03*
X199024784Y-182112009D03*
%TD*%
D39*
%TO.C,U2*%
X204800200Y-108438700D03*
X206070200Y-108438700D03*
X207340200Y-108438700D03*
X208610200Y-108438700D03*
X208610200Y-101263700D03*
X207340200Y-101263700D03*
X206070200Y-101263700D03*
X204800200Y-101263700D03*
%TD*%
D15*
%TO.C,D27*%
X257665134Y-129960318D03*
X260803620Y-128940562D03*
%TD*%
D10*
%TO.C,S29*%
X290403670Y-124764715D03*
X293351946Y-123806762D03*
D18*
X283165602Y-118021358D03*
X286873806Y-129434036D03*
X295244020Y-114096842D03*
X298952224Y-125509520D03*
%TD*%
D10*
%TO.C,S21*%
X112054659Y-129078380D03*
X115002935Y-130036333D03*
D11*
X110162585Y-119368460D03*
X106454381Y-130781138D03*
X122241003Y-123292976D03*
X118532799Y-134705654D03*
%TD*%
D15*
%TO.C,D30*%
X308116474Y-125061138D03*
X311254960Y-124041382D03*
%TD*%
D14*
%TO.C,D5*%
X189485211Y-105211265D03*
X192623697Y-106231021D03*
%TD*%
D10*
%TO.C,S1*%
X122279065Y-97693516D03*
X125227341Y-98651469D03*
D11*
X120386991Y-87983596D03*
X116678787Y-99396274D03*
X132465409Y-91908112D03*
X128757205Y-103320790D03*
%TD*%
D37*
%TO.C,C13*%
X218211400Y-122202000D03*
X218211400Y-123162000D03*
%TD*%
D15*
%TO.C,D19*%
X283937803Y-104097096D03*
X287076289Y-103077340D03*
%TD*%
D10*
%TO.C,S36*%
X257748891Y-159061553D03*
X260769438Y-158364205D03*
D40*
X251126088Y-151713017D03*
X253825500Y-163405458D03*
X263500588Y-148856138D03*
X266200000Y-160548579D03*
%TD*%
D19*
%TO.C,C8*%
X218645800Y-115943500D03*
X219605800Y-115943500D03*
%TD*%
D14*
%TO.C,D1*%
X124108267Y-92872830D03*
X127246753Y-93892586D03*
%TD*%
D15*
%TO.C,D6*%
X232515124Y-106014709D03*
X235653610Y-104994953D03*
%TD*%
%TO.C,D29*%
X289049998Y-119789520D03*
X292188484Y-118769764D03*
%TD*%
D14*
%TO.C,D12*%
X138062548Y-103293652D03*
X141201034Y-104313408D03*
%TD*%
D10*
%TO.C,S19*%
X285291475Y-109072291D03*
X288239751Y-108114338D03*
D18*
X278053407Y-102328934D03*
X281761611Y-113741612D03*
X290131825Y-98404418D03*
X293840029Y-109817096D03*
%TD*%
M02*
