%TF.GenerationSoftware,KiCad,Pcbnew,9.0.4*%
%TF.CreationDate,2025-09-19T00:48:39-04:00*%
%TF.ProjectId,frameortho,6672616d-656f-4727-9468-6f2e6b696361,rev?*%
%TF.SameCoordinates,Original*%
%TF.FileFunction,Legend,Top*%
%TF.FilePolarity,Positive*%
%FSLAX46Y46*%
G04 Gerber Fmt 4.6, Leading zero omitted, Abs format (unit mm)*
G04 Created by KiCad (PCBNEW 9.0.4) date 2025-09-19 00:48:39*
%MOMM*%
%LPD*%
G01*
G04 APERTURE LIST*
G04 Aperture macros list*
%AMRoundRect*
0 Rectangle with rounded corners*
0 $1 Rounding radius*
0 $2 $3 $4 $5 $6 $7 $8 $9 X,Y pos of 4 corners*
0 Add a 4 corners polygon primitive as box body*
4,1,4,$2,$3,$4,$5,$6,$7,$8,$9,$2,$3,0*
0 Add four circle primitives for the rounded corners*
1,1,$1+$1,$2,$3*
1,1,$1+$1,$4,$5*
1,1,$1+$1,$6,$7*
1,1,$1+$1,$8,$9*
0 Add four rect primitives between the rounded corners*
20,1,$1+$1,$2,$3,$4,$5,0*
20,1,$1+$1,$4,$5,$6,$7,0*
20,1,$1+$1,$6,$7,$8,$9,0*
20,1,$1+$1,$8,$9,$2,$3,0*%
G04 Aperture macros list end*
%ADD10C,0.150000*%
%ADD11C,0.300000*%
%ADD12C,0.120000*%
%ADD13C,2.000000*%
%ADD14RoundRect,0.250000X-0.945055X-0.481530X0.481530X-0.945055X0.945055X0.481530X-0.481530X0.945055X0*%
%ADD15RoundRect,0.140000X0.140000X0.170000X-0.140000X0.170000X-0.140000X-0.170000X0.140000X-0.170000X0*%
%ADD16RoundRect,0.225000X-0.134877X-0.416003X0.303590X-0.314775X0.134877X0.416003X-0.303590X0.314775X0*%
%ADD17RoundRect,0.225000X-0.329869X-0.287117X0.098106X-0.426175X0.329869X0.287117X-0.098106X0.426175X0*%
%ADD18RoundRect,0.225000X-0.098106X-0.426175X0.329869X-0.287117X0.098106X0.426175X-0.329869X0.287117X0*%
%ADD19RoundRect,0.135000X-0.135000X-0.185000X0.135000X-0.185000X0.135000X0.185000X-0.135000X0.185000X0*%
%ADD20RoundRect,0.250000X-0.650000X-0.350000X0.650000X-0.350000X0.650000X0.350000X-0.650000X0.350000X0*%
%ADD21RoundRect,0.250000X-0.481530X-0.945055X0.945055X-0.481530X0.481530X0.945055X-0.945055X0.481530X0*%
%ADD22RoundRect,0.140000X-0.140000X-0.170000X0.140000X-0.170000X0.140000X0.170000X-0.140000X0.170000X0*%
%ADD23RoundRect,0.250000X-0.899491X-0.562064X0.562064X-0.899491X0.899491X0.562064X-0.562064X0.899491X0*%
%ADD24RoundRect,0.135000X0.185000X-0.135000X0.185000X0.135000X-0.185000X0.135000X-0.185000X-0.135000X0*%
%ADD25RoundRect,0.250000X-0.310107X-1.014314X1.014314X-0.310107X0.310107X1.014314X-1.014314X0.310107X0*%
%ADD26RoundRect,0.225000X-0.420304X-0.120808X-0.091195X-0.427707X0.420304X0.120808X0.091195X0.427707X0*%
%ADD27RoundRect,0.225000X-0.022611X-0.436736X0.374715X-0.225474X0.022611X0.436736X-0.374715X0.225474X0*%
%ADD28RoundRect,0.250000X-0.037017X-1.060014X1.060014X-0.037017X0.037017X1.060014X-1.060014X0.037017X0*%
%ADD29R,1.700000X1.000000*%
%ADD30RoundRect,0.135000X0.135000X0.185000X-0.135000X0.185000X-0.135000X-0.185000X0.135000X-0.185000X0*%
%ADD31RoundRect,0.225000X-0.303590X-0.314775X0.134877X-0.416003X0.303590X0.314775X-0.134877X0.416003X0*%
%ADD32RoundRect,0.225000X-0.374715X-0.225474X0.022611X-0.436736X0.374715X0.225474X-0.022611X0.436736X0*%
%ADD33RoundRect,0.050000X-0.387500X-0.050000X0.387500X-0.050000X0.387500X0.050000X-0.387500X0.050000X0*%
%ADD34RoundRect,0.050000X-0.050000X-0.387500X0.050000X-0.387500X0.050000X0.387500X-0.050000X0.387500X0*%
%ADD35R,3.200000X3.200000*%
%ADD36RoundRect,0.250000X-1.014314X-0.310107X0.310107X-1.014314X1.014314X0.310107X-0.310107X1.014314X0*%
%ADD37RoundRect,0.150000X0.150000X-0.512500X0.150000X0.512500X-0.150000X0.512500X-0.150000X-0.512500X0*%
%ADD38RoundRect,0.140000X0.170000X-0.140000X0.170000X0.140000X-0.170000X0.140000X-0.170000X-0.140000X0*%
%ADD39RoundRect,0.225000X0.091195X-0.427707X0.420304X-0.120808X-0.091195X0.427707X-0.420304X0.120808X0*%
%ADD40RoundRect,0.140000X-0.170000X0.140000X-0.170000X-0.140000X0.170000X-0.140000X0.170000X0.140000X0*%
%ADD41RoundRect,0.250000X-1.060014X-0.037017X0.037017X-1.060014X1.060014X0.037017X-0.037017X1.060014X0*%
%ADD42RoundRect,0.162500X0.162500X-0.650000X0.162500X0.650000X-0.162500X0.650000X-0.162500X-0.650000X0*%
%ADD43RoundRect,0.250000X-0.562064X-0.899491X0.899491X-0.562064X0.562064X0.899491X-0.899491X0.562064X0*%
G04 APERTURE END LIST*
D10*
X222348040Y-151265984D02*
X222247025Y-151299656D01*
X222247025Y-151299656D02*
X222146009Y-151400671D01*
X222146009Y-151400671D02*
X222078666Y-151535358D01*
X222078666Y-151535358D02*
X222078666Y-151670046D01*
X222078666Y-151670046D02*
X222112338Y-151771061D01*
X222112338Y-151771061D02*
X222213353Y-151939420D01*
X222213353Y-151939420D02*
X222314368Y-152040435D01*
X222314368Y-152040435D02*
X222482727Y-152141450D01*
X222482727Y-152141450D02*
X222583742Y-152175122D01*
X222583742Y-152175122D02*
X222718429Y-152175122D01*
X222718429Y-152175122D02*
X222853116Y-152107778D01*
X222853116Y-152107778D02*
X222920460Y-152040435D01*
X222920460Y-152040435D02*
X222987803Y-151905748D01*
X222987803Y-151905748D02*
X222987803Y-151838404D01*
X222987803Y-151838404D02*
X222752101Y-151602702D01*
X222752101Y-151602702D02*
X222617414Y-151737389D01*
X223358192Y-151602702D02*
X222651086Y-150895595D01*
X222651086Y-150895595D02*
X222920460Y-150626221D01*
X222920460Y-150626221D02*
X223021475Y-150592549D01*
X223021475Y-150592549D02*
X223088818Y-150592549D01*
X223088818Y-150592549D02*
X223189834Y-150626221D01*
X223189834Y-150626221D02*
X223290849Y-150727236D01*
X223290849Y-150727236D02*
X223324521Y-150828252D01*
X223324521Y-150828252D02*
X223324521Y-150895595D01*
X223324521Y-150895595D02*
X223290849Y-150996610D01*
X223290849Y-150996610D02*
X223021475Y-151265984D01*
X224065299Y-150895595D02*
X223358192Y-150188488D01*
X223829597Y-149717084D02*
X223964284Y-149582397D01*
X223964284Y-149582397D02*
X224065299Y-149548725D01*
X224065299Y-149548725D02*
X224199986Y-149548725D01*
X224199986Y-149548725D02*
X224368345Y-149649741D01*
X224368345Y-149649741D02*
X224604047Y-149885443D01*
X224604047Y-149885443D02*
X224705062Y-150053802D01*
X224705062Y-150053802D02*
X224705062Y-150188489D01*
X224705062Y-150188489D02*
X224671390Y-150289504D01*
X224671390Y-150289504D02*
X224536703Y-150424191D01*
X224536703Y-150424191D02*
X224435688Y-150457863D01*
X224435688Y-150457863D02*
X224301001Y-150457863D01*
X224301001Y-150457863D02*
X224132642Y-150356848D01*
X224132642Y-150356848D02*
X223896940Y-150121145D01*
X223896940Y-150121145D02*
X223795925Y-149952787D01*
X223795925Y-149952787D02*
X223795925Y-149818100D01*
X223795925Y-149818100D02*
X223829597Y-149717084D01*
X224469360Y-149212008D02*
X224469360Y-149144665D01*
X224469360Y-149144665D02*
X224503032Y-149043649D01*
X224503032Y-149043649D02*
X224671390Y-148875291D01*
X224671390Y-148875291D02*
X224772406Y-148841619D01*
X224772406Y-148841619D02*
X224839749Y-148841619D01*
X224839749Y-148841619D02*
X224940764Y-148875291D01*
X224940764Y-148875291D02*
X225008108Y-148942634D01*
X225008108Y-148942634D02*
X225075451Y-149077321D01*
X225075451Y-149077321D02*
X225075451Y-149885443D01*
X225075451Y-149885443D02*
X225513184Y-149447710D01*
X225445841Y-148100840D02*
X225109123Y-148437558D01*
X225109123Y-148437558D02*
X225412169Y-148807947D01*
X225412169Y-148807947D02*
X225412169Y-148740603D01*
X225412169Y-148740603D02*
X225445841Y-148639588D01*
X225445841Y-148639588D02*
X225614199Y-148471229D01*
X225614199Y-148471229D02*
X225715215Y-148437558D01*
X225715215Y-148437558D02*
X225782558Y-148437558D01*
X225782558Y-148437558D02*
X225883573Y-148471229D01*
X225883573Y-148471229D02*
X226051932Y-148639588D01*
X226051932Y-148639588D02*
X226085604Y-148740603D01*
X226085604Y-148740603D02*
X226085604Y-148807947D01*
X226085604Y-148807947D02*
X226051932Y-148908962D01*
X226051932Y-148908962D02*
X225883573Y-149077321D01*
X225883573Y-149077321D02*
X225782558Y-149110993D01*
X225782558Y-149110993D02*
X225715215Y-149110993D01*
X214513042Y-144034873D02*
X214412027Y-144068545D01*
X214412027Y-144068545D02*
X214311011Y-144169560D01*
X214311011Y-144169560D02*
X214243668Y-144304247D01*
X214243668Y-144304247D02*
X214243668Y-144438935D01*
X214243668Y-144438935D02*
X214277340Y-144539950D01*
X214277340Y-144539950D02*
X214378355Y-144708309D01*
X214378355Y-144708309D02*
X214479370Y-144809324D01*
X214479370Y-144809324D02*
X214647729Y-144910339D01*
X214647729Y-144910339D02*
X214748744Y-144944011D01*
X214748744Y-144944011D02*
X214883431Y-144944011D01*
X214883431Y-144944011D02*
X215018118Y-144876667D01*
X215018118Y-144876667D02*
X215085462Y-144809324D01*
X215085462Y-144809324D02*
X215152805Y-144674637D01*
X215152805Y-144674637D02*
X215152805Y-144607293D01*
X215152805Y-144607293D02*
X214917103Y-144371591D01*
X214917103Y-144371591D02*
X214782416Y-144506278D01*
X215523194Y-144371591D02*
X214816088Y-143664484D01*
X214816088Y-143664484D02*
X215085462Y-143395110D01*
X215085462Y-143395110D02*
X215186477Y-143361438D01*
X215186477Y-143361438D02*
X215253820Y-143361438D01*
X215253820Y-143361438D02*
X215354836Y-143395110D01*
X215354836Y-143395110D02*
X215455851Y-143496125D01*
X215455851Y-143496125D02*
X215489523Y-143597141D01*
X215489523Y-143597141D02*
X215489523Y-143664484D01*
X215489523Y-143664484D02*
X215455851Y-143765499D01*
X215455851Y-143765499D02*
X215186477Y-144034873D01*
X216230301Y-143664484D02*
X215523194Y-142957377D01*
X215994599Y-142485973D02*
X216129286Y-142351286D01*
X216129286Y-142351286D02*
X216230301Y-142317614D01*
X216230301Y-142317614D02*
X216364988Y-142317614D01*
X216364988Y-142317614D02*
X216533347Y-142418630D01*
X216533347Y-142418630D02*
X216769049Y-142654332D01*
X216769049Y-142654332D02*
X216870064Y-142822691D01*
X216870064Y-142822691D02*
X216870064Y-142957378D01*
X216870064Y-142957378D02*
X216836392Y-143058393D01*
X216836392Y-143058393D02*
X216701705Y-143193080D01*
X216701705Y-143193080D02*
X216600690Y-143226752D01*
X216600690Y-143226752D02*
X216466003Y-143226752D01*
X216466003Y-143226752D02*
X216297644Y-143125737D01*
X216297644Y-143125737D02*
X216061942Y-142890034D01*
X216061942Y-142890034D02*
X215960927Y-142721676D01*
X215960927Y-142721676D02*
X215960927Y-142586989D01*
X215960927Y-142586989D02*
X215994599Y-142485973D01*
X217678186Y-142216599D02*
X217274125Y-142620660D01*
X217476156Y-142418630D02*
X216769049Y-141711523D01*
X216769049Y-141711523D02*
X216802721Y-141879882D01*
X216802721Y-141879882D02*
X216802721Y-142014569D01*
X216802721Y-142014569D02*
X216769049Y-142115584D01*
X217610843Y-140869729D02*
X217274125Y-141206447D01*
X217274125Y-141206447D02*
X217577171Y-141576836D01*
X217577171Y-141576836D02*
X217577171Y-141509492D01*
X217577171Y-141509492D02*
X217610843Y-141408477D01*
X217610843Y-141408477D02*
X217779201Y-141240118D01*
X217779201Y-141240118D02*
X217880217Y-141206447D01*
X217880217Y-141206447D02*
X217947560Y-141206447D01*
X217947560Y-141206447D02*
X218048575Y-141240118D01*
X218048575Y-141240118D02*
X218216934Y-141408477D01*
X218216934Y-141408477D02*
X218250606Y-141509492D01*
X218250606Y-141509492D02*
X218250606Y-141576836D01*
X218250606Y-141576836D02*
X218216934Y-141677851D01*
X218216934Y-141677851D02*
X218048575Y-141846210D01*
X218048575Y-141846210D02*
X217947560Y-141879882D01*
X217947560Y-141879882D02*
X217880217Y-141879882D01*
X218430541Y-129572651D02*
X218329526Y-129606323D01*
X218329526Y-129606323D02*
X218228510Y-129707338D01*
X218228510Y-129707338D02*
X218161167Y-129842025D01*
X218161167Y-129842025D02*
X218161167Y-129976713D01*
X218161167Y-129976713D02*
X218194839Y-130077728D01*
X218194839Y-130077728D02*
X218295854Y-130246087D01*
X218295854Y-130246087D02*
X218396869Y-130347102D01*
X218396869Y-130347102D02*
X218565228Y-130448117D01*
X218565228Y-130448117D02*
X218666243Y-130481789D01*
X218666243Y-130481789D02*
X218800930Y-130481789D01*
X218800930Y-130481789D02*
X218935617Y-130414445D01*
X218935617Y-130414445D02*
X219002961Y-130347102D01*
X219002961Y-130347102D02*
X219070304Y-130212415D01*
X219070304Y-130212415D02*
X219070304Y-130145071D01*
X219070304Y-130145071D02*
X218834602Y-129909369D01*
X218834602Y-129909369D02*
X218699915Y-130044056D01*
X219440693Y-129909369D02*
X218733587Y-129202262D01*
X218733587Y-129202262D02*
X219002961Y-128932888D01*
X219002961Y-128932888D02*
X219103976Y-128899216D01*
X219103976Y-128899216D02*
X219171319Y-128899216D01*
X219171319Y-128899216D02*
X219272335Y-128932888D01*
X219272335Y-128932888D02*
X219373350Y-129033903D01*
X219373350Y-129033903D02*
X219407022Y-129134919D01*
X219407022Y-129134919D02*
X219407022Y-129202262D01*
X219407022Y-129202262D02*
X219373350Y-129303277D01*
X219373350Y-129303277D02*
X219103976Y-129572651D01*
X220147800Y-129202262D02*
X219440693Y-128495155D01*
X219912098Y-128023751D02*
X220046785Y-127889064D01*
X220046785Y-127889064D02*
X220147800Y-127855392D01*
X220147800Y-127855392D02*
X220282487Y-127855392D01*
X220282487Y-127855392D02*
X220450846Y-127956408D01*
X220450846Y-127956408D02*
X220686548Y-128192110D01*
X220686548Y-128192110D02*
X220787563Y-128360469D01*
X220787563Y-128360469D02*
X220787563Y-128495156D01*
X220787563Y-128495156D02*
X220753891Y-128596171D01*
X220753891Y-128596171D02*
X220619204Y-128730858D01*
X220619204Y-128730858D02*
X220518189Y-128764530D01*
X220518189Y-128764530D02*
X220383502Y-128764530D01*
X220383502Y-128764530D02*
X220215143Y-128663515D01*
X220215143Y-128663515D02*
X219979441Y-128427812D01*
X219979441Y-128427812D02*
X219878426Y-128259454D01*
X219878426Y-128259454D02*
X219878426Y-128124767D01*
X219878426Y-128124767D02*
X219912098Y-128023751D01*
X220922250Y-127619690D02*
X220821235Y-127653362D01*
X220821235Y-127653362D02*
X220753891Y-127653362D01*
X220753891Y-127653362D02*
X220652876Y-127619690D01*
X220652876Y-127619690D02*
X220619204Y-127586019D01*
X220619204Y-127586019D02*
X220585533Y-127485003D01*
X220585533Y-127485003D02*
X220585533Y-127417660D01*
X220585533Y-127417660D02*
X220619204Y-127316645D01*
X220619204Y-127316645D02*
X220753891Y-127181958D01*
X220753891Y-127181958D02*
X220854907Y-127148286D01*
X220854907Y-127148286D02*
X220922250Y-127148286D01*
X220922250Y-127148286D02*
X221023265Y-127181958D01*
X221023265Y-127181958D02*
X221056937Y-127215629D01*
X221056937Y-127215629D02*
X221090609Y-127316645D01*
X221090609Y-127316645D02*
X221090609Y-127383988D01*
X221090609Y-127383988D02*
X221056937Y-127485003D01*
X221056937Y-127485003D02*
X220922250Y-127619690D01*
X220922250Y-127619690D02*
X220888578Y-127720706D01*
X220888578Y-127720706D02*
X220888578Y-127788049D01*
X220888578Y-127788049D02*
X220922250Y-127889064D01*
X220922250Y-127889064D02*
X221056937Y-128023751D01*
X221056937Y-128023751D02*
X221157952Y-128057423D01*
X221157952Y-128057423D02*
X221225296Y-128057423D01*
X221225296Y-128057423D02*
X221326311Y-128023751D01*
X221326311Y-128023751D02*
X221460998Y-127889064D01*
X221460998Y-127889064D02*
X221494670Y-127788049D01*
X221494670Y-127788049D02*
X221494670Y-127720706D01*
X221494670Y-127720706D02*
X221460998Y-127619690D01*
X221460998Y-127619690D02*
X221326311Y-127485003D01*
X221326311Y-127485003D02*
X221225296Y-127451332D01*
X221225296Y-127451332D02*
X221157952Y-127451332D01*
X221157952Y-127451332D02*
X221056937Y-127485003D01*
X214513041Y-129572651D02*
X214412026Y-129606323D01*
X214412026Y-129606323D02*
X214311010Y-129707338D01*
X214311010Y-129707338D02*
X214243667Y-129842025D01*
X214243667Y-129842025D02*
X214243667Y-129976713D01*
X214243667Y-129976713D02*
X214277339Y-130077728D01*
X214277339Y-130077728D02*
X214378354Y-130246087D01*
X214378354Y-130246087D02*
X214479369Y-130347102D01*
X214479369Y-130347102D02*
X214647728Y-130448117D01*
X214647728Y-130448117D02*
X214748743Y-130481789D01*
X214748743Y-130481789D02*
X214883430Y-130481789D01*
X214883430Y-130481789D02*
X215018117Y-130414445D01*
X215018117Y-130414445D02*
X215085461Y-130347102D01*
X215085461Y-130347102D02*
X215152804Y-130212415D01*
X215152804Y-130212415D02*
X215152804Y-130145071D01*
X215152804Y-130145071D02*
X214917102Y-129909369D01*
X214917102Y-129909369D02*
X214782415Y-130044056D01*
X215523193Y-129909369D02*
X214816087Y-129202262D01*
X214816087Y-129202262D02*
X215085461Y-128932888D01*
X215085461Y-128932888D02*
X215186476Y-128899216D01*
X215186476Y-128899216D02*
X215253819Y-128899216D01*
X215253819Y-128899216D02*
X215354835Y-128932888D01*
X215354835Y-128932888D02*
X215455850Y-129033903D01*
X215455850Y-129033903D02*
X215489522Y-129134919D01*
X215489522Y-129134919D02*
X215489522Y-129202262D01*
X215489522Y-129202262D02*
X215455850Y-129303277D01*
X215455850Y-129303277D02*
X215186476Y-129572651D01*
X216230300Y-129202262D02*
X215523193Y-128495155D01*
X215994598Y-128023751D02*
X216129285Y-127889064D01*
X216129285Y-127889064D02*
X216230300Y-127855392D01*
X216230300Y-127855392D02*
X216364987Y-127855392D01*
X216364987Y-127855392D02*
X216533346Y-127956408D01*
X216533346Y-127956408D02*
X216769048Y-128192110D01*
X216769048Y-128192110D02*
X216870063Y-128360469D01*
X216870063Y-128360469D02*
X216870063Y-128495156D01*
X216870063Y-128495156D02*
X216836391Y-128596171D01*
X216836391Y-128596171D02*
X216701704Y-128730858D01*
X216701704Y-128730858D02*
X216600689Y-128764530D01*
X216600689Y-128764530D02*
X216466002Y-128764530D01*
X216466002Y-128764530D02*
X216297643Y-128663515D01*
X216297643Y-128663515D02*
X216061941Y-128427812D01*
X216061941Y-128427812D02*
X215960926Y-128259454D01*
X215960926Y-128259454D02*
X215960926Y-128124767D01*
X215960926Y-128124767D02*
X215994598Y-128023751D01*
X216533346Y-127485003D02*
X217004750Y-127013599D01*
X217004750Y-127013599D02*
X217408811Y-128023751D01*
X218430539Y-151265984D02*
X218329524Y-151299656D01*
X218329524Y-151299656D02*
X218228508Y-151400671D01*
X218228508Y-151400671D02*
X218161165Y-151535358D01*
X218161165Y-151535358D02*
X218161165Y-151670046D01*
X218161165Y-151670046D02*
X218194837Y-151771061D01*
X218194837Y-151771061D02*
X218295852Y-151939420D01*
X218295852Y-151939420D02*
X218396867Y-152040435D01*
X218396867Y-152040435D02*
X218565226Y-152141450D01*
X218565226Y-152141450D02*
X218666241Y-152175122D01*
X218666241Y-152175122D02*
X218800928Y-152175122D01*
X218800928Y-152175122D02*
X218935615Y-152107778D01*
X218935615Y-152107778D02*
X219002959Y-152040435D01*
X219002959Y-152040435D02*
X219070302Y-151905748D01*
X219070302Y-151905748D02*
X219070302Y-151838404D01*
X219070302Y-151838404D02*
X218834600Y-151602702D01*
X218834600Y-151602702D02*
X218699913Y-151737389D01*
X219440691Y-151602702D02*
X218733585Y-150895595D01*
X218733585Y-150895595D02*
X219002959Y-150626221D01*
X219002959Y-150626221D02*
X219103974Y-150592549D01*
X219103974Y-150592549D02*
X219171317Y-150592549D01*
X219171317Y-150592549D02*
X219272333Y-150626221D01*
X219272333Y-150626221D02*
X219373348Y-150727236D01*
X219373348Y-150727236D02*
X219407020Y-150828252D01*
X219407020Y-150828252D02*
X219407020Y-150895595D01*
X219407020Y-150895595D02*
X219373348Y-150996610D01*
X219373348Y-150996610D02*
X219103974Y-151265984D01*
X220147798Y-150895595D02*
X219440691Y-150188488D01*
X219912096Y-149717084D02*
X220046783Y-149582397D01*
X220046783Y-149582397D02*
X220147798Y-149548725D01*
X220147798Y-149548725D02*
X220282485Y-149548725D01*
X220282485Y-149548725D02*
X220450844Y-149649741D01*
X220450844Y-149649741D02*
X220686546Y-149885443D01*
X220686546Y-149885443D02*
X220787561Y-150053802D01*
X220787561Y-150053802D02*
X220787561Y-150188489D01*
X220787561Y-150188489D02*
X220753889Y-150289504D01*
X220753889Y-150289504D02*
X220619202Y-150424191D01*
X220619202Y-150424191D02*
X220518187Y-150457863D01*
X220518187Y-150457863D02*
X220383500Y-150457863D01*
X220383500Y-150457863D02*
X220215141Y-150356848D01*
X220215141Y-150356848D02*
X219979439Y-150121145D01*
X219979439Y-150121145D02*
X219878424Y-149952787D01*
X219878424Y-149952787D02*
X219878424Y-149818100D01*
X219878424Y-149818100D02*
X219912096Y-149717084D01*
X220551859Y-149212008D02*
X220551859Y-149144665D01*
X220551859Y-149144665D02*
X220585531Y-149043649D01*
X220585531Y-149043649D02*
X220753889Y-148875291D01*
X220753889Y-148875291D02*
X220854905Y-148841619D01*
X220854905Y-148841619D02*
X220922248Y-148841619D01*
X220922248Y-148841619D02*
X221023263Y-148875291D01*
X221023263Y-148875291D02*
X221090607Y-148942634D01*
X221090607Y-148942634D02*
X221157950Y-149077321D01*
X221157950Y-149077321D02*
X221157950Y-149885443D01*
X221157950Y-149885443D02*
X221595683Y-149447710D01*
X221730370Y-148370214D02*
X222201775Y-148841619D01*
X221292637Y-148269199D02*
X221629355Y-148942634D01*
X221629355Y-148942634D02*
X222067088Y-148504901D01*
X206678041Y-129572651D02*
X206577026Y-129606323D01*
X206577026Y-129606323D02*
X206476010Y-129707338D01*
X206476010Y-129707338D02*
X206408667Y-129842025D01*
X206408667Y-129842025D02*
X206408667Y-129976713D01*
X206408667Y-129976713D02*
X206442339Y-130077728D01*
X206442339Y-130077728D02*
X206543354Y-130246087D01*
X206543354Y-130246087D02*
X206644369Y-130347102D01*
X206644369Y-130347102D02*
X206812728Y-130448117D01*
X206812728Y-130448117D02*
X206913743Y-130481789D01*
X206913743Y-130481789D02*
X207048430Y-130481789D01*
X207048430Y-130481789D02*
X207183117Y-130414445D01*
X207183117Y-130414445D02*
X207250461Y-130347102D01*
X207250461Y-130347102D02*
X207317804Y-130212415D01*
X207317804Y-130212415D02*
X207317804Y-130145071D01*
X207317804Y-130145071D02*
X207082102Y-129909369D01*
X207082102Y-129909369D02*
X206947415Y-130044056D01*
X207688193Y-129909369D02*
X206981087Y-129202262D01*
X206981087Y-129202262D02*
X207250461Y-128932888D01*
X207250461Y-128932888D02*
X207351476Y-128899216D01*
X207351476Y-128899216D02*
X207418819Y-128899216D01*
X207418819Y-128899216D02*
X207519835Y-128932888D01*
X207519835Y-128932888D02*
X207620850Y-129033903D01*
X207620850Y-129033903D02*
X207654522Y-129134919D01*
X207654522Y-129134919D02*
X207654522Y-129202262D01*
X207654522Y-129202262D02*
X207620850Y-129303277D01*
X207620850Y-129303277D02*
X207351476Y-129572651D01*
X208395300Y-129202262D02*
X207688193Y-128495155D01*
X208159598Y-128023751D02*
X208294285Y-127889064D01*
X208294285Y-127889064D02*
X208395300Y-127855392D01*
X208395300Y-127855392D02*
X208529987Y-127855392D01*
X208529987Y-127855392D02*
X208698346Y-127956408D01*
X208698346Y-127956408D02*
X208934048Y-128192110D01*
X208934048Y-128192110D02*
X209035063Y-128360469D01*
X209035063Y-128360469D02*
X209035063Y-128495156D01*
X209035063Y-128495156D02*
X209001391Y-128596171D01*
X209001391Y-128596171D02*
X208866704Y-128730858D01*
X208866704Y-128730858D02*
X208765689Y-128764530D01*
X208765689Y-128764530D02*
X208631002Y-128764530D01*
X208631002Y-128764530D02*
X208462643Y-128663515D01*
X208462643Y-128663515D02*
X208226941Y-128427812D01*
X208226941Y-128427812D02*
X208125926Y-128259454D01*
X208125926Y-128259454D02*
X208125926Y-128124767D01*
X208125926Y-128124767D02*
X208159598Y-128023751D01*
X209102407Y-127080942D02*
X208765689Y-127417660D01*
X208765689Y-127417660D02*
X209068735Y-127788049D01*
X209068735Y-127788049D02*
X209068735Y-127720706D01*
X209068735Y-127720706D02*
X209102407Y-127619690D01*
X209102407Y-127619690D02*
X209270765Y-127451332D01*
X209270765Y-127451332D02*
X209371781Y-127417660D01*
X209371781Y-127417660D02*
X209439124Y-127417660D01*
X209439124Y-127417660D02*
X209540139Y-127451332D01*
X209540139Y-127451332D02*
X209708498Y-127619690D01*
X209708498Y-127619690D02*
X209742170Y-127720706D01*
X209742170Y-127720706D02*
X209742170Y-127788049D01*
X209742170Y-127788049D02*
X209708498Y-127889064D01*
X209708498Y-127889064D02*
X209540139Y-128057423D01*
X209540139Y-128057423D02*
X209439124Y-128091095D01*
X209439124Y-128091095D02*
X209371781Y-128091095D01*
X218430542Y-136803762D02*
X218329527Y-136837434D01*
X218329527Y-136837434D02*
X218228511Y-136938449D01*
X218228511Y-136938449D02*
X218161168Y-137073136D01*
X218161168Y-137073136D02*
X218161168Y-137207824D01*
X218161168Y-137207824D02*
X218194840Y-137308839D01*
X218194840Y-137308839D02*
X218295855Y-137477198D01*
X218295855Y-137477198D02*
X218396870Y-137578213D01*
X218396870Y-137578213D02*
X218565229Y-137679228D01*
X218565229Y-137679228D02*
X218666244Y-137712900D01*
X218666244Y-137712900D02*
X218800931Y-137712900D01*
X218800931Y-137712900D02*
X218935618Y-137645556D01*
X218935618Y-137645556D02*
X219002962Y-137578213D01*
X219002962Y-137578213D02*
X219070305Y-137443526D01*
X219070305Y-137443526D02*
X219070305Y-137376182D01*
X219070305Y-137376182D02*
X218834603Y-137140480D01*
X218834603Y-137140480D02*
X218699916Y-137275167D01*
X219440694Y-137140480D02*
X218733588Y-136433373D01*
X218733588Y-136433373D02*
X219002962Y-136163999D01*
X219002962Y-136163999D02*
X219103977Y-136130327D01*
X219103977Y-136130327D02*
X219171320Y-136130327D01*
X219171320Y-136130327D02*
X219272336Y-136163999D01*
X219272336Y-136163999D02*
X219373351Y-136265014D01*
X219373351Y-136265014D02*
X219407023Y-136366030D01*
X219407023Y-136366030D02*
X219407023Y-136433373D01*
X219407023Y-136433373D02*
X219373351Y-136534388D01*
X219373351Y-136534388D02*
X219103977Y-136803762D01*
X220147801Y-136433373D02*
X219440694Y-135726266D01*
X219912099Y-135254862D02*
X220046786Y-135120175D01*
X220046786Y-135120175D02*
X220147801Y-135086503D01*
X220147801Y-135086503D02*
X220282488Y-135086503D01*
X220282488Y-135086503D02*
X220450847Y-135187519D01*
X220450847Y-135187519D02*
X220686549Y-135423221D01*
X220686549Y-135423221D02*
X220787564Y-135591580D01*
X220787564Y-135591580D02*
X220787564Y-135726267D01*
X220787564Y-135726267D02*
X220753892Y-135827282D01*
X220753892Y-135827282D02*
X220619205Y-135961969D01*
X220619205Y-135961969D02*
X220518190Y-135995641D01*
X220518190Y-135995641D02*
X220383503Y-135995641D01*
X220383503Y-135995641D02*
X220215144Y-135894626D01*
X220215144Y-135894626D02*
X219979442Y-135658923D01*
X219979442Y-135658923D02*
X219878427Y-135490565D01*
X219878427Y-135490565D02*
X219878427Y-135355878D01*
X219878427Y-135355878D02*
X219912099Y-135254862D01*
X221595686Y-134985488D02*
X221191625Y-135389549D01*
X221393656Y-135187519D02*
X220686549Y-134480412D01*
X220686549Y-134480412D02*
X220720221Y-134648771D01*
X220720221Y-134648771D02*
X220720221Y-134783458D01*
X220720221Y-134783458D02*
X220686549Y-134884473D01*
X222269121Y-134312053D02*
X221865060Y-134716114D01*
X222067091Y-134514084D02*
X221359984Y-133806977D01*
X221359984Y-133806977D02*
X221393656Y-133975336D01*
X221393656Y-133975336D02*
X221393656Y-134110023D01*
X221393656Y-134110023D02*
X221359984Y-134211038D01*
X231542200Y-133750839D02*
X231589819Y-133607982D01*
X231589819Y-133607982D02*
X231589819Y-133369887D01*
X231589819Y-133369887D02*
X231542200Y-133274649D01*
X231542200Y-133274649D02*
X231494580Y-133227030D01*
X231494580Y-133227030D02*
X231399342Y-133179411D01*
X231399342Y-133179411D02*
X231304104Y-133179411D01*
X231304104Y-133179411D02*
X231208866Y-133227030D01*
X231208866Y-133227030D02*
X231161247Y-133274649D01*
X231161247Y-133274649D02*
X231113628Y-133369887D01*
X231113628Y-133369887D02*
X231066009Y-133560363D01*
X231066009Y-133560363D02*
X231018390Y-133655601D01*
X231018390Y-133655601D02*
X230970771Y-133703220D01*
X230970771Y-133703220D02*
X230875533Y-133750839D01*
X230875533Y-133750839D02*
X230780295Y-133750839D01*
X230780295Y-133750839D02*
X230685057Y-133703220D01*
X230685057Y-133703220D02*
X230637438Y-133655601D01*
X230637438Y-133655601D02*
X230589819Y-133560363D01*
X230589819Y-133560363D02*
X230589819Y-133322268D01*
X230589819Y-133322268D02*
X230637438Y-133179411D01*
X230589819Y-132846077D02*
X231589819Y-132607982D01*
X231589819Y-132607982D02*
X230875533Y-132417506D01*
X230875533Y-132417506D02*
X231589819Y-132227030D01*
X231589819Y-132227030D02*
X230589819Y-131988935D01*
X231589819Y-131607982D02*
X230589819Y-131607982D01*
X230589819Y-131607982D02*
X230589819Y-131369887D01*
X230589819Y-131369887D02*
X230637438Y-131227030D01*
X230637438Y-131227030D02*
X230732676Y-131131792D01*
X230732676Y-131131792D02*
X230827914Y-131084173D01*
X230827914Y-131084173D02*
X231018390Y-131036554D01*
X231018390Y-131036554D02*
X231161247Y-131036554D01*
X231161247Y-131036554D02*
X231351723Y-131084173D01*
X231351723Y-131084173D02*
X231446961Y-131131792D01*
X231446961Y-131131792D02*
X231542200Y-131227030D01*
X231542200Y-131227030D02*
X231589819Y-131369887D01*
X231589819Y-131369887D02*
X231589819Y-131607982D01*
X231589819Y-130607982D02*
X230589819Y-130607982D01*
X230589819Y-129941316D02*
X230589819Y-129750840D01*
X230589819Y-129750840D02*
X230637438Y-129655602D01*
X230637438Y-129655602D02*
X230732676Y-129560364D01*
X230732676Y-129560364D02*
X230923152Y-129512745D01*
X230923152Y-129512745D02*
X231256485Y-129512745D01*
X231256485Y-129512745D02*
X231446961Y-129560364D01*
X231446961Y-129560364D02*
X231542200Y-129655602D01*
X231542200Y-129655602D02*
X231589819Y-129750840D01*
X231589819Y-129750840D02*
X231589819Y-129941316D01*
X231589819Y-129941316D02*
X231542200Y-130036554D01*
X231542200Y-130036554D02*
X231446961Y-130131792D01*
X231446961Y-130131792D02*
X231256485Y-130179411D01*
X231256485Y-130179411D02*
X230923152Y-130179411D01*
X230923152Y-130179411D02*
X230732676Y-130131792D01*
X230732676Y-130131792D02*
X230637438Y-130036554D01*
X230637438Y-130036554D02*
X230589819Y-129941316D01*
D11*
X223407653Y-126292828D02*
X222907653Y-125578542D01*
X222550510Y-126292828D02*
X222550510Y-124792828D01*
X222550510Y-124792828D02*
X223121939Y-124792828D01*
X223121939Y-124792828D02*
X223264796Y-124864257D01*
X223264796Y-124864257D02*
X223336225Y-124935685D01*
X223336225Y-124935685D02*
X223407653Y-125078542D01*
X223407653Y-125078542D02*
X223407653Y-125292828D01*
X223407653Y-125292828D02*
X223336225Y-125435685D01*
X223336225Y-125435685D02*
X223264796Y-125507114D01*
X223264796Y-125507114D02*
X223121939Y-125578542D01*
X223121939Y-125578542D02*
X222550510Y-125578542D01*
X224621939Y-126221400D02*
X224479082Y-126292828D01*
X224479082Y-126292828D02*
X224193368Y-126292828D01*
X224193368Y-126292828D02*
X224050510Y-126221400D01*
X224050510Y-126221400D02*
X223979082Y-126078542D01*
X223979082Y-126078542D02*
X223979082Y-125507114D01*
X223979082Y-125507114D02*
X224050510Y-125364257D01*
X224050510Y-125364257D02*
X224193368Y-125292828D01*
X224193368Y-125292828D02*
X224479082Y-125292828D01*
X224479082Y-125292828D02*
X224621939Y-125364257D01*
X224621939Y-125364257D02*
X224693368Y-125507114D01*
X224693368Y-125507114D02*
X224693368Y-125649971D01*
X224693368Y-125649971D02*
X223979082Y-125792828D01*
X225264796Y-126221400D02*
X225407653Y-126292828D01*
X225407653Y-126292828D02*
X225693367Y-126292828D01*
X225693367Y-126292828D02*
X225836224Y-126221400D01*
X225836224Y-126221400D02*
X225907653Y-126078542D01*
X225907653Y-126078542D02*
X225907653Y-126007114D01*
X225907653Y-126007114D02*
X225836224Y-125864257D01*
X225836224Y-125864257D02*
X225693367Y-125792828D01*
X225693367Y-125792828D02*
X225479082Y-125792828D01*
X225479082Y-125792828D02*
X225336224Y-125721400D01*
X225336224Y-125721400D02*
X225264796Y-125578542D01*
X225264796Y-125578542D02*
X225264796Y-125507114D01*
X225264796Y-125507114D02*
X225336224Y-125364257D01*
X225336224Y-125364257D02*
X225479082Y-125292828D01*
X225479082Y-125292828D02*
X225693367Y-125292828D01*
X225693367Y-125292828D02*
X225836224Y-125364257D01*
X227121939Y-126221400D02*
X226979082Y-126292828D01*
X226979082Y-126292828D02*
X226693368Y-126292828D01*
X226693368Y-126292828D02*
X226550510Y-126221400D01*
X226550510Y-126221400D02*
X226479082Y-126078542D01*
X226479082Y-126078542D02*
X226479082Y-125507114D01*
X226479082Y-125507114D02*
X226550510Y-125364257D01*
X226550510Y-125364257D02*
X226693368Y-125292828D01*
X226693368Y-125292828D02*
X226979082Y-125292828D01*
X226979082Y-125292828D02*
X227121939Y-125364257D01*
X227121939Y-125364257D02*
X227193368Y-125507114D01*
X227193368Y-125507114D02*
X227193368Y-125649971D01*
X227193368Y-125649971D02*
X226479082Y-125792828D01*
X227621939Y-125292828D02*
X228193367Y-125292828D01*
X227836224Y-124792828D02*
X227836224Y-126078542D01*
X227836224Y-126078542D02*
X227907653Y-126221400D01*
X227907653Y-126221400D02*
X228050510Y-126292828D01*
X228050510Y-126292828D02*
X228193367Y-126292828D01*
D10*
X206678043Y-144034873D02*
X206577028Y-144068545D01*
X206577028Y-144068545D02*
X206476012Y-144169560D01*
X206476012Y-144169560D02*
X206408669Y-144304247D01*
X206408669Y-144304247D02*
X206408669Y-144438935D01*
X206408669Y-144438935D02*
X206442341Y-144539950D01*
X206442341Y-144539950D02*
X206543356Y-144708309D01*
X206543356Y-144708309D02*
X206644371Y-144809324D01*
X206644371Y-144809324D02*
X206812730Y-144910339D01*
X206812730Y-144910339D02*
X206913745Y-144944011D01*
X206913745Y-144944011D02*
X207048432Y-144944011D01*
X207048432Y-144944011D02*
X207183119Y-144876667D01*
X207183119Y-144876667D02*
X207250463Y-144809324D01*
X207250463Y-144809324D02*
X207317806Y-144674637D01*
X207317806Y-144674637D02*
X207317806Y-144607293D01*
X207317806Y-144607293D02*
X207082104Y-144371591D01*
X207082104Y-144371591D02*
X206947417Y-144506278D01*
X207688195Y-144371591D02*
X206981089Y-143664484D01*
X206981089Y-143664484D02*
X207250463Y-143395110D01*
X207250463Y-143395110D02*
X207351478Y-143361438D01*
X207351478Y-143361438D02*
X207418821Y-143361438D01*
X207418821Y-143361438D02*
X207519837Y-143395110D01*
X207519837Y-143395110D02*
X207620852Y-143496125D01*
X207620852Y-143496125D02*
X207654524Y-143597141D01*
X207654524Y-143597141D02*
X207654524Y-143664484D01*
X207654524Y-143664484D02*
X207620852Y-143765499D01*
X207620852Y-143765499D02*
X207351478Y-144034873D01*
X208395302Y-143664484D02*
X207688195Y-142957377D01*
X208159600Y-142485973D02*
X208294287Y-142351286D01*
X208294287Y-142351286D02*
X208395302Y-142317614D01*
X208395302Y-142317614D02*
X208529989Y-142317614D01*
X208529989Y-142317614D02*
X208698348Y-142418630D01*
X208698348Y-142418630D02*
X208934050Y-142654332D01*
X208934050Y-142654332D02*
X209035065Y-142822691D01*
X209035065Y-142822691D02*
X209035065Y-142957378D01*
X209035065Y-142957378D02*
X209001393Y-143058393D01*
X209001393Y-143058393D02*
X208866706Y-143193080D01*
X208866706Y-143193080D02*
X208765691Y-143226752D01*
X208765691Y-143226752D02*
X208631004Y-143226752D01*
X208631004Y-143226752D02*
X208462645Y-143125737D01*
X208462645Y-143125737D02*
X208226943Y-142890034D01*
X208226943Y-142890034D02*
X208125928Y-142721676D01*
X208125928Y-142721676D02*
X208125928Y-142586989D01*
X208125928Y-142586989D02*
X208159600Y-142485973D01*
X209843187Y-142216599D02*
X209439126Y-142620660D01*
X209641157Y-142418630D02*
X208934050Y-141711523D01*
X208934050Y-141711523D02*
X208967722Y-141879882D01*
X208967722Y-141879882D02*
X208967722Y-142014569D01*
X208967722Y-142014569D02*
X208934050Y-142115584D01*
X209371783Y-141273790D02*
X209809515Y-140836057D01*
X209809515Y-140836057D02*
X209843187Y-141341134D01*
X209843187Y-141341134D02*
X209944202Y-141240118D01*
X209944202Y-141240118D02*
X210045218Y-141206447D01*
X210045218Y-141206447D02*
X210112561Y-141206447D01*
X210112561Y-141206447D02*
X210213576Y-141240118D01*
X210213576Y-141240118D02*
X210381935Y-141408477D01*
X210381935Y-141408477D02*
X210415607Y-141509492D01*
X210415607Y-141509492D02*
X210415607Y-141576836D01*
X210415607Y-141576836D02*
X210381935Y-141677851D01*
X210381935Y-141677851D02*
X210179905Y-141879882D01*
X210179905Y-141879882D02*
X210078889Y-141913553D01*
X210078889Y-141913553D02*
X210011546Y-141913553D01*
X227492198Y-133750839D02*
X227539817Y-133607982D01*
X227539817Y-133607982D02*
X227539817Y-133369887D01*
X227539817Y-133369887D02*
X227492198Y-133274649D01*
X227492198Y-133274649D02*
X227444578Y-133227030D01*
X227444578Y-133227030D02*
X227349340Y-133179411D01*
X227349340Y-133179411D02*
X227254102Y-133179411D01*
X227254102Y-133179411D02*
X227158864Y-133227030D01*
X227158864Y-133227030D02*
X227111245Y-133274649D01*
X227111245Y-133274649D02*
X227063626Y-133369887D01*
X227063626Y-133369887D02*
X227016007Y-133560363D01*
X227016007Y-133560363D02*
X226968388Y-133655601D01*
X226968388Y-133655601D02*
X226920769Y-133703220D01*
X226920769Y-133703220D02*
X226825531Y-133750839D01*
X226825531Y-133750839D02*
X226730293Y-133750839D01*
X226730293Y-133750839D02*
X226635055Y-133703220D01*
X226635055Y-133703220D02*
X226587436Y-133655601D01*
X226587436Y-133655601D02*
X226539817Y-133560363D01*
X226539817Y-133560363D02*
X226539817Y-133322268D01*
X226539817Y-133322268D02*
X226587436Y-133179411D01*
X226539817Y-132846077D02*
X227539817Y-132607982D01*
X227539817Y-132607982D02*
X226825531Y-132417506D01*
X226825531Y-132417506D02*
X227539817Y-132227030D01*
X227539817Y-132227030D02*
X226539817Y-131988935D01*
X227444578Y-131036554D02*
X227492198Y-131084173D01*
X227492198Y-131084173D02*
X227539817Y-131227030D01*
X227539817Y-131227030D02*
X227539817Y-131322268D01*
X227539817Y-131322268D02*
X227492198Y-131465125D01*
X227492198Y-131465125D02*
X227396959Y-131560363D01*
X227396959Y-131560363D02*
X227301721Y-131607982D01*
X227301721Y-131607982D02*
X227111245Y-131655601D01*
X227111245Y-131655601D02*
X226968388Y-131655601D01*
X226968388Y-131655601D02*
X226777912Y-131607982D01*
X226777912Y-131607982D02*
X226682674Y-131560363D01*
X226682674Y-131560363D02*
X226587436Y-131465125D01*
X226587436Y-131465125D02*
X226539817Y-131322268D01*
X226539817Y-131322268D02*
X226539817Y-131227030D01*
X226539817Y-131227030D02*
X226587436Y-131084173D01*
X226587436Y-131084173D02*
X226635055Y-131036554D01*
X227539817Y-130131792D02*
X227539817Y-130607982D01*
X227539817Y-130607982D02*
X226539817Y-130607982D01*
X227539817Y-129798458D02*
X226539817Y-129798458D01*
X227539817Y-129227030D02*
X226968388Y-129655601D01*
X226539817Y-129227030D02*
X227111245Y-129798458D01*
X210595541Y-136803762D02*
X210494526Y-136837434D01*
X210494526Y-136837434D02*
X210393510Y-136938449D01*
X210393510Y-136938449D02*
X210326167Y-137073136D01*
X210326167Y-137073136D02*
X210326167Y-137207824D01*
X210326167Y-137207824D02*
X210359839Y-137308839D01*
X210359839Y-137308839D02*
X210460854Y-137477198D01*
X210460854Y-137477198D02*
X210561869Y-137578213D01*
X210561869Y-137578213D02*
X210730228Y-137679228D01*
X210730228Y-137679228D02*
X210831243Y-137712900D01*
X210831243Y-137712900D02*
X210965930Y-137712900D01*
X210965930Y-137712900D02*
X211100617Y-137645556D01*
X211100617Y-137645556D02*
X211167961Y-137578213D01*
X211167961Y-137578213D02*
X211235304Y-137443526D01*
X211235304Y-137443526D02*
X211235304Y-137376182D01*
X211235304Y-137376182D02*
X210999602Y-137140480D01*
X210999602Y-137140480D02*
X210864915Y-137275167D01*
X211605693Y-137140480D02*
X210898587Y-136433373D01*
X210898587Y-136433373D02*
X211167961Y-136163999D01*
X211167961Y-136163999D02*
X211268976Y-136130327D01*
X211268976Y-136130327D02*
X211336319Y-136130327D01*
X211336319Y-136130327D02*
X211437335Y-136163999D01*
X211437335Y-136163999D02*
X211538350Y-136265014D01*
X211538350Y-136265014D02*
X211572022Y-136366030D01*
X211572022Y-136366030D02*
X211572022Y-136433373D01*
X211572022Y-136433373D02*
X211538350Y-136534388D01*
X211538350Y-136534388D02*
X211268976Y-136803762D01*
X212312800Y-136433373D02*
X211605693Y-135726266D01*
X212077098Y-135254862D02*
X212211785Y-135120175D01*
X212211785Y-135120175D02*
X212312800Y-135086503D01*
X212312800Y-135086503D02*
X212447487Y-135086503D01*
X212447487Y-135086503D02*
X212615846Y-135187519D01*
X212615846Y-135187519D02*
X212851548Y-135423221D01*
X212851548Y-135423221D02*
X212952563Y-135591580D01*
X212952563Y-135591580D02*
X212952563Y-135726267D01*
X212952563Y-135726267D02*
X212918891Y-135827282D01*
X212918891Y-135827282D02*
X212784204Y-135961969D01*
X212784204Y-135961969D02*
X212683189Y-135995641D01*
X212683189Y-135995641D02*
X212548502Y-135995641D01*
X212548502Y-135995641D02*
X212380143Y-135894626D01*
X212380143Y-135894626D02*
X212144441Y-135658923D01*
X212144441Y-135658923D02*
X212043426Y-135490565D01*
X212043426Y-135490565D02*
X212043426Y-135355878D01*
X212043426Y-135355878D02*
X212077098Y-135254862D01*
X213423968Y-135322206D02*
X213558655Y-135187519D01*
X213558655Y-135187519D02*
X213592326Y-135086504D01*
X213592326Y-135086504D02*
X213592326Y-135019160D01*
X213592326Y-135019160D02*
X213558655Y-134850801D01*
X213558655Y-134850801D02*
X213457639Y-134682443D01*
X213457639Y-134682443D02*
X213188265Y-134413069D01*
X213188265Y-134413069D02*
X213087250Y-134379397D01*
X213087250Y-134379397D02*
X213019907Y-134379397D01*
X213019907Y-134379397D02*
X212918891Y-134413069D01*
X212918891Y-134413069D02*
X212784204Y-134547756D01*
X212784204Y-134547756D02*
X212750533Y-134648771D01*
X212750533Y-134648771D02*
X212750533Y-134716114D01*
X212750533Y-134716114D02*
X212784204Y-134817130D01*
X212784204Y-134817130D02*
X212952563Y-134985488D01*
X212952563Y-134985488D02*
X213053578Y-135019160D01*
X213053578Y-135019160D02*
X213120922Y-135019160D01*
X213120922Y-135019160D02*
X213221937Y-134985488D01*
X213221937Y-134985488D02*
X213356624Y-134850801D01*
X213356624Y-134850801D02*
X213390296Y-134749786D01*
X213390296Y-134749786D02*
X213390296Y-134682443D01*
X213390296Y-134682443D02*
X213356624Y-134581427D01*
X214513041Y-151265984D02*
X214412026Y-151299656D01*
X214412026Y-151299656D02*
X214311010Y-151400671D01*
X214311010Y-151400671D02*
X214243667Y-151535358D01*
X214243667Y-151535358D02*
X214243667Y-151670046D01*
X214243667Y-151670046D02*
X214277339Y-151771061D01*
X214277339Y-151771061D02*
X214378354Y-151939420D01*
X214378354Y-151939420D02*
X214479369Y-152040435D01*
X214479369Y-152040435D02*
X214647728Y-152141450D01*
X214647728Y-152141450D02*
X214748743Y-152175122D01*
X214748743Y-152175122D02*
X214883430Y-152175122D01*
X214883430Y-152175122D02*
X215018117Y-152107778D01*
X215018117Y-152107778D02*
X215085461Y-152040435D01*
X215085461Y-152040435D02*
X215152804Y-151905748D01*
X215152804Y-151905748D02*
X215152804Y-151838404D01*
X215152804Y-151838404D02*
X214917102Y-151602702D01*
X214917102Y-151602702D02*
X214782415Y-151737389D01*
X215523193Y-151602702D02*
X214816087Y-150895595D01*
X214816087Y-150895595D02*
X215085461Y-150626221D01*
X215085461Y-150626221D02*
X215186476Y-150592549D01*
X215186476Y-150592549D02*
X215253819Y-150592549D01*
X215253819Y-150592549D02*
X215354835Y-150626221D01*
X215354835Y-150626221D02*
X215455850Y-150727236D01*
X215455850Y-150727236D02*
X215489522Y-150828252D01*
X215489522Y-150828252D02*
X215489522Y-150895595D01*
X215489522Y-150895595D02*
X215455850Y-150996610D01*
X215455850Y-150996610D02*
X215186476Y-151265984D01*
X216230300Y-150895595D02*
X215523193Y-150188488D01*
X215994598Y-149717084D02*
X216129285Y-149582397D01*
X216129285Y-149582397D02*
X216230300Y-149548725D01*
X216230300Y-149548725D02*
X216364987Y-149548725D01*
X216364987Y-149548725D02*
X216533346Y-149649741D01*
X216533346Y-149649741D02*
X216769048Y-149885443D01*
X216769048Y-149885443D02*
X216870063Y-150053802D01*
X216870063Y-150053802D02*
X216870063Y-150188489D01*
X216870063Y-150188489D02*
X216836391Y-150289504D01*
X216836391Y-150289504D02*
X216701704Y-150424191D01*
X216701704Y-150424191D02*
X216600689Y-150457863D01*
X216600689Y-150457863D02*
X216466002Y-150457863D01*
X216466002Y-150457863D02*
X216297643Y-150356848D01*
X216297643Y-150356848D02*
X216061941Y-150121145D01*
X216061941Y-150121145D02*
X215960926Y-149952787D01*
X215960926Y-149952787D02*
X215960926Y-149818100D01*
X215960926Y-149818100D02*
X215994598Y-149717084D01*
X216634361Y-149212008D02*
X216634361Y-149144665D01*
X216634361Y-149144665D02*
X216668033Y-149043649D01*
X216668033Y-149043649D02*
X216836391Y-148875291D01*
X216836391Y-148875291D02*
X216937407Y-148841619D01*
X216937407Y-148841619D02*
X217004750Y-148841619D01*
X217004750Y-148841619D02*
X217105765Y-148875291D01*
X217105765Y-148875291D02*
X217173109Y-148942634D01*
X217173109Y-148942634D02*
X217240452Y-149077321D01*
X217240452Y-149077321D02*
X217240452Y-149885443D01*
X217240452Y-149885443D02*
X217678185Y-149447710D01*
X217206781Y-148504901D02*
X217644513Y-148067168D01*
X217644513Y-148067168D02*
X217678185Y-148572245D01*
X217678185Y-148572245D02*
X217779200Y-148471229D01*
X217779200Y-148471229D02*
X217880216Y-148437558D01*
X217880216Y-148437558D02*
X217947559Y-148437558D01*
X217947559Y-148437558D02*
X218048574Y-148471229D01*
X218048574Y-148471229D02*
X218216933Y-148639588D01*
X218216933Y-148639588D02*
X218250605Y-148740603D01*
X218250605Y-148740603D02*
X218250605Y-148807947D01*
X218250605Y-148807947D02*
X218216933Y-148908962D01*
X218216933Y-148908962D02*
X218014903Y-149110993D01*
X218014903Y-149110993D02*
X217913887Y-149144664D01*
X217913887Y-149144664D02*
X217846544Y-149144664D01*
X214513041Y-136803762D02*
X214412026Y-136837434D01*
X214412026Y-136837434D02*
X214311010Y-136938449D01*
X214311010Y-136938449D02*
X214243667Y-137073136D01*
X214243667Y-137073136D02*
X214243667Y-137207824D01*
X214243667Y-137207824D02*
X214277339Y-137308839D01*
X214277339Y-137308839D02*
X214378354Y-137477198D01*
X214378354Y-137477198D02*
X214479369Y-137578213D01*
X214479369Y-137578213D02*
X214647728Y-137679228D01*
X214647728Y-137679228D02*
X214748743Y-137712900D01*
X214748743Y-137712900D02*
X214883430Y-137712900D01*
X214883430Y-137712900D02*
X215018117Y-137645556D01*
X215018117Y-137645556D02*
X215085461Y-137578213D01*
X215085461Y-137578213D02*
X215152804Y-137443526D01*
X215152804Y-137443526D02*
X215152804Y-137376182D01*
X215152804Y-137376182D02*
X214917102Y-137140480D01*
X214917102Y-137140480D02*
X214782415Y-137275167D01*
X215523193Y-137140480D02*
X214816087Y-136433373D01*
X214816087Y-136433373D02*
X215085461Y-136163999D01*
X215085461Y-136163999D02*
X215186476Y-136130327D01*
X215186476Y-136130327D02*
X215253819Y-136130327D01*
X215253819Y-136130327D02*
X215354835Y-136163999D01*
X215354835Y-136163999D02*
X215455850Y-136265014D01*
X215455850Y-136265014D02*
X215489522Y-136366030D01*
X215489522Y-136366030D02*
X215489522Y-136433373D01*
X215489522Y-136433373D02*
X215455850Y-136534388D01*
X215455850Y-136534388D02*
X215186476Y-136803762D01*
X216230300Y-136433373D02*
X215523193Y-135726266D01*
X215994598Y-135254862D02*
X216129285Y-135120175D01*
X216129285Y-135120175D02*
X216230300Y-135086503D01*
X216230300Y-135086503D02*
X216364987Y-135086503D01*
X216364987Y-135086503D02*
X216533346Y-135187519D01*
X216533346Y-135187519D02*
X216769048Y-135423221D01*
X216769048Y-135423221D02*
X216870063Y-135591580D01*
X216870063Y-135591580D02*
X216870063Y-135726267D01*
X216870063Y-135726267D02*
X216836391Y-135827282D01*
X216836391Y-135827282D02*
X216701704Y-135961969D01*
X216701704Y-135961969D02*
X216600689Y-135995641D01*
X216600689Y-135995641D02*
X216466002Y-135995641D01*
X216466002Y-135995641D02*
X216297643Y-135894626D01*
X216297643Y-135894626D02*
X216061941Y-135658923D01*
X216061941Y-135658923D02*
X215960926Y-135490565D01*
X215960926Y-135490565D02*
X215960926Y-135355878D01*
X215960926Y-135355878D02*
X215994598Y-135254862D01*
X217678185Y-134985488D02*
X217274124Y-135389549D01*
X217476155Y-135187519D02*
X216769048Y-134480412D01*
X216769048Y-134480412D02*
X216802720Y-134648771D01*
X216802720Y-134648771D02*
X216802720Y-134783458D01*
X216802720Y-134783458D02*
X216769048Y-134884473D01*
X217408811Y-133840649D02*
X217476155Y-133773305D01*
X217476155Y-133773305D02*
X217577170Y-133739633D01*
X217577170Y-133739633D02*
X217644513Y-133739633D01*
X217644513Y-133739633D02*
X217745529Y-133773305D01*
X217745529Y-133773305D02*
X217913887Y-133874320D01*
X217913887Y-133874320D02*
X218082246Y-134042679D01*
X218082246Y-134042679D02*
X218183261Y-134211038D01*
X218183261Y-134211038D02*
X218216933Y-134312053D01*
X218216933Y-134312053D02*
X218216933Y-134379397D01*
X218216933Y-134379397D02*
X218183261Y-134480412D01*
X218183261Y-134480412D02*
X218115918Y-134547755D01*
X218115918Y-134547755D02*
X218014903Y-134581427D01*
X218014903Y-134581427D02*
X217947559Y-134581427D01*
X217947559Y-134581427D02*
X217846544Y-134547755D01*
X217846544Y-134547755D02*
X217678185Y-134446740D01*
X217678185Y-134446740D02*
X217509826Y-134278381D01*
X217509826Y-134278381D02*
X217408811Y-134110023D01*
X217408811Y-134110023D02*
X217375139Y-134009007D01*
X217375139Y-134009007D02*
X217375139Y-133941664D01*
X217375139Y-133941664D02*
X217408811Y-133840649D01*
X222348040Y-136803762D02*
X222247025Y-136837434D01*
X222247025Y-136837434D02*
X222146009Y-136938449D01*
X222146009Y-136938449D02*
X222078666Y-137073136D01*
X222078666Y-137073136D02*
X222078666Y-137207824D01*
X222078666Y-137207824D02*
X222112338Y-137308839D01*
X222112338Y-137308839D02*
X222213353Y-137477198D01*
X222213353Y-137477198D02*
X222314368Y-137578213D01*
X222314368Y-137578213D02*
X222482727Y-137679228D01*
X222482727Y-137679228D02*
X222583742Y-137712900D01*
X222583742Y-137712900D02*
X222718429Y-137712900D01*
X222718429Y-137712900D02*
X222853116Y-137645556D01*
X222853116Y-137645556D02*
X222920460Y-137578213D01*
X222920460Y-137578213D02*
X222987803Y-137443526D01*
X222987803Y-137443526D02*
X222987803Y-137376182D01*
X222987803Y-137376182D02*
X222752101Y-137140480D01*
X222752101Y-137140480D02*
X222617414Y-137275167D01*
X223358192Y-137140480D02*
X222651086Y-136433373D01*
X222651086Y-136433373D02*
X222920460Y-136163999D01*
X222920460Y-136163999D02*
X223021475Y-136130327D01*
X223021475Y-136130327D02*
X223088818Y-136130327D01*
X223088818Y-136130327D02*
X223189834Y-136163999D01*
X223189834Y-136163999D02*
X223290849Y-136265014D01*
X223290849Y-136265014D02*
X223324521Y-136366030D01*
X223324521Y-136366030D02*
X223324521Y-136433373D01*
X223324521Y-136433373D02*
X223290849Y-136534388D01*
X223290849Y-136534388D02*
X223021475Y-136803762D01*
X224065299Y-136433373D02*
X223358192Y-135726266D01*
X223829597Y-135254862D02*
X223964284Y-135120175D01*
X223964284Y-135120175D02*
X224065299Y-135086503D01*
X224065299Y-135086503D02*
X224199986Y-135086503D01*
X224199986Y-135086503D02*
X224368345Y-135187519D01*
X224368345Y-135187519D02*
X224604047Y-135423221D01*
X224604047Y-135423221D02*
X224705062Y-135591580D01*
X224705062Y-135591580D02*
X224705062Y-135726267D01*
X224705062Y-135726267D02*
X224671390Y-135827282D01*
X224671390Y-135827282D02*
X224536703Y-135961969D01*
X224536703Y-135961969D02*
X224435688Y-135995641D01*
X224435688Y-135995641D02*
X224301001Y-135995641D01*
X224301001Y-135995641D02*
X224132642Y-135894626D01*
X224132642Y-135894626D02*
X223896940Y-135658923D01*
X223896940Y-135658923D02*
X223795925Y-135490565D01*
X223795925Y-135490565D02*
X223795925Y-135355878D01*
X223795925Y-135355878D02*
X223829597Y-135254862D01*
X225513184Y-134985488D02*
X225109123Y-135389549D01*
X225311154Y-135187519D02*
X224604047Y-134480412D01*
X224604047Y-134480412D02*
X224637719Y-134648771D01*
X224637719Y-134648771D02*
X224637719Y-134783458D01*
X224637719Y-134783458D02*
X224604047Y-134884473D01*
X225142795Y-134076351D02*
X225142795Y-134009007D01*
X225142795Y-134009007D02*
X225176467Y-133907992D01*
X225176467Y-133907992D02*
X225344825Y-133739633D01*
X225344825Y-133739633D02*
X225445841Y-133705962D01*
X225445841Y-133705962D02*
X225513184Y-133705962D01*
X225513184Y-133705962D02*
X225614199Y-133739633D01*
X225614199Y-133739633D02*
X225681543Y-133806977D01*
X225681543Y-133806977D02*
X225748886Y-133941664D01*
X225748886Y-133941664D02*
X225748886Y-134749786D01*
X225748886Y-134749786D02*
X226186619Y-134312053D01*
X210595541Y-151265984D02*
X210494526Y-151299656D01*
X210494526Y-151299656D02*
X210393510Y-151400671D01*
X210393510Y-151400671D02*
X210326167Y-151535358D01*
X210326167Y-151535358D02*
X210326167Y-151670046D01*
X210326167Y-151670046D02*
X210359839Y-151771061D01*
X210359839Y-151771061D02*
X210460854Y-151939420D01*
X210460854Y-151939420D02*
X210561869Y-152040435D01*
X210561869Y-152040435D02*
X210730228Y-152141450D01*
X210730228Y-152141450D02*
X210831243Y-152175122D01*
X210831243Y-152175122D02*
X210965930Y-152175122D01*
X210965930Y-152175122D02*
X211100617Y-152107778D01*
X211100617Y-152107778D02*
X211167961Y-152040435D01*
X211167961Y-152040435D02*
X211235304Y-151905748D01*
X211235304Y-151905748D02*
X211235304Y-151838404D01*
X211235304Y-151838404D02*
X210999602Y-151602702D01*
X210999602Y-151602702D02*
X210864915Y-151737389D01*
X211605693Y-151602702D02*
X210898587Y-150895595D01*
X210898587Y-150895595D02*
X211167961Y-150626221D01*
X211167961Y-150626221D02*
X211268976Y-150592549D01*
X211268976Y-150592549D02*
X211336319Y-150592549D01*
X211336319Y-150592549D02*
X211437335Y-150626221D01*
X211437335Y-150626221D02*
X211538350Y-150727236D01*
X211538350Y-150727236D02*
X211572022Y-150828252D01*
X211572022Y-150828252D02*
X211572022Y-150895595D01*
X211572022Y-150895595D02*
X211538350Y-150996610D01*
X211538350Y-150996610D02*
X211268976Y-151265984D01*
X212312800Y-150895595D02*
X211605693Y-150188488D01*
X212077098Y-149717084D02*
X212211785Y-149582397D01*
X212211785Y-149582397D02*
X212312800Y-149548725D01*
X212312800Y-149548725D02*
X212447487Y-149548725D01*
X212447487Y-149548725D02*
X212615846Y-149649741D01*
X212615846Y-149649741D02*
X212851548Y-149885443D01*
X212851548Y-149885443D02*
X212952563Y-150053802D01*
X212952563Y-150053802D02*
X212952563Y-150188489D01*
X212952563Y-150188489D02*
X212918891Y-150289504D01*
X212918891Y-150289504D02*
X212784204Y-150424191D01*
X212784204Y-150424191D02*
X212683189Y-150457863D01*
X212683189Y-150457863D02*
X212548502Y-150457863D01*
X212548502Y-150457863D02*
X212380143Y-150356848D01*
X212380143Y-150356848D02*
X212144441Y-150121145D01*
X212144441Y-150121145D02*
X212043426Y-149952787D01*
X212043426Y-149952787D02*
X212043426Y-149818100D01*
X212043426Y-149818100D02*
X212077098Y-149717084D01*
X212716861Y-149212008D02*
X212716861Y-149144665D01*
X212716861Y-149144665D02*
X212750533Y-149043649D01*
X212750533Y-149043649D02*
X212918891Y-148875291D01*
X212918891Y-148875291D02*
X213019907Y-148841619D01*
X213019907Y-148841619D02*
X213087250Y-148841619D01*
X213087250Y-148841619D02*
X213188265Y-148875291D01*
X213188265Y-148875291D02*
X213255609Y-148942634D01*
X213255609Y-148942634D02*
X213322952Y-149077321D01*
X213322952Y-149077321D02*
X213322952Y-149885443D01*
X213322952Y-149885443D02*
X213760685Y-149447710D01*
X213390296Y-148538573D02*
X213390296Y-148471229D01*
X213390296Y-148471229D02*
X213423968Y-148370214D01*
X213423968Y-148370214D02*
X213592326Y-148201855D01*
X213592326Y-148201855D02*
X213693342Y-148168184D01*
X213693342Y-148168184D02*
X213760685Y-148168184D01*
X213760685Y-148168184D02*
X213861700Y-148201855D01*
X213861700Y-148201855D02*
X213929044Y-148269199D01*
X213929044Y-148269199D02*
X213996387Y-148403886D01*
X213996387Y-148403886D02*
X213996387Y-149212008D01*
X213996387Y-149212008D02*
X214434120Y-148774275D01*
X210595541Y-144034873D02*
X210494526Y-144068545D01*
X210494526Y-144068545D02*
X210393510Y-144169560D01*
X210393510Y-144169560D02*
X210326167Y-144304247D01*
X210326167Y-144304247D02*
X210326167Y-144438935D01*
X210326167Y-144438935D02*
X210359839Y-144539950D01*
X210359839Y-144539950D02*
X210460854Y-144708309D01*
X210460854Y-144708309D02*
X210561869Y-144809324D01*
X210561869Y-144809324D02*
X210730228Y-144910339D01*
X210730228Y-144910339D02*
X210831243Y-144944011D01*
X210831243Y-144944011D02*
X210965930Y-144944011D01*
X210965930Y-144944011D02*
X211100617Y-144876667D01*
X211100617Y-144876667D02*
X211167961Y-144809324D01*
X211167961Y-144809324D02*
X211235304Y-144674637D01*
X211235304Y-144674637D02*
X211235304Y-144607293D01*
X211235304Y-144607293D02*
X210999602Y-144371591D01*
X210999602Y-144371591D02*
X210864915Y-144506278D01*
X211605693Y-144371591D02*
X210898587Y-143664484D01*
X210898587Y-143664484D02*
X211167961Y-143395110D01*
X211167961Y-143395110D02*
X211268976Y-143361438D01*
X211268976Y-143361438D02*
X211336319Y-143361438D01*
X211336319Y-143361438D02*
X211437335Y-143395110D01*
X211437335Y-143395110D02*
X211538350Y-143496125D01*
X211538350Y-143496125D02*
X211572022Y-143597141D01*
X211572022Y-143597141D02*
X211572022Y-143664484D01*
X211572022Y-143664484D02*
X211538350Y-143765499D01*
X211538350Y-143765499D02*
X211268976Y-144034873D01*
X212312800Y-143664484D02*
X211605693Y-142957377D01*
X212077098Y-142485973D02*
X212211785Y-142351286D01*
X212211785Y-142351286D02*
X212312800Y-142317614D01*
X212312800Y-142317614D02*
X212447487Y-142317614D01*
X212447487Y-142317614D02*
X212615846Y-142418630D01*
X212615846Y-142418630D02*
X212851548Y-142654332D01*
X212851548Y-142654332D02*
X212952563Y-142822691D01*
X212952563Y-142822691D02*
X212952563Y-142957378D01*
X212952563Y-142957378D02*
X212918891Y-143058393D01*
X212918891Y-143058393D02*
X212784204Y-143193080D01*
X212784204Y-143193080D02*
X212683189Y-143226752D01*
X212683189Y-143226752D02*
X212548502Y-143226752D01*
X212548502Y-143226752D02*
X212380143Y-143125737D01*
X212380143Y-143125737D02*
X212144441Y-142890034D01*
X212144441Y-142890034D02*
X212043426Y-142721676D01*
X212043426Y-142721676D02*
X212043426Y-142586989D01*
X212043426Y-142586989D02*
X212077098Y-142485973D01*
X213760685Y-142216599D02*
X213356624Y-142620660D01*
X213558655Y-142418630D02*
X212851548Y-141711523D01*
X212851548Y-141711523D02*
X212885220Y-141879882D01*
X212885220Y-141879882D02*
X212885220Y-142014569D01*
X212885220Y-142014569D02*
X212851548Y-142115584D01*
X213895372Y-141139103D02*
X214366777Y-141610508D01*
X213457639Y-141038088D02*
X213794357Y-141711523D01*
X213794357Y-141711523D02*
X214232090Y-141273790D01*
X210595541Y-129572651D02*
X210494526Y-129606323D01*
X210494526Y-129606323D02*
X210393510Y-129707338D01*
X210393510Y-129707338D02*
X210326167Y-129842025D01*
X210326167Y-129842025D02*
X210326167Y-129976713D01*
X210326167Y-129976713D02*
X210359839Y-130077728D01*
X210359839Y-130077728D02*
X210460854Y-130246087D01*
X210460854Y-130246087D02*
X210561869Y-130347102D01*
X210561869Y-130347102D02*
X210730228Y-130448117D01*
X210730228Y-130448117D02*
X210831243Y-130481789D01*
X210831243Y-130481789D02*
X210965930Y-130481789D01*
X210965930Y-130481789D02*
X211100617Y-130414445D01*
X211100617Y-130414445D02*
X211167961Y-130347102D01*
X211167961Y-130347102D02*
X211235304Y-130212415D01*
X211235304Y-130212415D02*
X211235304Y-130145071D01*
X211235304Y-130145071D02*
X210999602Y-129909369D01*
X210999602Y-129909369D02*
X210864915Y-130044056D01*
X211605693Y-129909369D02*
X210898587Y-129202262D01*
X210898587Y-129202262D02*
X211167961Y-128932888D01*
X211167961Y-128932888D02*
X211268976Y-128899216D01*
X211268976Y-128899216D02*
X211336319Y-128899216D01*
X211336319Y-128899216D02*
X211437335Y-128932888D01*
X211437335Y-128932888D02*
X211538350Y-129033903D01*
X211538350Y-129033903D02*
X211572022Y-129134919D01*
X211572022Y-129134919D02*
X211572022Y-129202262D01*
X211572022Y-129202262D02*
X211538350Y-129303277D01*
X211538350Y-129303277D02*
X211268976Y-129572651D01*
X212312800Y-129202262D02*
X211605693Y-128495155D01*
X212077098Y-128023751D02*
X212211785Y-127889064D01*
X212211785Y-127889064D02*
X212312800Y-127855392D01*
X212312800Y-127855392D02*
X212447487Y-127855392D01*
X212447487Y-127855392D02*
X212615846Y-127956408D01*
X212615846Y-127956408D02*
X212851548Y-128192110D01*
X212851548Y-128192110D02*
X212952563Y-128360469D01*
X212952563Y-128360469D02*
X212952563Y-128495156D01*
X212952563Y-128495156D02*
X212918891Y-128596171D01*
X212918891Y-128596171D02*
X212784204Y-128730858D01*
X212784204Y-128730858D02*
X212683189Y-128764530D01*
X212683189Y-128764530D02*
X212548502Y-128764530D01*
X212548502Y-128764530D02*
X212380143Y-128663515D01*
X212380143Y-128663515D02*
X212144441Y-128427812D01*
X212144441Y-128427812D02*
X212043426Y-128259454D01*
X212043426Y-128259454D02*
X212043426Y-128124767D01*
X212043426Y-128124767D02*
X212077098Y-128023751D01*
X212986235Y-127114614D02*
X212851548Y-127249301D01*
X212851548Y-127249301D02*
X212817876Y-127350316D01*
X212817876Y-127350316D02*
X212817876Y-127417660D01*
X212817876Y-127417660D02*
X212851548Y-127586019D01*
X212851548Y-127586019D02*
X212952563Y-127754377D01*
X212952563Y-127754377D02*
X213221937Y-128023751D01*
X213221937Y-128023751D02*
X213322952Y-128057423D01*
X213322952Y-128057423D02*
X213390296Y-128057423D01*
X213390296Y-128057423D02*
X213491311Y-128023751D01*
X213491311Y-128023751D02*
X213625998Y-127889064D01*
X213625998Y-127889064D02*
X213659670Y-127788049D01*
X213659670Y-127788049D02*
X213659670Y-127720706D01*
X213659670Y-127720706D02*
X213625998Y-127619690D01*
X213625998Y-127619690D02*
X213457639Y-127451332D01*
X213457639Y-127451332D02*
X213356624Y-127417660D01*
X213356624Y-127417660D02*
X213289281Y-127417660D01*
X213289281Y-127417660D02*
X213188265Y-127451332D01*
X213188265Y-127451332D02*
X213053578Y-127586019D01*
X213053578Y-127586019D02*
X213019907Y-127687034D01*
X213019907Y-127687034D02*
X213019907Y-127754377D01*
X213019907Y-127754377D02*
X213053578Y-127855393D01*
D11*
X197904510Y-125507114D02*
X198118796Y-125578542D01*
X198118796Y-125578542D02*
X198190225Y-125649971D01*
X198190225Y-125649971D02*
X198261653Y-125792828D01*
X198261653Y-125792828D02*
X198261653Y-126007114D01*
X198261653Y-126007114D02*
X198190225Y-126149971D01*
X198190225Y-126149971D02*
X198118796Y-126221400D01*
X198118796Y-126221400D02*
X197975939Y-126292828D01*
X197975939Y-126292828D02*
X197404510Y-126292828D01*
X197404510Y-126292828D02*
X197404510Y-124792828D01*
X197404510Y-124792828D02*
X197904510Y-124792828D01*
X197904510Y-124792828D02*
X198047368Y-124864257D01*
X198047368Y-124864257D02*
X198118796Y-124935685D01*
X198118796Y-124935685D02*
X198190225Y-125078542D01*
X198190225Y-125078542D02*
X198190225Y-125221400D01*
X198190225Y-125221400D02*
X198118796Y-125364257D01*
X198118796Y-125364257D02*
X198047368Y-125435685D01*
X198047368Y-125435685D02*
X197904510Y-125507114D01*
X197904510Y-125507114D02*
X197404510Y-125507114D01*
X199118796Y-126292828D02*
X198975939Y-126221400D01*
X198975939Y-126221400D02*
X198904510Y-126149971D01*
X198904510Y-126149971D02*
X198833082Y-126007114D01*
X198833082Y-126007114D02*
X198833082Y-125578542D01*
X198833082Y-125578542D02*
X198904510Y-125435685D01*
X198904510Y-125435685D02*
X198975939Y-125364257D01*
X198975939Y-125364257D02*
X199118796Y-125292828D01*
X199118796Y-125292828D02*
X199333082Y-125292828D01*
X199333082Y-125292828D02*
X199475939Y-125364257D01*
X199475939Y-125364257D02*
X199547368Y-125435685D01*
X199547368Y-125435685D02*
X199618796Y-125578542D01*
X199618796Y-125578542D02*
X199618796Y-126007114D01*
X199618796Y-126007114D02*
X199547368Y-126149971D01*
X199547368Y-126149971D02*
X199475939Y-126221400D01*
X199475939Y-126221400D02*
X199333082Y-126292828D01*
X199333082Y-126292828D02*
X199118796Y-126292828D01*
X200475939Y-126292828D02*
X200333082Y-126221400D01*
X200333082Y-126221400D02*
X200261653Y-126149971D01*
X200261653Y-126149971D02*
X200190225Y-126007114D01*
X200190225Y-126007114D02*
X200190225Y-125578542D01*
X200190225Y-125578542D02*
X200261653Y-125435685D01*
X200261653Y-125435685D02*
X200333082Y-125364257D01*
X200333082Y-125364257D02*
X200475939Y-125292828D01*
X200475939Y-125292828D02*
X200690225Y-125292828D01*
X200690225Y-125292828D02*
X200833082Y-125364257D01*
X200833082Y-125364257D02*
X200904511Y-125435685D01*
X200904511Y-125435685D02*
X200975939Y-125578542D01*
X200975939Y-125578542D02*
X200975939Y-126007114D01*
X200975939Y-126007114D02*
X200904511Y-126149971D01*
X200904511Y-126149971D02*
X200833082Y-126221400D01*
X200833082Y-126221400D02*
X200690225Y-126292828D01*
X200690225Y-126292828D02*
X200475939Y-126292828D01*
X201404511Y-125292828D02*
X201975939Y-125292828D01*
X201618796Y-124792828D02*
X201618796Y-126078542D01*
X201618796Y-126078542D02*
X201690225Y-126221400D01*
X201690225Y-126221400D02*
X201833082Y-126292828D01*
X201833082Y-126292828D02*
X201975939Y-126292828D01*
D10*
X218430542Y-144034873D02*
X218329527Y-144068545D01*
X218329527Y-144068545D02*
X218228511Y-144169560D01*
X218228511Y-144169560D02*
X218161168Y-144304247D01*
X218161168Y-144304247D02*
X218161168Y-144438935D01*
X218161168Y-144438935D02*
X218194840Y-144539950D01*
X218194840Y-144539950D02*
X218295855Y-144708309D01*
X218295855Y-144708309D02*
X218396870Y-144809324D01*
X218396870Y-144809324D02*
X218565229Y-144910339D01*
X218565229Y-144910339D02*
X218666244Y-144944011D01*
X218666244Y-144944011D02*
X218800931Y-144944011D01*
X218800931Y-144944011D02*
X218935618Y-144876667D01*
X218935618Y-144876667D02*
X219002962Y-144809324D01*
X219002962Y-144809324D02*
X219070305Y-144674637D01*
X219070305Y-144674637D02*
X219070305Y-144607293D01*
X219070305Y-144607293D02*
X218834603Y-144371591D01*
X218834603Y-144371591D02*
X218699916Y-144506278D01*
X219440694Y-144371591D02*
X218733588Y-143664484D01*
X218733588Y-143664484D02*
X219002962Y-143395110D01*
X219002962Y-143395110D02*
X219103977Y-143361438D01*
X219103977Y-143361438D02*
X219171320Y-143361438D01*
X219171320Y-143361438D02*
X219272336Y-143395110D01*
X219272336Y-143395110D02*
X219373351Y-143496125D01*
X219373351Y-143496125D02*
X219407023Y-143597141D01*
X219407023Y-143597141D02*
X219407023Y-143664484D01*
X219407023Y-143664484D02*
X219373351Y-143765499D01*
X219373351Y-143765499D02*
X219103977Y-144034873D01*
X220147801Y-143664484D02*
X219440694Y-142957377D01*
X219912099Y-142485973D02*
X220046786Y-142351286D01*
X220046786Y-142351286D02*
X220147801Y-142317614D01*
X220147801Y-142317614D02*
X220282488Y-142317614D01*
X220282488Y-142317614D02*
X220450847Y-142418630D01*
X220450847Y-142418630D02*
X220686549Y-142654332D01*
X220686549Y-142654332D02*
X220787564Y-142822691D01*
X220787564Y-142822691D02*
X220787564Y-142957378D01*
X220787564Y-142957378D02*
X220753892Y-143058393D01*
X220753892Y-143058393D02*
X220619205Y-143193080D01*
X220619205Y-143193080D02*
X220518190Y-143226752D01*
X220518190Y-143226752D02*
X220383503Y-143226752D01*
X220383503Y-143226752D02*
X220215144Y-143125737D01*
X220215144Y-143125737D02*
X219979442Y-142890034D01*
X219979442Y-142890034D02*
X219878427Y-142721676D01*
X219878427Y-142721676D02*
X219878427Y-142586989D01*
X219878427Y-142586989D02*
X219912099Y-142485973D01*
X221595686Y-142216599D02*
X221191625Y-142620660D01*
X221393656Y-142418630D02*
X220686549Y-141711523D01*
X220686549Y-141711523D02*
X220720221Y-141879882D01*
X220720221Y-141879882D02*
X220720221Y-142014569D01*
X220720221Y-142014569D02*
X220686549Y-142115584D01*
X221494671Y-140903401D02*
X221359984Y-141038088D01*
X221359984Y-141038088D02*
X221326312Y-141139103D01*
X221326312Y-141139103D02*
X221326312Y-141206447D01*
X221326312Y-141206447D02*
X221359984Y-141374805D01*
X221359984Y-141374805D02*
X221460999Y-141543164D01*
X221460999Y-141543164D02*
X221730373Y-141812538D01*
X221730373Y-141812538D02*
X221831388Y-141846210D01*
X221831388Y-141846210D02*
X221898732Y-141846210D01*
X221898732Y-141846210D02*
X221999747Y-141812538D01*
X221999747Y-141812538D02*
X222134434Y-141677851D01*
X222134434Y-141677851D02*
X222168106Y-141576836D01*
X222168106Y-141576836D02*
X222168106Y-141509492D01*
X222168106Y-141509492D02*
X222134434Y-141408477D01*
X222134434Y-141408477D02*
X221966075Y-141240118D01*
X221966075Y-141240118D02*
X221865060Y-141206447D01*
X221865060Y-141206447D02*
X221797717Y-141206447D01*
X221797717Y-141206447D02*
X221696701Y-141240118D01*
X221696701Y-141240118D02*
X221562014Y-141374805D01*
X221562014Y-141374805D02*
X221528343Y-141475821D01*
X221528343Y-141475821D02*
X221528343Y-141543164D01*
X221528343Y-141543164D02*
X221562014Y-141644179D01*
D12*
%TO.C,C1*%
X204425436Y-98903200D02*
X204209764Y-98903200D01*
X204425436Y-99623200D02*
X204209764Y-99623200D01*
D10*
%TO.C,D36*%
X257710918Y-153784853D02*
X258100666Y-153694873D01*
X258100666Y-153694873D02*
X257976943Y-153158969D01*
X258100666Y-153694873D02*
X258224391Y-154230776D01*
X258100666Y-153694873D02*
X258595308Y-153170154D01*
X258595308Y-153170154D02*
X258775269Y-153949650D01*
X258685289Y-153559902D02*
X259172474Y-153447427D01*
X258775269Y-153949650D02*
X258100666Y-153694873D01*
%TO.C,D2*%
X144030694Y-87879327D02*
X144411116Y-88002934D01*
X144411116Y-88002934D02*
X144241158Y-88526015D01*
X144411116Y-88002934D02*
X144581076Y-87479853D01*
X144411116Y-88002934D02*
X145105357Y-87807922D01*
X144858143Y-88568767D02*
X144411116Y-88002934D01*
X144981750Y-88188344D02*
X145457278Y-88342853D01*
X145105357Y-87807922D02*
X144858143Y-88568767D01*
%TO.C,D28*%
X272935468Y-120673698D02*
X273315890Y-120550091D01*
X273315890Y-120550091D02*
X273145932Y-120027010D01*
X273315890Y-120550091D02*
X273485850Y-121073172D01*
X273315890Y-120550091D02*
X273762917Y-119984258D01*
X273762917Y-119984258D02*
X274010131Y-120745103D01*
X273886524Y-120364681D02*
X274362052Y-120210172D01*
X274010131Y-120745103D02*
X273315890Y-120550091D01*
%TO.C,D9*%
X279681543Y-88126541D02*
X280061965Y-88002934D01*
X280061965Y-88002934D02*
X279892007Y-87479853D01*
X280061965Y-88002934D02*
X280231925Y-88526015D01*
X280061965Y-88002934D02*
X280508992Y-87437101D01*
X280508992Y-87437101D02*
X280756206Y-88197946D01*
X280632599Y-87817524D02*
X281108127Y-87663015D01*
X280756206Y-88197946D02*
X280061965Y-88002934D01*
D12*
%TO.C,TP6*%
X215870000Y-139377778D02*
G75*
G02*
X213470000Y-139377778I-1200000J0D01*
G01*
X213470000Y-139377778D02*
G75*
G02*
X215870000Y-139377778I1200000J0D01*
G01*
D10*
%TO.C,D24*%
X165191169Y-129434989D02*
X165571591Y-129558596D01*
X165571591Y-129558596D02*
X165401633Y-130081677D01*
X165571591Y-129558596D02*
X165741551Y-129035515D01*
X165571591Y-129558596D02*
X166265832Y-129363584D01*
X166018618Y-130124429D02*
X165571591Y-129558596D01*
X166142225Y-129744006D02*
X166617753Y-129898515D01*
X166265832Y-129363584D02*
X166018618Y-130124429D01*
D12*
%TO.C,R5*%
X202411359Y-115215400D02*
X202718641Y-115215400D01*
X202411359Y-115975400D02*
X202718641Y-115975400D01*
%TO.C,TP11*%
X215870001Y-146608889D02*
G75*
G02*
X213470001Y-146608889I-1200000J0D01*
G01*
X213470001Y-146608889D02*
G75*
G02*
X215870001Y-146608889I1200000J0D01*
G01*
D10*
%TO.C,D22*%
X133806304Y-119264191D02*
X134186726Y-119387798D01*
X134186726Y-119387798D02*
X134016768Y-119910879D01*
X134186726Y-119387798D02*
X134356686Y-118864717D01*
X134186726Y-119387798D02*
X134880967Y-119192786D01*
X134633753Y-119953631D02*
X134186726Y-119387798D01*
X134757360Y-119573208D02*
X135232888Y-119727717D01*
X134880967Y-119192786D02*
X134633753Y-119953631D01*
D12*
%TO.C,TP14*%
X215870000Y-153840000D02*
G75*
G02*
X213470000Y-153840000I-1200000J0D01*
G01*
X213470000Y-153840000D02*
G75*
G02*
X215870000Y-153840000I1200000J0D01*
G01*
D10*
%TO.C,D14*%
X170303364Y-113742565D02*
X170683786Y-113866172D01*
X170683786Y-113866172D02*
X170513828Y-114389253D01*
X170683786Y-113866172D02*
X170853746Y-113343091D01*
X170683786Y-113866172D02*
X171378027Y-113671160D01*
X171130813Y-114432005D02*
X170683786Y-113866172D01*
X171254420Y-114051582D02*
X171729948Y-114206091D01*
X171378027Y-113671160D02*
X171130813Y-114432005D01*
D12*
%TO.C,Y1*%
X209031600Y-123936400D02*
X209431600Y-123936400D01*
X209431600Y-123936400D02*
X209431600Y-123256400D01*
X211351600Y-121736400D02*
X213031600Y-121736400D01*
X211351600Y-125456400D02*
X211351600Y-125956400D01*
X213031600Y-125456400D02*
X211351600Y-125456400D01*
X214951600Y-123256400D02*
X214951600Y-123936400D01*
%TO.C,TP10*%
X211952500Y-146608889D02*
G75*
G02*
X209552500Y-146608889I-1200000J0D01*
G01*
X209552500Y-146608889D02*
G75*
G02*
X211952500Y-146608889I1200000J0D01*
G01*
%TO.C,TP1*%
X208035000Y-132146667D02*
G75*
G02*
X205635000Y-132146667I-1200000J0D01*
G01*
X205635000Y-132146667D02*
G75*
G02*
X208035000Y-132146667I1200000J0D01*
G01*
%TO.C,TP9*%
X208035002Y-146608889D02*
G75*
G02*
X205635002Y-146608889I-1200000J0D01*
G01*
X205635002Y-146608889D02*
G75*
G02*
X208035002Y-146608889I1200000J0D01*
G01*
D10*
%TO.C,D25*%
X180116772Y-136874262D02*
X180497194Y-136997869D01*
X180497194Y-136997869D02*
X180327236Y-137520950D01*
X180497194Y-136997869D02*
X180667154Y-136474788D01*
X180497194Y-136997869D02*
X181191435Y-136802857D01*
X180944221Y-137563702D02*
X180497194Y-136997869D01*
X181067828Y-137183279D02*
X181543356Y-137337788D01*
X181191435Y-136802857D02*
X180944221Y-137563702D01*
D12*
%TO.C,TP7*%
X219787501Y-139377778D02*
G75*
G02*
X217387501Y-139377778I-1200000J0D01*
G01*
X217387501Y-139377778D02*
G75*
G02*
X219787501Y-139377778I1200000J0D01*
G01*
%TO.C,C9*%
X217138364Y-110968200D02*
X217354036Y-110968200D01*
X217138364Y-111688200D02*
X217354036Y-111688200D01*
%TO.C,R3*%
X212522800Y-108355642D02*
X212522800Y-108048360D01*
X213282800Y-108355642D02*
X213282800Y-108048360D01*
%TO.C,TP22*%
X232920000Y-135240000D02*
G75*
G02*
X230520000Y-135240000I-1200000J0D01*
G01*
X230520000Y-135240000D02*
G75*
G02*
X232920000Y-135240000I1200000J0D01*
G01*
D10*
%TO.C,D4*%
X175415559Y-98050125D02*
X175795981Y-98173732D01*
X175795981Y-98173732D02*
X175626023Y-98696813D01*
X175795981Y-98173732D02*
X175965941Y-97650651D01*
X175795981Y-98173732D02*
X176490222Y-97978720D01*
X176243008Y-98739565D02*
X175795981Y-98173732D01*
X176366615Y-98359142D02*
X176842143Y-98513651D01*
X176490222Y-97978720D02*
X176243008Y-98739565D01*
%TO.C,D33*%
X199885132Y-171292014D02*
X200177673Y-171564814D01*
X200177673Y-171564814D02*
X199802574Y-171967058D01*
X200177673Y-171564814D02*
X200552772Y-171162569D01*
X200177673Y-171564814D02*
X200889285Y-171681471D01*
X200343687Y-172266553D02*
X200177673Y-171564814D01*
X200616485Y-171974013D02*
X200982162Y-172315012D01*
X200889285Y-171681471D02*
X200343687Y-172266553D01*
%TO.C,D18*%
X267823257Y-104981274D02*
X268203679Y-104857667D01*
X268203679Y-104857667D02*
X268033721Y-104334586D01*
X268203679Y-104857667D02*
X268373639Y-105380748D01*
X268203679Y-104857667D02*
X268650706Y-104291834D01*
X268650706Y-104291834D02*
X268897920Y-105052679D01*
X268774313Y-104672257D02*
X269249841Y-104517748D01*
X268897920Y-105052679D02*
X268203679Y-104857667D01*
%TO.C,D35*%
X239584542Y-160623339D02*
X239937721Y-160435550D01*
X239937721Y-160435550D02*
X239679512Y-159949929D01*
X239937721Y-160435550D02*
X240195931Y-160921171D01*
X239937721Y-160435550D02*
X240279701Y-159800688D01*
X240279701Y-159800688D02*
X240655278Y-160507045D01*
X240467490Y-160153867D02*
X240908964Y-159919131D01*
X240655278Y-160507045D02*
X239937721Y-160435550D01*
D12*
%TO.C,TP4*%
X219787500Y-132146667D02*
G75*
G02*
X217387500Y-132146667I-1200000J0D01*
G01*
X217387500Y-132146667D02*
G75*
G02*
X219787500Y-132146667I1200000J0D01*
G01*
D10*
%TO.C,D8*%
X262711062Y-89288834D02*
X263091484Y-89165227D01*
X263091484Y-89165227D02*
X262921526Y-88642146D01*
X263091484Y-89165227D02*
X263261444Y-89688308D01*
X263091484Y-89165227D02*
X263538511Y-88599394D01*
X263538511Y-88599394D02*
X263785725Y-89360239D01*
X263662118Y-88979817D02*
X264137646Y-88825308D01*
X263785725Y-89360239D02*
X263091484Y-89165227D01*
D12*
%TO.C,TP16*%
X223704999Y-153840000D02*
G75*
G02*
X221304999Y-153840000I-1200000J0D01*
G01*
X221304999Y-153840000D02*
G75*
G02*
X223704999Y-153840000I1200000J0D01*
G01*
D10*
%TO.C,D11*%
X119852007Y-108843369D02*
X120232429Y-108966976D01*
X120232429Y-108966976D02*
X120062471Y-109490057D01*
X120232429Y-108966976D02*
X120402389Y-108443895D01*
X120232429Y-108966976D02*
X120926670Y-108771964D01*
X120679456Y-109532809D02*
X120232429Y-108966976D01*
X120803063Y-109152386D02*
X121278591Y-109306895D01*
X120926670Y-108771964D02*
X120679456Y-109532809D01*
%TO.C,D16*%
X238483286Y-121429035D02*
X238863708Y-121305428D01*
X238863708Y-121305428D02*
X238693750Y-120782347D01*
X238863708Y-121305428D02*
X239033668Y-121828509D01*
X238863708Y-121305428D02*
X239310735Y-120739595D01*
X239310735Y-120739595D02*
X239557949Y-121500440D01*
X239434342Y-121120018D02*
X239909870Y-120965509D01*
X239557949Y-121500440D02*
X238863708Y-121305428D01*
D12*
%TO.C,R9*%
X202718641Y-117349000D02*
X202411359Y-117349000D01*
X202718641Y-118109000D02*
X202411359Y-118109000D01*
D10*
%TO.C,D15*%
X185228967Y-121181821D02*
X185609389Y-121305428D01*
X185609389Y-121305428D02*
X185439431Y-121828509D01*
X185609389Y-121305428D02*
X185779349Y-120782347D01*
X185609389Y-121305428D02*
X186303630Y-121110416D01*
X186056416Y-121871261D02*
X185609389Y-121305428D01*
X186180023Y-121490838D02*
X186655551Y-121645347D01*
X186303630Y-121110416D02*
X186056416Y-121871261D01*
%TO.C,D31*%
X165982666Y-153604893D02*
X166372414Y-153694873D01*
X166372414Y-153694873D02*
X166248691Y-154230777D01*
X166372414Y-153694873D02*
X166496139Y-153158970D01*
X166372414Y-153694873D02*
X167047017Y-153440096D01*
X166867056Y-154219592D02*
X166372414Y-153694873D01*
X166957037Y-153829844D02*
X167444222Y-153942319D01*
X167047017Y-153440096D02*
X166867056Y-154219592D01*
%TO.C,D32*%
X184182196Y-160247762D02*
X184535375Y-160435551D01*
X184535375Y-160435551D02*
X184277166Y-160921172D01*
X184535375Y-160435551D02*
X184793585Y-159949930D01*
X184535375Y-160435551D02*
X185252932Y-160364056D01*
X184877355Y-161070413D02*
X184535375Y-160435551D01*
X185065144Y-160717234D02*
X185506618Y-160951970D01*
X185252932Y-160364056D02*
X184877355Y-161070413D01*
D12*
%TO.C,R6*%
X215520000Y-122838241D02*
X215520000Y-122530959D01*
X216280000Y-122838241D02*
X216280000Y-122530959D01*
%TO.C,U1*%
X208626540Y-111983500D02*
X208626540Y-111573500D01*
X208626540Y-118553500D02*
X208626540Y-117903500D01*
X209276540Y-111333500D02*
X208926540Y-111333500D01*
X209276540Y-118553500D02*
X208626540Y-118553500D01*
X215196540Y-111333500D02*
X215846540Y-111333500D01*
X215196540Y-118553500D02*
X215846540Y-118553500D01*
X215846540Y-111333500D02*
X215846540Y-111983500D01*
X215846540Y-118553500D02*
X215846540Y-117903500D01*
X208626540Y-111333500D02*
X208386540Y-111003500D01*
X208866540Y-111003500D01*
X208626540Y-111333500D01*
G36*
X208626540Y-111333500D02*
G01*
X208386540Y-111003500D01*
X208866540Y-111003500D01*
X208626540Y-111333500D01*
G37*
%TO.C,C5*%
X207143236Y-111298400D02*
X206927564Y-111298400D01*
X207143236Y-112018400D02*
X206927564Y-112018400D01*
%TO.C,TP15*%
X219787498Y-153840000D02*
G75*
G02*
X217387498Y-153840000I-1200000J0D01*
G01*
X217387498Y-153840000D02*
G75*
G02*
X219787498Y-153840000I1200000J0D01*
G01*
%TO.C,TP12*%
X219787501Y-146608889D02*
G75*
G02*
X217387501Y-146608889I-1200000J0D01*
G01*
X217387501Y-146608889D02*
G75*
G02*
X219787501Y-146608889I1200000J0D01*
G01*
D10*
%TO.C,D20*%
X303860230Y-109090583D02*
X304240652Y-108966976D01*
X304240652Y-108966976D02*
X304070694Y-108443895D01*
X304240652Y-108966976D02*
X304410612Y-109490057D01*
X304240652Y-108966976D02*
X304687679Y-108401143D01*
X304687679Y-108401143D02*
X304934893Y-109161988D01*
X304811286Y-108781566D02*
X305286814Y-108627057D01*
X304934893Y-109161988D02*
X304240652Y-108966976D01*
%TO.C,D17*%
X253408873Y-113989779D02*
X253789295Y-113866172D01*
X253789295Y-113866172D02*
X253619337Y-113343091D01*
X253789295Y-113866172D02*
X253959255Y-114389253D01*
X253789295Y-113866172D02*
X254236322Y-113300339D01*
X254236322Y-113300339D02*
X254483536Y-114061184D01*
X254359929Y-113680762D02*
X254835457Y-113526253D01*
X254483536Y-114061184D02*
X253789295Y-113866172D01*
D12*
%TO.C,U3*%
X214908999Y-92080500D02*
X214908999Y-91280500D01*
X214908999Y-92080500D02*
X214908999Y-92880500D01*
X218028999Y-92080500D02*
X218028999Y-91280500D01*
X218028999Y-92080500D02*
X218028999Y-92880500D01*
X214958999Y-93380500D02*
X214628999Y-93620500D01*
X214628999Y-93140500D01*
X214958999Y-93380500D01*
G36*
X214958999Y-93380500D02*
G01*
X214628999Y-93620500D01*
X214628999Y-93140500D01*
X214958999Y-93380500D01*
G37*
%TO.C,C7*%
X211476000Y-103409636D02*
X211476000Y-103193964D01*
X212196000Y-103409636D02*
X212196000Y-103193964D01*
%TO.C,TP5*%
X211952500Y-139377778D02*
G75*
G02*
X209552500Y-139377778I-1200000J0D01*
G01*
X209552500Y-139377778D02*
G75*
G02*
X211952500Y-139377778I1200000J0D01*
G01*
%TO.C,C12*%
X211120400Y-105467036D02*
X211120400Y-105251364D01*
X211840400Y-105467036D02*
X211840400Y-105251364D01*
D10*
%TO.C,D34*%
X224002866Y-171837613D02*
X224295407Y-171564813D01*
X224295407Y-171564813D02*
X223920308Y-171162569D01*
X224295407Y-171564813D02*
X224461421Y-170863074D01*
X224295407Y-171564813D02*
X224670506Y-171967058D01*
X224461421Y-170863074D02*
X225007019Y-171448156D01*
X224734219Y-171155614D02*
X225099896Y-170814615D01*
X225007019Y-171448156D02*
X224295407Y-171564813D01*
D12*
%TO.C,C10*%
X216350964Y-109901400D02*
X216566636Y-109901400D01*
X216350964Y-110621400D02*
X216566636Y-110621400D01*
%TO.C,C3*%
X211958600Y-101403036D02*
X211958600Y-101187364D01*
X212678600Y-101403036D02*
X212678600Y-101187364D01*
D10*
%TO.C,D21*%
X114739812Y-124535809D02*
X115120234Y-124659416D01*
X115120234Y-124659416D02*
X114950276Y-125182497D01*
X115120234Y-124659416D02*
X115290194Y-124136335D01*
X115120234Y-124659416D02*
X115814475Y-124464404D01*
X115567261Y-125225249D02*
X115120234Y-124659416D01*
X115690868Y-124844826D02*
X116166396Y-124999335D01*
X115814475Y-124464404D02*
X115567261Y-125225249D01*
%TO.C,D13*%
X155888980Y-104734060D02*
X156269402Y-104857667D01*
X156269402Y-104857667D02*
X156099444Y-105380748D01*
X156269402Y-104857667D02*
X156439362Y-104334586D01*
X156269402Y-104857667D02*
X156963643Y-104662655D01*
X156716429Y-105423500D02*
X156269402Y-104857667D01*
X156840036Y-105043077D02*
X157315564Y-105197586D01*
X156963643Y-104662655D02*
X156716429Y-105423500D01*
D12*
%TO.C,TP2*%
X211952500Y-132146667D02*
G75*
G02*
X209552500Y-132146667I-1200000J0D01*
G01*
X209552500Y-132146667D02*
G75*
G02*
X211952500Y-132146667I1200000J0D01*
G01*
%TO.C,C14*%
X208123200Y-122606763D02*
X208123200Y-122822435D01*
X208843200Y-122606763D02*
X208843200Y-122822435D01*
%TO.C,R7*%
X221514158Y-117476000D02*
X221821440Y-117476000D01*
X221514158Y-118236000D02*
X221821440Y-118236000D01*
%TO.C,C4*%
X205393236Y-115583500D02*
X205177564Y-115583500D01*
X205393236Y-116303500D02*
X205177564Y-116303500D01*
D10*
%TO.C,D23*%
X150776785Y-120426484D02*
X151157207Y-120550091D01*
X151157207Y-120550091D02*
X150987249Y-121073172D01*
X151157207Y-120550091D02*
X151327167Y-120027010D01*
X151157207Y-120550091D02*
X151851448Y-120355079D01*
X151604234Y-121115924D02*
X151157207Y-120550091D01*
X151727841Y-120735501D02*
X152203369Y-120890010D01*
X151851448Y-120355079D02*
X151604234Y-121115924D01*
D12*
%TO.C,TP21*%
X228869998Y-135240000D02*
G75*
G02*
X226469998Y-135240000I-1200000J0D01*
G01*
X226469998Y-135240000D02*
G75*
G02*
X228869998Y-135240000I1200000J0D01*
G01*
%TO.C,R4*%
X213616533Y-108347842D02*
X213616533Y-108040560D01*
X214376533Y-108347842D02*
X214376533Y-108040560D01*
D10*
%TO.C,D3*%
X161001175Y-89041620D02*
X161381597Y-89165227D01*
X161381597Y-89165227D02*
X161211639Y-89688308D01*
X161381597Y-89165227D02*
X161551557Y-88642146D01*
X161381597Y-89165227D02*
X162075838Y-88970215D01*
X161828624Y-89731060D02*
X161381597Y-89165227D01*
X161952231Y-89350637D02*
X162427759Y-89505146D01*
X162075838Y-88970215D02*
X161828624Y-89731060D01*
D12*
%TO.C,TP8*%
X223704999Y-139377778D02*
G75*
G02*
X221304999Y-139377778I-1200000J0D01*
G01*
X221304999Y-139377778D02*
G75*
G02*
X223704999Y-139377778I1200000J0D01*
G01*
D10*
%TO.C,D26*%
X243595482Y-137121476D02*
X243975904Y-136997869D01*
X243975904Y-136997869D02*
X243805946Y-136474788D01*
X243975904Y-136997869D02*
X244145864Y-137520950D01*
X243975904Y-136997869D02*
X244422931Y-136432036D01*
X244422931Y-136432036D02*
X244670145Y-137192881D01*
X244546538Y-136812459D02*
X245022066Y-136657950D01*
X244670145Y-137192881D02*
X243975904Y-136997869D01*
D12*
%TO.C,C11*%
X214720267Y-108294236D02*
X214720267Y-108078564D01*
X215440267Y-108294236D02*
X215440267Y-108078564D01*
D10*
%TO.C,D10*%
X298748035Y-93398159D02*
X299128457Y-93274552D01*
X299128457Y-93274552D02*
X298958499Y-92751471D01*
X299128457Y-93274552D02*
X299298417Y-93797633D01*
X299128457Y-93274552D02*
X299575484Y-92708719D01*
X299575484Y-92708719D02*
X299822698Y-93469564D01*
X299699091Y-93089142D02*
X300174619Y-92934633D01*
X299822698Y-93469564D02*
X299128457Y-93274552D01*
D12*
%TO.C,TP13*%
X211952500Y-153840000D02*
G75*
G02*
X209552500Y-153840000I-1200000J0D01*
G01*
X209552500Y-153840000D02*
G75*
G02*
X211952500Y-153840000I1200000J0D01*
G01*
%TO.C,C2*%
X215794000Y-108286436D02*
X215794000Y-108070764D01*
X216514000Y-108286436D02*
X216514000Y-108070764D01*
%TO.C,C15*%
X215540000Y-124796436D02*
X215540000Y-124580764D01*
X216260000Y-124796436D02*
X216260000Y-124580764D01*
%TO.C,TP3*%
X215870000Y-132146667D02*
G75*
G02*
X213470000Y-132146667I-1200000J0D01*
G01*
X213470000Y-132146667D02*
G75*
G02*
X215870000Y-132146667I1200000J0D01*
G01*
%TO.C,C6*%
X216700700Y-122574164D02*
X216700700Y-122789836D01*
X217420700Y-122574164D02*
X217420700Y-122789836D01*
%TO.C,R8*%
X202718641Y-116282200D02*
X202411359Y-116282200D01*
X202718641Y-117042200D02*
X202411359Y-117042200D01*
D10*
%TO.C,D7*%
X248296678Y-98297339D02*
X248677100Y-98173732D01*
X248677100Y-98173732D02*
X248507142Y-97650651D01*
X248677100Y-98173732D02*
X248847060Y-98696813D01*
X248677100Y-98173732D02*
X249124127Y-97607899D01*
X249124127Y-97607899D02*
X249371341Y-98368744D01*
X249247734Y-97988322D02*
X249723262Y-97833813D01*
X249371341Y-98368744D02*
X248677100Y-98173732D01*
D12*
%TO.C,U2*%
X203945200Y-102091200D02*
X204215200Y-102091200D01*
X203945200Y-104851200D02*
X203945200Y-102091200D01*
X203945200Y-104851200D02*
X203945200Y-107611200D01*
X203945200Y-107611200D02*
X204215200Y-107611200D01*
X209465200Y-102091200D02*
X209195200Y-102091200D01*
X209465200Y-104851200D02*
X209465200Y-102091200D01*
X209465200Y-104851200D02*
X209465200Y-107611200D01*
X209465200Y-107611200D02*
X209195200Y-107611200D01*
X204215201Y-108376200D02*
X203885200Y-108616200D01*
X203885200Y-108136200D01*
X204215201Y-108376200D01*
G36*
X204215201Y-108376200D02*
G01*
X203885200Y-108616200D01*
X203885200Y-108136200D01*
X204215201Y-108376200D01*
G37*
D10*
%TO.C,D27*%
X258521085Y-129682203D02*
X258901507Y-129558596D01*
X258901507Y-129558596D02*
X258731549Y-129035515D01*
X258901507Y-129558596D02*
X259071467Y-130081677D01*
X258901507Y-129558596D02*
X259348534Y-128992763D01*
X259348534Y-128992763D02*
X259595748Y-129753608D01*
X259472141Y-129373186D02*
X259947669Y-129218677D01*
X259595748Y-129753608D02*
X258901507Y-129558596D01*
%TO.C,D30*%
X308972425Y-124783023D02*
X309352847Y-124659416D01*
X309352847Y-124659416D02*
X309182889Y-124136335D01*
X309352847Y-124659416D02*
X309522807Y-125182497D01*
X309352847Y-124659416D02*
X309799874Y-124093583D01*
X309799874Y-124093583D02*
X310047088Y-124854428D01*
X309923481Y-124474006D02*
X310399009Y-124319497D01*
X310047088Y-124854428D02*
X309352847Y-124659416D01*
%TO.C,D5*%
X190341162Y-105489380D02*
X190721584Y-105612987D01*
X190721584Y-105612987D02*
X190551626Y-106136068D01*
X190721584Y-105612987D02*
X190891544Y-105089906D01*
X190721584Y-105612987D02*
X191415825Y-105417975D01*
X191168611Y-106178820D02*
X190721584Y-105612987D01*
X191292218Y-105798397D02*
X191767746Y-105952906D01*
X191415825Y-105417975D02*
X191168611Y-106178820D01*
D12*
%TO.C,C13*%
X217851400Y-122574164D02*
X217851400Y-122789836D01*
X218571400Y-122574164D02*
X218571400Y-122789836D01*
D10*
%TO.C,D19*%
X284793754Y-103818981D02*
X285174176Y-103695374D01*
X285174176Y-103695374D02*
X285004218Y-103172293D01*
X285174176Y-103695374D02*
X285344136Y-104218455D01*
X285174176Y-103695374D02*
X285621203Y-103129541D01*
X285621203Y-103129541D02*
X285868417Y-103890386D01*
X285744810Y-103509964D02*
X286220338Y-103355455D01*
X285868417Y-103890386D02*
X285174176Y-103695374D01*
D12*
%TO.C,C8*%
X219017964Y-115583500D02*
X219233636Y-115583500D01*
X219017964Y-116303500D02*
X219233636Y-116303500D01*
D10*
%TO.C,D1*%
X124964218Y-93150945D02*
X125344641Y-93274552D01*
X125344641Y-93274552D02*
X125174682Y-93797633D01*
X125344641Y-93274552D02*
X125514600Y-92751471D01*
X125344641Y-93274552D02*
X126038881Y-93079540D01*
X125791667Y-93840385D02*
X125344641Y-93274552D01*
X125915274Y-93459962D02*
X126390802Y-93614471D01*
X126038881Y-93079540D02*
X125791667Y-93840385D01*
%TO.C,D6*%
X233371075Y-105736594D02*
X233751497Y-105612987D01*
X233751497Y-105612987D02*
X233581539Y-105089906D01*
X233751497Y-105612987D02*
X233921457Y-106136068D01*
X233751497Y-105612987D02*
X234198524Y-105047154D01*
X234198524Y-105047154D02*
X234445738Y-105807999D01*
X234322131Y-105427577D02*
X234797659Y-105273068D01*
X234445738Y-105807999D02*
X233751497Y-105612987D01*
%TO.C,D29*%
X289905949Y-119511405D02*
X290286371Y-119387798D01*
X290286371Y-119387798D02*
X290116413Y-118864717D01*
X290286371Y-119387798D02*
X290456331Y-119910879D01*
X290286371Y-119387798D02*
X290733398Y-118821965D01*
X290733398Y-118821965D02*
X290980612Y-119582810D01*
X290857005Y-119202388D02*
X291332533Y-119047879D01*
X290980612Y-119582810D02*
X290286371Y-119387798D01*
%TO.C,D12*%
X138918499Y-103571767D02*
X139298921Y-103695374D01*
X139298921Y-103695374D02*
X139128963Y-104218455D01*
X139298921Y-103695374D02*
X139468881Y-103172293D01*
X139298921Y-103695374D02*
X139993162Y-103500362D01*
X139745948Y-104261207D02*
X139298921Y-103695374D01*
X139869555Y-103880784D02*
X140345083Y-104035293D01*
X139993162Y-103500362D02*
X139745948Y-104261207D01*
%TD*%
%LPC*%
D13*
%TO.C,S3*%
X158316022Y-93584191D03*
X161264298Y-94542144D03*
D14*
X156423948Y-83874271D03*
X152715744Y-95286949D03*
X168502366Y-87798787D03*
X164794162Y-99211465D03*
%TD*%
D13*
%TO.C,S13*%
X153203827Y-109276631D03*
X156152103Y-110234584D03*
D14*
X151311753Y-99566711D03*
X147603549Y-110979389D03*
X163390171Y-103491227D03*
X159681967Y-114903905D03*
%TD*%
D15*
%TO.C,C1*%
X204797600Y-99263200D03*
X203837600Y-99263200D03*
%TD*%
D16*
%TO.C,D36*%
X256833985Y-153987309D03*
X260049407Y-153244971D03*
%TD*%
D17*
%TO.C,D2*%
X143174743Y-87601212D03*
X146313229Y-88620968D03*
%TD*%
D18*
%TO.C,D28*%
X272079517Y-120951813D03*
X275218003Y-119932057D03*
%TD*%
%TO.C,D9*%
X278825592Y-88404656D03*
X281964078Y-87384900D03*
%TD*%
D13*
%TO.C,S12*%
X136233346Y-108114338D03*
X139181622Y-109072291D03*
D14*
X134341272Y-98404418D03*
X130633068Y-109817096D03*
X146419690Y-102328934D03*
X142711486Y-113741612D03*
%TD*%
D13*
%TO.C,TP6*%
X214670000Y-139377778D03*
%TD*%
%TO.C,S11*%
X117166854Y-113385940D03*
X120115130Y-114343893D03*
D14*
X115274780Y-103676020D03*
X111566576Y-115088698D03*
X127353198Y-107600536D03*
X123644994Y-119013214D03*
%TD*%
D17*
%TO.C,D24*%
X164335218Y-129156874D03*
X167473704Y-130176630D03*
%TD*%
D19*
%TO.C,R5*%
X202055001Y-115595400D03*
X203074999Y-115595400D03*
%TD*%
D13*
%TO.C,S15*%
X182543814Y-125724392D03*
X185492090Y-126682345D03*
D14*
X180651740Y-116014472D03*
X176943536Y-127427150D03*
X192730158Y-119938988D03*
X189021954Y-131351666D03*
%TD*%
D13*
%TO.C,TP11*%
X214670001Y-146608889D03*
%TD*%
D17*
%TO.C,D22*%
X132950353Y-118986076D03*
X136088839Y-120005832D03*
%TD*%
D13*
%TO.C,TP14*%
X214670000Y-153840000D03*
%TD*%
D17*
%TO.C,D14*%
X169447413Y-113464450D03*
X172585899Y-114484206D03*
%TD*%
D20*
%TO.C,Y1*%
X210191600Y-124796401D03*
X214191600Y-124796401D03*
X214191600Y-122396399D03*
X210191600Y-122396399D03*
%TD*%
D13*
%TO.C,S10*%
X299245756Y-98651469D03*
X302194032Y-97693516D03*
D21*
X292007688Y-91908112D03*
X295715892Y-103320790D03*
X304086106Y-87983596D03*
X307794310Y-99396274D03*
%TD*%
D13*
%TO.C,TP10*%
X210752500Y-146608889D03*
%TD*%
%TO.C,TP1*%
X206835000Y-132146667D03*
%TD*%
%TO.C,TP9*%
X206835002Y-146608889D03*
%TD*%
D17*
%TO.C,D25*%
X179260821Y-136596147D03*
X182399307Y-137615903D03*
%TD*%
D13*
%TO.C,TP7*%
X218587501Y-139377778D03*
%TD*%
D22*
%TO.C,C9*%
X216766200Y-111328200D03*
X217726200Y-111328200D03*
%TD*%
D13*
%TO.C,S31*%
X163703643Y-158364205D03*
X166724190Y-159061553D03*
D23*
X160972493Y-148856138D03*
X158273081Y-160548579D03*
X173346993Y-151713017D03*
X170647581Y-163405458D03*
%TD*%
D13*
%TO.C,S26*%
X244093203Y-142374786D03*
X247041479Y-141416833D03*
D21*
X236855135Y-135631429D03*
X240563339Y-147044107D03*
X248933553Y-131706913D03*
X252641757Y-143119591D03*
%TD*%
D24*
%TO.C,R3*%
X212902800Y-108712000D03*
X212902800Y-107692002D03*
%TD*%
D13*
%TO.C,S18*%
X268320978Y-110234584D03*
X271269254Y-109276631D03*
D21*
X261082910Y-103491227D03*
X264791114Y-114903905D03*
X273161328Y-99566711D03*
X276869532Y-110979389D03*
%TD*%
D13*
%TO.C,TP22*%
X231720000Y-135240000D03*
%TD*%
%TO.C,S35*%
X240986931Y-165710411D03*
X243724068Y-164255049D03*
D25*
X232687853Y-160326378D03*
X238321512Y-170921749D03*
X243901288Y-154364089D03*
X249534947Y-164959460D03*
%TD*%
D17*
%TO.C,D4*%
X174559608Y-97772010D03*
X177698094Y-98791766D03*
%TD*%
D26*
%TO.C,D33*%
X199226914Y-170678216D03*
X201640380Y-172928810D03*
%TD*%
D18*
%TO.C,D18*%
X266967306Y-105259389D03*
X270105792Y-104239633D03*
%TD*%
D27*
%TO.C,D35*%
X238789889Y-161045863D03*
X241703617Y-159496607D03*
%TD*%
D13*
%TO.C,S17*%
X253906594Y-119243089D03*
X256854870Y-118285136D03*
D21*
X246668526Y-112499732D03*
X250376730Y-123912410D03*
X258746944Y-108575216D03*
X262455148Y-119987894D03*
%TD*%
D13*
%TO.C,TP4*%
X218587500Y-132146667D03*
%TD*%
%TO.C,S4*%
X172730406Y-102592696D03*
X175678682Y-103550649D03*
D14*
X170838332Y-92882776D03*
X167130128Y-104295454D03*
X182916750Y-96807292D03*
X179208546Y-108219970D03*
%TD*%
D13*
%TO.C,S23*%
X148091632Y-124969055D03*
X151039908Y-125927008D03*
D14*
X146199558Y-115259135D03*
X142491354Y-126671813D03*
X158277976Y-119183651D03*
X154569772Y-130596329D03*
%TD*%
D13*
%TO.C,S34*%
X226674100Y-176388382D03*
X228941297Y-174274187D03*
D28*
X217264317Y-173335764D03*
X225448297Y-182112009D03*
X226552509Y-164674385D03*
X234736489Y-173450630D03*
%TD*%
D13*
%TO.C,S7*%
X248794399Y-103550649D03*
X251742675Y-102592696D03*
D21*
X241556331Y-96807292D03*
X245264535Y-108219970D03*
X253634749Y-92882776D03*
X257342953Y-104295454D03*
%TD*%
D18*
%TO.C,D8*%
X261855111Y-89566949D03*
X264993597Y-88547193D03*
%TD*%
D29*
%TO.C,SW1*%
X228168200Y-123256200D03*
X221868202Y-123256200D03*
X228168200Y-119456200D03*
X221868202Y-119456200D03*
%TD*%
D13*
%TO.C,TP16*%
X222504999Y-153840000D03*
%TD*%
%TO.C,S20*%
X304357951Y-114343893D03*
X307306227Y-113385940D03*
D21*
X297119883Y-107600536D03*
X300828087Y-119013214D03*
X309198301Y-103676020D03*
X312906505Y-115088698D03*
%TD*%
D13*
%TO.C,S25*%
X177431619Y-141416833D03*
X180379895Y-142374786D03*
D14*
X175539545Y-131706913D03*
X171831341Y-143119591D03*
X187617963Y-135631429D03*
X183909759Y-147044107D03*
%TD*%
D17*
%TO.C,D11*%
X118996056Y-108565254D03*
X122134542Y-109585010D03*
%TD*%
D13*
%TO.C,S30*%
X309470146Y-130036333D03*
X312418422Y-129078380D03*
D21*
X302232078Y-123292976D03*
X305940282Y-134705654D03*
X314310496Y-119368460D03*
X318018700Y-130781138D03*
%TD*%
D18*
%TO.C,D16*%
X237627335Y-121707150D03*
X240765821Y-120687394D03*
%TD*%
D13*
%TO.C,S2*%
X141345541Y-92421898D03*
X144293817Y-93379851D03*
D14*
X139453467Y-82711978D03*
X135745263Y-94124656D03*
X151531885Y-86636494D03*
X147823681Y-98049172D03*
%TD*%
D30*
%TO.C,R9*%
X203074999Y-117729000D03*
X202055001Y-117729000D03*
%TD*%
D17*
%TO.C,D15*%
X184373016Y-120903706D03*
X187511502Y-121923462D03*
%TD*%
D31*
%TO.C,D31*%
X165105733Y-153402437D03*
X168321155Y-154144775D03*
%TD*%
D32*
%TO.C,D32*%
X183387543Y-159825238D03*
X186301271Y-161374494D03*
%TD*%
D24*
%TO.C,R6*%
X215900000Y-123194599D03*
X215900000Y-122174601D03*
%TD*%
D33*
%TO.C,U1*%
X208799040Y-112343500D03*
X208799040Y-112743500D03*
X208799040Y-113143500D03*
X208799040Y-113543500D03*
X208799040Y-113943500D03*
X208799040Y-114343500D03*
X208799040Y-114743500D03*
X208799040Y-115143500D03*
X208799040Y-115543500D03*
X208799040Y-115943500D03*
X208799040Y-116343500D03*
X208799040Y-116743500D03*
X208799040Y-117143500D03*
X208799040Y-117543500D03*
D34*
X209636540Y-118381000D03*
X210036540Y-118381000D03*
X210436540Y-118381000D03*
X210836540Y-118381000D03*
X211236540Y-118381000D03*
X211636540Y-118381000D03*
X212036540Y-118381000D03*
X212436540Y-118381000D03*
X212836540Y-118381000D03*
X213236540Y-118381000D03*
X213636540Y-118381000D03*
X214036540Y-118381000D03*
X214436540Y-118381000D03*
X214836540Y-118381000D03*
D33*
X215674040Y-117543500D03*
X215674040Y-117143500D03*
X215674040Y-116743500D03*
X215674040Y-116343500D03*
X215674040Y-115943500D03*
X215674040Y-115543500D03*
X215674040Y-115143500D03*
X215674040Y-114743500D03*
X215674040Y-114343500D03*
X215674040Y-113943500D03*
X215674040Y-113543500D03*
X215674040Y-113143500D03*
X215674040Y-112743500D03*
X215674040Y-112343500D03*
D34*
X214836540Y-111506000D03*
X214436540Y-111506000D03*
X214036540Y-111506000D03*
X213636540Y-111506000D03*
X213236540Y-111506000D03*
X212836540Y-111506000D03*
X212436540Y-111506000D03*
X212036540Y-111506000D03*
X211636540Y-111506000D03*
X211236540Y-111506000D03*
X210836540Y-111506000D03*
X210436540Y-111506000D03*
X210036540Y-111506000D03*
X209636540Y-111506000D03*
D35*
X212236540Y-114943500D03*
%TD*%
D15*
%TO.C,C5*%
X207515400Y-111658400D03*
X206555400Y-111658400D03*
%TD*%
D13*
%TO.C,TP15*%
X218587498Y-153840000D03*
%TD*%
%TO.C,S32*%
X180749029Y-164255049D03*
X183486166Y-165710411D03*
D36*
X180571809Y-154364089D03*
X174938150Y-164959460D03*
X191785244Y-160326378D03*
X186151585Y-170921749D03*
%TD*%
D13*
%TO.C,TP12*%
X218587501Y-146608889D03*
%TD*%
D18*
%TO.C,D20*%
X303004279Y-109368698D03*
X306142765Y-108348942D03*
%TD*%
%TO.C,D17*%
X252552922Y-114267894D03*
X255691408Y-113248138D03*
%TD*%
D37*
%TO.C,U3*%
X215518999Y-93218000D03*
X217418999Y-93218000D03*
X216468999Y-90943000D03*
%TD*%
D13*
%TO.C,S16*%
X238981007Y-126682345D03*
X241929283Y-125724392D03*
D21*
X231742939Y-119938988D03*
X235451143Y-131351666D03*
X243821357Y-116014472D03*
X247529561Y-127427150D03*
%TD*%
D38*
%TO.C,C7*%
X211836000Y-103781800D03*
X211836000Y-102821800D03*
%TD*%
D13*
%TO.C,TP5*%
X210752500Y-139377778D03*
%TD*%
%TO.C,S22*%
X131121151Y-123806762D03*
X134069427Y-124764715D03*
D14*
X129229077Y-114096842D03*
X125520873Y-125509520D03*
X141307495Y-118021358D03*
X137599291Y-129434036D03*
%TD*%
D38*
%TO.C,C12*%
X211480400Y-105839200D03*
X211480400Y-104879200D03*
%TD*%
D39*
%TO.C,D34*%
X223344648Y-172451411D03*
X225758114Y-170200817D03*
%TD*%
D22*
%TO.C,C10*%
X215978800Y-110261400D03*
X216938800Y-110261400D03*
%TD*%
D38*
%TO.C,C3*%
X212318600Y-101775200D03*
X212318600Y-100815200D03*
%TD*%
D17*
%TO.C,D21*%
X113883861Y-124257694D03*
X117022347Y-125277450D03*
%TD*%
%TO.C,D13*%
X155033029Y-104455945D03*
X158171515Y-105475701D03*
%TD*%
D13*
%TO.C,TP2*%
X210752500Y-132146667D03*
%TD*%
D40*
%TO.C,C14*%
X208483200Y-122234599D03*
X208483200Y-123194599D03*
%TD*%
D19*
%TO.C,R7*%
X221157800Y-117856000D03*
X222177798Y-117856000D03*
%TD*%
D15*
%TO.C,C4*%
X205765400Y-115943500D03*
X204805400Y-115943500D03*
%TD*%
D17*
%TO.C,D23*%
X149920834Y-120148369D03*
X153059320Y-121168125D03*
%TD*%
D13*
%TO.C,TP21*%
X227669998Y-135240000D03*
%TD*%
%TO.C,S27*%
X259018806Y-134935513D03*
X261967082Y-133977560D03*
D21*
X251780738Y-128192156D03*
X255488942Y-139604834D03*
X263859156Y-124267640D03*
X267567360Y-135680318D03*
%TD*%
D24*
%TO.C,R4*%
X213996533Y-108704200D03*
X213996533Y-107684202D03*
%TD*%
D17*
%TO.C,D3*%
X160145224Y-88763505D03*
X163283710Y-89783261D03*
%TD*%
D13*
%TO.C,S24*%
X162506016Y-133977560D03*
X165454292Y-134935513D03*
D14*
X160613942Y-124267640D03*
X156905738Y-135680318D03*
X172692360Y-128192156D03*
X168984156Y-139604834D03*
%TD*%
D13*
%TO.C,S6*%
X233868796Y-110989904D03*
X236817072Y-110031951D03*
D21*
X226630728Y-104246547D03*
X230338932Y-115659225D03*
X238709146Y-100322031D03*
X242417350Y-111734709D03*
%TD*%
D13*
%TO.C,TP8*%
X222504999Y-139377778D03*
%TD*%
D18*
%TO.C,D26*%
X242739531Y-137399591D03*
X245878017Y-136379835D03*
%TD*%
D13*
%TO.C,S8*%
X263208783Y-94542144D03*
X266157059Y-93584191D03*
D21*
X255970715Y-87798787D03*
X259678919Y-99211465D03*
X268049133Y-83874271D03*
X271757337Y-95286949D03*
%TD*%
D29*
%TO.C,SW2*%
X202616598Y-123256200D03*
X196316600Y-123256200D03*
X202616598Y-119456200D03*
X196316600Y-119456200D03*
%TD*%
D38*
%TO.C,C11*%
X215080267Y-108666400D03*
X215080267Y-107706400D03*
%TD*%
D18*
%TO.C,D10*%
X297892084Y-93676274D03*
X301030570Y-92656518D03*
%TD*%
D13*
%TO.C,S9*%
X280179264Y-93379851D03*
X283127540Y-92421898D03*
D21*
X272941196Y-86636494D03*
X276649400Y-98049172D03*
X285019614Y-82711978D03*
X288727818Y-94124656D03*
%TD*%
D13*
%TO.C,TP13*%
X210752500Y-153840000D03*
%TD*%
D38*
%TO.C,C2*%
X216154000Y-108658600D03*
X216154000Y-107698600D03*
%TD*%
%TO.C,C15*%
X215900000Y-125168600D03*
X215900000Y-124208600D03*
%TD*%
D13*
%TO.C,S28*%
X273433189Y-125927008D03*
X276381465Y-124969055D03*
D21*
X266195121Y-119183651D03*
X269903325Y-130596329D03*
X278273539Y-115259135D03*
X281981743Y-126671813D03*
%TD*%
D13*
%TO.C,S14*%
X167618211Y-118285136D03*
X170566487Y-119243089D03*
D14*
X165726137Y-108575216D03*
X162017933Y-119987894D03*
X177804555Y-112499732D03*
X174096351Y-123912410D03*
%TD*%
D13*
%TO.C,TP3*%
X214670000Y-132146667D03*
%TD*%
D40*
%TO.C,C6*%
X217060700Y-122202000D03*
X217060700Y-123162000D03*
%TD*%
D30*
%TO.C,R8*%
X203074999Y-116662200D03*
X202055001Y-116662200D03*
%TD*%
D13*
%TO.C,S5*%
X187656009Y-110031951D03*
X190604285Y-110989904D03*
D14*
X185763935Y-100322031D03*
X182055731Y-111734709D03*
X197842353Y-104246547D03*
X194134149Y-115659225D03*
%TD*%
D18*
%TO.C,D7*%
X247440727Y-98575454D03*
X250579213Y-97555698D03*
%TD*%
D13*
%TO.C,S33*%
X195531784Y-174274187D03*
X197798981Y-176388382D03*
D41*
X197920572Y-164674385D03*
X189736592Y-173450630D03*
X207208764Y-173335764D03*
X199024784Y-182112009D03*
%TD*%
D42*
%TO.C,U2*%
X204800200Y-108438700D03*
X206070200Y-108438700D03*
X207340200Y-108438700D03*
X208610200Y-108438700D03*
X208610200Y-101263700D03*
X207340200Y-101263700D03*
X206070200Y-101263700D03*
X204800200Y-101263700D03*
%TD*%
D18*
%TO.C,D27*%
X257665134Y-129960318D03*
X260803620Y-128940562D03*
%TD*%
D13*
%TO.C,S29*%
X290403670Y-124764715D03*
X293351946Y-123806762D03*
D21*
X283165602Y-118021358D03*
X286873806Y-129434036D03*
X295244020Y-114096842D03*
X298952224Y-125509520D03*
%TD*%
D13*
%TO.C,S21*%
X112054659Y-129078380D03*
X115002935Y-130036333D03*
D14*
X110162585Y-119368460D03*
X106454381Y-130781138D03*
X122241003Y-123292976D03*
X118532799Y-134705654D03*
%TD*%
D18*
%TO.C,D30*%
X308116474Y-125061138D03*
X311254960Y-124041382D03*
%TD*%
D17*
%TO.C,D5*%
X189485211Y-105211265D03*
X192623697Y-106231021D03*
%TD*%
D13*
%TO.C,S1*%
X122279065Y-97693516D03*
X125227341Y-98651469D03*
D14*
X120386991Y-87983596D03*
X116678787Y-99396274D03*
X132465409Y-91908112D03*
X128757205Y-103320790D03*
%TD*%
D40*
%TO.C,C13*%
X218211400Y-122202000D03*
X218211400Y-123162000D03*
%TD*%
D18*
%TO.C,D19*%
X283937803Y-104097096D03*
X287076289Y-103077340D03*
%TD*%
D13*
%TO.C,S36*%
X257748891Y-159061553D03*
X260769438Y-158364205D03*
D43*
X251126088Y-151713017D03*
X253825500Y-163405458D03*
X263500588Y-148856138D03*
X266200000Y-160548579D03*
%TD*%
D22*
%TO.C,C8*%
X218645800Y-115943500D03*
X219605800Y-115943500D03*
%TD*%
D17*
%TO.C,D1*%
X124108267Y-92872830D03*
X127246753Y-93892586D03*
%TD*%
D18*
%TO.C,D6*%
X232515124Y-106014709D03*
X235653610Y-104994953D03*
%TD*%
%TO.C,D29*%
X289049998Y-119789520D03*
X292188484Y-118769764D03*
%TD*%
D17*
%TO.C,D12*%
X138062548Y-103293652D03*
X141201034Y-104313408D03*
%TD*%
D13*
%TO.C,S19*%
X285291475Y-109072291D03*
X288239751Y-108114338D03*
D21*
X278053407Y-102328934D03*
X281761611Y-113741612D03*
X290131825Y-98404418D03*
X293840029Y-109817096D03*
%TD*%
%LPD*%
M02*
