M48
; DRILL file {KiCad 9.0.4} date 2025-09-19T00:48:39-0400
; FORMAT={-:-/ absolute / inch / decimal}
; #@! TF.CreationDate,2025-09-19T00:48:39-04:00
; #@! TF.GenerationSoftware,Kicad,Pcbnew,9.0.4
; #@! TF.FileFunction,Plated,1,2,PTH
FMAT,2
INCH
; #@! TA.AperFunction,Plated,PTH,ViaDrill
T1C0.0118
; #@! TA.AperFunction,Plated,PTH,ComponentDrill
T2C0.0394
%
G90
G05
T1
X7.0996Y-5.3146
X7.2976Y-4.7059
X7.5991Y-3.9411
X7.8236Y-4.965
X7.8563Y-4.965
X7.889Y-4.965
X7.914Y-4.3754
X7.9539Y-4.4972
X7.973Y-4.781
X7.9772Y-3.9256
X7.9839Y-4.4844
X7.9976Y-4.4113
X8.0153Y-4.4715
X8.032Y-4.565
X8.0447Y-4.4586
X8.0528Y-4.3984
X8.0752Y-4.4456
X8.1482Y-4.4368
X8.1843Y-4.4308
X8.24Y-4.308
X8.2573Y-4.6237
X8.276Y-4.862
X8.3164Y-4.486
X8.3164Y-4.5253
X8.3164Y-4.5647
X8.3232Y-3.9429
X8.336Y-3.425
X8.339Y-3.4665
X8.34Y-4.4264
X8.3425Y-3.9224
X8.3558Y-4.486
X8.3558Y-4.5253
X8.3558Y-4.5647
X8.3951Y-4.486
X8.3951Y-4.5253
X8.3951Y-4.5647
X8.4041Y-4.4264
X8.427Y-4.869
X8.451Y-4.623
X8.474Y-3.577
X8.489Y-4.202
X8.52Y-3.5
X8.5409Y-4.6888
X8.5685Y-4.6711
X8.5764Y-4.9079
X8.587Y-4.342
X8.602Y-4.667
X8.634Y-4.671
X8.665Y-4.6888
X8.675Y-4.566
X8.6834Y-4.5976
X8.7335Y-5.039
X8.7677Y-5.0343
X8.7965Y-4.965
X8.8267Y-4.475
X8.8299Y-4.965
X8.8375Y-4.4459
X8.8456Y-4.4178
X8.8564Y-4.3874
X8.86Y-4.78
X8.8622Y-4.965
X8.8947Y-4.965
X8.927Y-4.965
X8.937Y-5.2394
X8.9411Y-3.9411
X8.9736Y-5.2031
X9.2693Y-4.4551
X9.3358Y-4.5398
X9.3362Y-4.722
X9.5035Y-5.3583
X9.7484Y-4.4953
X9.7969Y-4.4012
X10.5886Y-4.4334
X10.5898Y-4.5996
X11.2736Y-4.4252
X11.2819Y-4.5417
T2
X4.4116Y-5.0818
X4.5277Y-5.1195
X4.6129Y-4.464
X4.7289Y-4.5017
X4.8141Y-3.8462
X4.9302Y-3.8839
X5.1623Y-4.8743
X5.2783Y-4.912
X5.3635Y-4.2565
X5.4796Y-4.2942
X5.5648Y-3.6387
X5.6809Y-3.6764
X5.8304Y-4.92
X5.9465Y-4.9578
X6.0316Y-4.3022
X6.1477Y-4.3399
X6.2329Y-3.6844
X6.349Y-3.7221
X6.3979Y-5.2747
X6.445Y-6.2348
X6.5139Y-5.3124
X6.5639Y-6.2623
X6.5991Y-4.6569
X6.7152Y-4.6946
X6.8004Y-4.0391
X6.9165Y-4.0768
X6.9855Y-5.5676
X7.1016Y-5.6053
X7.1161Y-6.4667
X7.1868Y-4.9498
X7.2239Y-6.524
X7.3028Y-4.9875
X7.388Y-4.332
X7.5041Y-4.3697
X7.6981Y-6.8612
X7.7874Y-6.9444
X8.9242Y-6.9444
X9.0134Y-6.8612
X9.2074Y-4.3697
X9.3235Y-4.332
X9.4087Y-4.9875
X9.4877Y-6.524
X9.5248Y-4.9498
X9.5954Y-6.4667
X9.61Y-5.6053
X9.726Y-5.5676
X9.7951Y-4.0768
X9.9111Y-4.0391
X9.9963Y-4.6946
X10.1124Y-4.6569
X10.1476Y-6.2623
X10.1976Y-5.3124
X10.2665Y-6.2348
X10.3137Y-5.2747
X10.3626Y-3.7221
X10.4786Y-3.6844
X10.5638Y-4.3399
X10.6799Y-4.3022
X10.7651Y-4.9578
X10.8812Y-4.92
X11.0307Y-3.6764
X11.1468Y-3.6387
X11.2319Y-4.2942
X11.348Y-4.2565
X11.4332Y-4.912
X11.5493Y-4.8743
X11.7813Y-3.8839
X11.8974Y-3.8462
X11.9826Y-4.5017
X12.0987Y-4.464
X12.1839Y-5.1195
X12.2999Y-5.0818
M30
