%TF.GenerationSoftware,KiCad,Pcbnew,9.0.4*%
%TF.CreationDate,2025-09-15T17:34:50-04:00*%
%TF.ProjectId,usb-hub,7573622d-6875-4622-9e6b-696361645f70,rev?*%
%TF.SameCoordinates,Original*%
%TF.FileFunction,Legend,Top*%
%TF.FilePolarity,Positive*%
%FSLAX46Y46*%
G04 Gerber Fmt 4.6, Leading zero omitted, Abs format (unit mm)*
G04 Created by KiCad (PCBNEW 9.0.4) date 2025-09-15 17:34:50*
%MOMM*%
%LPD*%
G01*
G04 APERTURE LIST*
G04 Aperture macros list*
%AMRoundRect*
0 Rectangle with rounded corners*
0 $1 Rounding radius*
0 $2 $3 $4 $5 $6 $7 $8 $9 X,Y pos of 4 corners*
0 Add a 4 corners polygon primitive as box body*
4,1,4,$2,$3,$4,$5,$6,$7,$8,$9,$2,$3,0*
0 Add four circle primitives for the rounded corners*
1,1,$1+$1,$2,$3*
1,1,$1+$1,$4,$5*
1,1,$1+$1,$6,$7*
1,1,$1+$1,$8,$9*
0 Add four rect primitives between the rounded corners*
20,1,$1+$1,$2,$3,$4,$5,0*
20,1,$1+$1,$4,$5,$6,$7,0*
20,1,$1+$1,$6,$7,$8,$9,0*
20,1,$1+$1,$8,$9,$2,$3,0*%
G04 Aperture macros list end*
%ADD10C,0.050000*%
%ADD11C,0.150000*%
%ADD12C,0.120000*%
%ADD13C,0.152400*%
%ADD14C,0.000000*%
%ADD15C,0.200000*%
%ADD16C,0.100000*%
%ADD17RoundRect,0.135000X-0.135000X-0.185000X0.135000X-0.185000X0.135000X0.185000X-0.135000X0.185000X0*%
%ADD18RoundRect,0.135000X0.135000X0.185000X-0.135000X0.185000X-0.135000X-0.185000X0.135000X-0.185000X0*%
%ADD19C,1.000000*%
%ADD20RoundRect,0.140000X0.170000X-0.140000X0.170000X0.140000X-0.170000X0.140000X-0.170000X-0.140000X0*%
%ADD21RoundRect,0.140000X-0.140000X-0.170000X0.140000X-0.170000X0.140000X0.170000X-0.140000X0.170000X0*%
%ADD22RoundRect,0.140000X0.140000X0.170000X-0.140000X0.170000X-0.140000X-0.170000X0.140000X-0.170000X0*%
%ADD23R,0.254000X0.812800*%
%ADD24R,0.812800X0.254000*%
%ADD25R,3.606800X3.606800*%
%ADD26R,0.800000X0.300000*%
%ADD27R,0.800000X0.400000*%
%ADD28RoundRect,0.250000X0.350000X-0.650000X0.350000X0.650000X-0.350000X0.650000X-0.350000X-0.650000X0*%
%ADD29RoundRect,0.140000X-0.170000X0.140000X-0.170000X-0.140000X0.170000X-0.140000X0.170000X0.140000X0*%
G04 APERTURE END LIST*
D10*
X140010000Y-32002500D02*
X140010000Y-52010000D01*
D11*
X153624295Y-49810839D02*
X152824295Y-49810839D01*
X152824295Y-49810839D02*
X152824295Y-49620363D01*
X152824295Y-49620363D02*
X152862390Y-49506077D01*
X152862390Y-49506077D02*
X152938580Y-49429887D01*
X152938580Y-49429887D02*
X153014771Y-49391792D01*
X153014771Y-49391792D02*
X153167152Y-49353696D01*
X153167152Y-49353696D02*
X153281438Y-49353696D01*
X153281438Y-49353696D02*
X153433819Y-49391792D01*
X153433819Y-49391792D02*
X153510009Y-49429887D01*
X153510009Y-49429887D02*
X153586200Y-49506077D01*
X153586200Y-49506077D02*
X153624295Y-49620363D01*
X153624295Y-49620363D02*
X153624295Y-49810839D01*
X153319533Y-49010839D02*
X153319533Y-48401316D01*
X153624295Y-48706077D02*
X153014771Y-48706077D01*
X152124295Y-49810839D02*
X151324295Y-49810839D01*
X151324295Y-49810839D02*
X151324295Y-49620363D01*
X151324295Y-49620363D02*
X151362390Y-49506077D01*
X151362390Y-49506077D02*
X151438580Y-49429887D01*
X151438580Y-49429887D02*
X151514771Y-49391792D01*
X151514771Y-49391792D02*
X151667152Y-49353696D01*
X151667152Y-49353696D02*
X151781438Y-49353696D01*
X151781438Y-49353696D02*
X151933819Y-49391792D01*
X151933819Y-49391792D02*
X152010009Y-49429887D01*
X152010009Y-49429887D02*
X152086200Y-49506077D01*
X152086200Y-49506077D02*
X152124295Y-49620363D01*
X152124295Y-49620363D02*
X152124295Y-49810839D01*
X151819533Y-49010839D02*
X151819533Y-48401316D01*
X149824295Y-49429887D02*
X149824295Y-49810839D01*
X149824295Y-49810839D02*
X150205247Y-49848935D01*
X150205247Y-49848935D02*
X150167152Y-49810839D01*
X150167152Y-49810839D02*
X150129057Y-49734649D01*
X150129057Y-49734649D02*
X150129057Y-49544173D01*
X150129057Y-49544173D02*
X150167152Y-49467982D01*
X150167152Y-49467982D02*
X150205247Y-49429887D01*
X150205247Y-49429887D02*
X150281438Y-49391792D01*
X150281438Y-49391792D02*
X150471914Y-49391792D01*
X150471914Y-49391792D02*
X150548104Y-49429887D01*
X150548104Y-49429887D02*
X150586200Y-49467982D01*
X150586200Y-49467982D02*
X150624295Y-49544173D01*
X150624295Y-49544173D02*
X150624295Y-49734649D01*
X150624295Y-49734649D02*
X150586200Y-49810839D01*
X150586200Y-49810839D02*
X150548104Y-49848935D01*
X149824295Y-49163220D02*
X150624295Y-48896553D01*
X150624295Y-48896553D02*
X149824295Y-48629887D01*
X154362390Y-49391792D02*
X154324295Y-49467982D01*
X154324295Y-49467982D02*
X154324295Y-49582268D01*
X154324295Y-49582268D02*
X154362390Y-49696554D01*
X154362390Y-49696554D02*
X154438580Y-49772744D01*
X154438580Y-49772744D02*
X154514771Y-49810839D01*
X154514771Y-49810839D02*
X154667152Y-49848935D01*
X154667152Y-49848935D02*
X154781438Y-49848935D01*
X154781438Y-49848935D02*
X154933819Y-49810839D01*
X154933819Y-49810839D02*
X155010009Y-49772744D01*
X155010009Y-49772744D02*
X155086200Y-49696554D01*
X155086200Y-49696554D02*
X155124295Y-49582268D01*
X155124295Y-49582268D02*
X155124295Y-49506077D01*
X155124295Y-49506077D02*
X155086200Y-49391792D01*
X155086200Y-49391792D02*
X155048104Y-49353696D01*
X155048104Y-49353696D02*
X154781438Y-49353696D01*
X154781438Y-49353696D02*
X154781438Y-49506077D01*
D10*
%TO.C,J1*%
X146020000Y-31997500D02*
X146020000Y-38147500D01*
X146970000Y-32347500D02*
X146970000Y-37797500D01*
D12*
%TO.C,R5*%
X140911360Y-43220000D02*
X141218642Y-43220000D01*
X140911360Y-43980000D02*
X141218642Y-43980000D01*
%TO.C,R4*%
X141218642Y-44245000D02*
X140911360Y-44245000D01*
X141218642Y-45005000D02*
X140911360Y-45005000D01*
%TO.C,R2*%
X149171359Y-40045000D02*
X149478641Y-40045000D01*
X149171359Y-40805000D02*
X149478641Y-40805000D01*
%TO.C,C4*%
X149915000Y-42257836D02*
X149915000Y-42042164D01*
X150635000Y-42257836D02*
X150635000Y-42042164D01*
%TO.C,C5*%
X142052164Y-45380000D02*
X142267836Y-45380000D01*
X142052164Y-46100000D02*
X142267836Y-46100000D01*
%TO.C,R1*%
X150196359Y-46545000D02*
X150503641Y-46545000D01*
X150196359Y-47305000D02*
X150503641Y-47305000D01*
%TO.C,C1*%
X146232836Y-40015000D02*
X146017164Y-40015000D01*
X146232836Y-40735000D02*
X146017164Y-40735000D01*
%TO.C,C7*%
X140957836Y-41140000D02*
X140742164Y-41140000D01*
X140957836Y-41860000D02*
X140742164Y-41860000D01*
%TO.C,R3*%
X142568642Y-42211667D02*
X142261360Y-42211667D01*
X142568642Y-42971667D02*
X142261360Y-42971667D01*
D13*
%TO.C,U1*%
X143845300Y-41470300D02*
X143845300Y-42190261D01*
X143845300Y-46109739D02*
X143845300Y-46829700D01*
X143845300Y-46829700D02*
X144565261Y-46829700D01*
X144565261Y-41470300D02*
X143845300Y-41470300D01*
X148484739Y-46829700D02*
X149204700Y-46829700D01*
X149204700Y-41470300D02*
X148484739Y-41470300D01*
X149204700Y-42190261D02*
X149204700Y-41470300D01*
X149204700Y-46829700D02*
X149204700Y-46109739D01*
D14*
G36*
X145715499Y-41038500D02*
G01*
X145334499Y-41038500D01*
X145334499Y-40784500D01*
X145715499Y-40784500D01*
X145715499Y-41038500D01*
G37*
G36*
X149890499Y-44840499D02*
G01*
X149636500Y-44840499D01*
X149636500Y-44459499D01*
X149890500Y-44459499D01*
X149890499Y-44840499D01*
G37*
D12*
%TO.C,C9*%
X154757836Y-47940000D02*
X154542164Y-47940000D01*
X154757836Y-48660000D02*
X154542164Y-48660000D01*
%TO.C,R6*%
X142636360Y-41120000D02*
X142943642Y-41120000D01*
X142636360Y-41880000D02*
X142943642Y-41880000D01*
D15*
%TO.C,J2*%
X140175000Y-32490000D02*
X140175000Y-32975000D01*
X140175000Y-32490000D02*
X140175000Y-39860000D01*
X140175000Y-39860000D02*
X140175000Y-39375000D01*
X140575000Y-32490000D02*
X140175000Y-32490000D01*
X140575000Y-39860000D02*
X140175000Y-39860000D01*
X143775000Y-32490000D02*
X141975000Y-32490001D01*
X143775000Y-33175000D02*
X143775000Y-32490000D01*
X143775000Y-39175000D02*
X143775000Y-39860000D01*
X143775000Y-39860000D02*
X141975000Y-39859999D01*
D16*
X144475000Y-33925000D02*
X144475000Y-33925000D01*
X144575000Y-33925000D02*
X144575000Y-33925000D01*
X144475000Y-33925000D02*
G75*
G02*
X144575000Y-33925000I50000J0D01*
G01*
X144575000Y-33925000D02*
G75*
G02*
X144475000Y-33925000I-50000J0D01*
G01*
D12*
%TO.C,Y1*%
X151892500Y-45442500D02*
X151892500Y-43762500D01*
X153412500Y-41842500D02*
X154092500Y-41842500D01*
X154092500Y-47362500D02*
X153412500Y-47362500D01*
X154092500Y-47762500D02*
X154092500Y-47362500D01*
X155612500Y-43762500D02*
X155612500Y-45442500D01*
X155612500Y-45442500D02*
X156112500Y-45442500D01*
%TO.C,C2*%
X146820000Y-48342164D02*
X146820000Y-48557836D01*
X147540000Y-48342164D02*
X147540000Y-48557836D01*
%TO.C,C8*%
X148322164Y-50460000D02*
X148537836Y-50460000D01*
X148322164Y-51180000D02*
X148537836Y-51180000D01*
%TO.C,C6*%
X142052164Y-46500000D02*
X142267836Y-46500000D01*
X142052164Y-47220000D02*
X142267836Y-47220000D01*
%TO.C,R7*%
X152106360Y-40570000D02*
X152413642Y-40570000D01*
X152106360Y-41330000D02*
X152413642Y-41330000D01*
%TO.C,C10*%
X154292837Y-40540000D02*
X154077165Y-40540000D01*
X154292837Y-41260000D02*
X154077165Y-41260000D01*
%TO.C,C3*%
X150572164Y-45010000D02*
X150787836Y-45010000D01*
X150572164Y-45730000D02*
X150787836Y-45730000D01*
%TD*%
%LPC*%
D17*
%TO.C,R5*%
X140555002Y-43600000D03*
X141575000Y-43600000D03*
%TD*%
D18*
%TO.C,R4*%
X141575000Y-44625000D03*
X140555002Y-44625000D03*
%TD*%
D19*
%TO.C,J3*%
X150300000Y-50750000D03*
X151800000Y-50750000D03*
X153300000Y-50750000D03*
X154800000Y-50750000D03*
%TD*%
D17*
%TO.C,R2*%
X148815001Y-40425000D03*
X149834999Y-40425000D03*
%TD*%
D20*
%TO.C,C4*%
X150275000Y-42630000D03*
X150275000Y-41670000D03*
%TD*%
D21*
%TO.C,C5*%
X141680000Y-45740000D03*
X142640000Y-45740000D03*
%TD*%
D17*
%TO.C,R1*%
X149840001Y-46925000D03*
X150859999Y-46925000D03*
%TD*%
D22*
%TO.C,C1*%
X146605000Y-40375000D03*
X145645000Y-40375000D03*
%TD*%
%TO.C,C7*%
X141330000Y-41500000D03*
X140370000Y-41500000D03*
%TD*%
D18*
%TO.C,R3*%
X142925000Y-42591667D03*
X141905002Y-42591667D03*
%TD*%
D23*
%TO.C,U1*%
X145025000Y-46601100D03*
X145524999Y-46601100D03*
X146025001Y-46601100D03*
X146525000Y-46601099D03*
X147024999Y-46601100D03*
X147525001Y-46601100D03*
X148025000Y-46601100D03*
D24*
X148976100Y-45650000D03*
X148976100Y-45150001D03*
X148976100Y-44649999D03*
X148976099Y-44150000D03*
X148976100Y-43650001D03*
X148976100Y-43149999D03*
X148976100Y-42650000D03*
D23*
X148025000Y-41698900D03*
X147525001Y-41698900D03*
X147024999Y-41698900D03*
X146525000Y-41698901D03*
X146025001Y-41698900D03*
X145524999Y-41698900D03*
X145025000Y-41698900D03*
D24*
X144073900Y-42650000D03*
X144073900Y-43149999D03*
X144073900Y-43650001D03*
X144073901Y-44150000D03*
X144073900Y-44649999D03*
X144073900Y-45150001D03*
X144073900Y-45650000D03*
D25*
X146525000Y-44150000D03*
%TD*%
D22*
%TO.C,C9*%
X155130000Y-48300000D03*
X154170000Y-48300000D03*
%TD*%
D17*
%TO.C,R6*%
X142280002Y-41500000D03*
X143300000Y-41500000D03*
%TD*%
D26*
%TO.C,J2*%
X143675000Y-33925000D03*
X143675000Y-34425001D03*
X143675000Y-34925000D03*
X143675000Y-35424999D03*
X143675000Y-35925000D03*
X143675000Y-36425000D03*
X143675000Y-36925001D03*
X143675000Y-37425000D03*
X143675000Y-37924999D03*
X143675000Y-38425000D03*
D27*
X141175001Y-32700000D03*
X141175001Y-39650000D03*
%TD*%
D28*
%TO.C,Y1*%
X154952501Y-46602500D03*
X154952501Y-42602500D03*
X152552499Y-42602500D03*
X152552499Y-46602500D03*
%TD*%
D29*
%TO.C,C2*%
X147180000Y-47970000D03*
X147180000Y-48930000D03*
%TD*%
D21*
%TO.C,C8*%
X147950000Y-50820000D03*
X148910000Y-50820000D03*
%TD*%
%TO.C,C6*%
X141680000Y-46860000D03*
X142640000Y-46860000D03*
%TD*%
D17*
%TO.C,R7*%
X151750002Y-40950000D03*
X152770000Y-40950000D03*
%TD*%
D22*
%TO.C,C10*%
X154665001Y-40900000D03*
X153705001Y-40900000D03*
%TD*%
D21*
%TO.C,C3*%
X150200000Y-45370000D03*
X151160000Y-45370000D03*
%TD*%
%LPD*%
M02*
