%TF.GenerationSoftware,KiCad,Pcbnew,9.0.4*%
%TF.CreationDate,2025-09-14T17:04:40-04:00*%
%TF.ProjectId,usb-hub,7573622d-6875-4622-9e6b-696361645f70,rev?*%
%TF.SameCoordinates,Original*%
%TF.FileFunction,Soldermask,Top*%
%TF.FilePolarity,Negative*%
%FSLAX46Y46*%
G04 Gerber Fmt 4.6, Leading zero omitted, Abs format (unit mm)*
G04 Created by KiCad (PCBNEW 9.0.4) date 2025-09-14 17:04:40*
%MOMM*%
%LPD*%
G01*
G04 APERTURE LIST*
G04 Aperture macros list*
%AMRoundRect*
0 Rectangle with rounded corners*
0 $1 Rounding radius*
0 $2 $3 $4 $5 $6 $7 $8 $9 X,Y pos of 4 corners*
0 Add a 4 corners polygon primitive as box body*
4,1,4,$2,$3,$4,$5,$6,$7,$8,$9,$2,$3,0*
0 Add four circle primitives for the rounded corners*
1,1,$1+$1,$2,$3*
1,1,$1+$1,$4,$5*
1,1,$1+$1,$6,$7*
1,1,$1+$1,$8,$9*
0 Add four rect primitives between the rounded corners*
20,1,$1+$1,$2,$3,$4,$5,0*
20,1,$1+$1,$4,$5,$6,$7,0*
20,1,$1+$1,$6,$7,$8,$9,0*
20,1,$1+$1,$8,$9,$2,$3,0*%
G04 Aperture macros list end*
%ADD10RoundRect,0.135000X-0.135000X-0.185000X0.135000X-0.185000X0.135000X0.185000X-0.135000X0.185000X0*%
%ADD11RoundRect,0.135000X0.135000X0.185000X-0.135000X0.185000X-0.135000X-0.185000X0.135000X-0.185000X0*%
%ADD12C,1.000000*%
%ADD13RoundRect,0.075000X0.075000X-0.125000X0.075000X0.125000X-0.075000X0.125000X-0.075000X-0.125000X0*%
%ADD14RoundRect,0.075000X-0.125000X-0.075000X0.125000X-0.075000X0.125000X0.075000X-0.125000X0.075000X0*%
%ADD15RoundRect,0.075000X0.125000X0.075000X-0.125000X0.075000X-0.125000X-0.075000X0.125000X-0.075000X0*%
%ADD16R,0.254000X0.812800*%
%ADD17R,0.812800X0.254000*%
%ADD18R,3.606800X3.606800*%
%ADD19R,0.800000X0.300000*%
%ADD20R,0.800000X0.400000*%
%ADD21RoundRect,0.250000X0.350000X-0.650000X0.350000X0.650000X-0.350000X0.650000X-0.350000X-0.650000X0*%
%ADD22RoundRect,0.075000X-0.075000X0.125000X-0.075000X-0.125000X0.075000X-0.125000X0.075000X0.125000X0*%
%ADD23RoundRect,0.135000X0.185000X-0.135000X0.185000X0.135000X-0.185000X0.135000X-0.185000X-0.135000X0*%
G04 APERTURE END LIST*
D10*
%TO.C,R5*%
X140555002Y-43600000D03*
X141575000Y-43600000D03*
%TD*%
D11*
%TO.C,R4*%
X141575000Y-44625000D03*
X140555002Y-44625000D03*
%TD*%
D12*
%TO.C,J3*%
X150300000Y-50750000D03*
X151800000Y-50750000D03*
X153300000Y-50750000D03*
X154800000Y-50750000D03*
%TD*%
D10*
%TO.C,R2*%
X147390001Y-40475000D03*
X148409999Y-40475000D03*
%TD*%
D13*
%TO.C,C4*%
X149625000Y-41650000D03*
X149625000Y-41150000D03*
%TD*%
D14*
%TO.C,C5*%
X142425000Y-45175000D03*
X142925000Y-45175000D03*
%TD*%
D10*
%TO.C,R1*%
X149840001Y-47050000D03*
X150859999Y-47050000D03*
%TD*%
D15*
%TO.C,C1*%
X145975000Y-40425000D03*
X145475000Y-40425000D03*
%TD*%
D13*
%TO.C,C8*%
X145450000Y-34575000D03*
X145450000Y-34075000D03*
%TD*%
D11*
%TO.C,R3*%
X142925000Y-42591667D03*
X141905002Y-42591667D03*
%TD*%
D16*
%TO.C,U1*%
X145025000Y-46601100D03*
X145524999Y-46601100D03*
X146025001Y-46601100D03*
X146525000Y-46601099D03*
X147024999Y-46601100D03*
X147525001Y-46601100D03*
X148025000Y-46601100D03*
D17*
X148976100Y-45650000D03*
X148976100Y-45150001D03*
X148976100Y-44649999D03*
X148976099Y-44150000D03*
X148976100Y-43650001D03*
X148976100Y-43149999D03*
X148976100Y-42650000D03*
D16*
X148025000Y-41698900D03*
X147525001Y-41698900D03*
X147024999Y-41698900D03*
X146525000Y-41698901D03*
X146025001Y-41698900D03*
X145524999Y-41698900D03*
X145025000Y-41698900D03*
D17*
X144073900Y-42650000D03*
X144073900Y-43149999D03*
X144073900Y-43650001D03*
X144073901Y-44150000D03*
X144073900Y-44649999D03*
X144073900Y-45150001D03*
X144073900Y-45650000D03*
D18*
X146525000Y-44150000D03*
%TD*%
D15*
%TO.C,C10*%
X154499999Y-47300000D03*
X153999999Y-47300000D03*
%TD*%
D10*
%TO.C,R6*%
X141905002Y-41400000D03*
X142925000Y-41400000D03*
%TD*%
D19*
%TO.C,J2*%
X143675000Y-33925000D03*
X143675000Y-34425001D03*
X143675000Y-34925000D03*
X143675000Y-35424999D03*
X143675000Y-35925000D03*
X143675000Y-36425000D03*
X143675000Y-36925001D03*
X143675000Y-37425000D03*
X143675000Y-37924999D03*
X143675000Y-38425000D03*
D20*
X141175001Y-32700000D03*
X141175001Y-39650000D03*
%TD*%
D21*
%TO.C,Y1*%
X154652501Y-45802500D03*
X154652501Y-41802500D03*
X152252499Y-41802500D03*
X152252499Y-45802500D03*
%TD*%
D22*
%TO.C,C2*%
X147025000Y-47650000D03*
X147025000Y-48150000D03*
%TD*%
D13*
%TO.C,C9*%
X149150000Y-51149999D03*
X149150000Y-50649999D03*
%TD*%
D14*
%TO.C,C6*%
X141775000Y-46950000D03*
X142275000Y-46950000D03*
%TD*%
D23*
%TO.C,R7*%
X150775000Y-43650000D03*
X150775000Y-42630002D03*
%TD*%
D14*
%TO.C,C11*%
X150300000Y-41800000D03*
X150800000Y-41800000D03*
%TD*%
%TO.C,C3*%
X150150000Y-45150000D03*
X150650000Y-45150000D03*
%TD*%
M02*
