M48
; DRILL file {KiCad 9.0.4} date 2025-09-15T17:34:50-0400
; FORMAT={-:-/ absolute / inch / decimal}
; #@! TF.CreationDate,2025-09-15T17:34:50-04:00
; #@! TF.GenerationSoftware,Kicad,Pcbnew,9.0.4
; #@! TF.FileFunction,Plated,1,2,PTH
FMAT,2
INCH
; #@! TA.AperFunction,Plated,PTH,ViaDrill
T1C0.0118
%
G90
G05
T1
X5.3465Y-1.2913
X5.3868Y-1.8445
X5.3937Y-1.377
X5.4163Y-1.5344
X5.4183Y-1.8051
X5.4213Y-1.3583
X5.44Y-1.5581
X5.4508Y-1.4459
X5.4764Y-1.6654
X5.5039Y-1.5807
X5.5061Y-1.5142
X5.5158Y-1.3494
X5.5308Y-1.5337
X5.5567Y-1.5157
X5.5591Y-1.6772
X5.5679Y-1.5886
X5.5802Y-1.3789
X5.5942Y-1.4968
X5.5945Y-1.5315
X5.6024Y-1.5984
X5.6149Y-1.7649
X5.6299Y-1.5413
X5.6418Y-1.8347
X5.6742Y-1.8307
X5.6878Y-1.5862
X5.7283Y-1.3589
X5.7287Y-1.6982
X5.7287Y-1.7382
X5.7287Y-1.7782
X5.7559Y-1.9961
X5.7681Y-1.7382
X5.7694Y-1.6982
X5.7694Y-1.7782
X5.8087Y-1.6982
X5.8087Y-1.7382
X5.8087Y-1.7782
X5.8091Y-1.5846
X5.8323Y-1.9197
X5.848Y-1.9701
X5.8671Y-1.6378
X5.9075Y-1.815
X5.935Y-1.6059
X5.9642Y-1.8201
X6.0522Y-1.8386
X6.0547Y-1.6748
X6.1093Y-1.9567
M30
