%TF.GenerationSoftware,KiCad,Pcbnew,9.0.4*%
%TF.CreationDate,2025-09-15T17:34:50-04:00*%
%TF.ProjectId,usb-hub,7573622d-6875-4622-9e6b-696361645f70,rev?*%
%TF.SameCoordinates,Original*%
%TF.FileFunction,Copper,L1,Top*%
%TF.FilePolarity,Positive*%
%FSLAX46Y46*%
G04 Gerber Fmt 4.6, Leading zero omitted, Abs format (unit mm)*
G04 Created by KiCad (PCBNEW 9.0.4) date 2025-09-15 17:34:50*
%MOMM*%
%LPD*%
G01*
G04 APERTURE LIST*
G04 Aperture macros list*
%AMRoundRect*
0 Rectangle with rounded corners*
0 $1 Rounding radius*
0 $2 $3 $4 $5 $6 $7 $8 $9 X,Y pos of 4 corners*
0 Add a 4 corners polygon primitive as box body*
4,1,4,$2,$3,$4,$5,$6,$7,$8,$9,$2,$3,0*
0 Add four circle primitives for the rounded corners*
1,1,$1+$1,$2,$3*
1,1,$1+$1,$4,$5*
1,1,$1+$1,$6,$7*
1,1,$1+$1,$8,$9*
0 Add four rect primitives between the rounded corners*
20,1,$1+$1,$2,$3,$4,$5,0*
20,1,$1+$1,$4,$5,$6,$7,0*
20,1,$1+$1,$6,$7,$8,$9,0*
20,1,$1+$1,$8,$9,$2,$3,0*%
G04 Aperture macros list end*
%TA.AperFunction,SMDPad,CuDef*%
%ADD10RoundRect,0.135000X-0.135000X-0.185000X0.135000X-0.185000X0.135000X0.185000X-0.135000X0.185000X0*%
%TD*%
%TA.AperFunction,SMDPad,CuDef*%
%ADD11RoundRect,0.135000X0.135000X0.185000X-0.135000X0.185000X-0.135000X-0.185000X0.135000X-0.185000X0*%
%TD*%
%TA.AperFunction,SMDPad,CuDef*%
%ADD12C,1.000000*%
%TD*%
%TA.AperFunction,SMDPad,CuDef*%
%ADD13RoundRect,0.140000X0.170000X-0.140000X0.170000X0.140000X-0.170000X0.140000X-0.170000X-0.140000X0*%
%TD*%
%TA.AperFunction,SMDPad,CuDef*%
%ADD14RoundRect,0.140000X-0.140000X-0.170000X0.140000X-0.170000X0.140000X0.170000X-0.140000X0.170000X0*%
%TD*%
%TA.AperFunction,SMDPad,CuDef*%
%ADD15RoundRect,0.140000X0.140000X0.170000X-0.140000X0.170000X-0.140000X-0.170000X0.140000X-0.170000X0*%
%TD*%
%TA.AperFunction,SMDPad,CuDef*%
%ADD16R,0.254000X0.812800*%
%TD*%
%TA.AperFunction,SMDPad,CuDef*%
%ADD17R,0.812800X0.254000*%
%TD*%
%TA.AperFunction,SMDPad,CuDef*%
%ADD18R,3.606800X3.606800*%
%TD*%
%TA.AperFunction,SMDPad,CuDef*%
%ADD19R,0.800000X0.300000*%
%TD*%
%TA.AperFunction,SMDPad,CuDef*%
%ADD20R,0.800000X0.400000*%
%TD*%
%TA.AperFunction,SMDPad,CuDef*%
%ADD21RoundRect,0.250000X0.350000X-0.650000X0.350000X0.650000X-0.350000X0.650000X-0.350000X-0.650000X0*%
%TD*%
%TA.AperFunction,SMDPad,CuDef*%
%ADD22RoundRect,0.140000X-0.170000X0.140000X-0.170000X-0.140000X0.170000X-0.140000X0.170000X0.140000X0*%
%TD*%
%TA.AperFunction,ViaPad*%
%ADD23C,0.600000*%
%TD*%
%TA.AperFunction,Conductor*%
%ADD24C,0.200000*%
%TD*%
%TA.AperFunction,Conductor*%
%ADD25C,0.165100*%
%TD*%
G04 APERTURE END LIST*
D10*
%TO.P,R5,1*%
%TO.N,VREG*%
X140555002Y-43600000D03*
%TO.P,R5,2*%
%TO.N,Net-(U1-\u002AOVR[2])*%
X141575000Y-43600000D03*
%TD*%
D11*
%TO.P,R4,1*%
%TO.N,Net-(U1-\u002AOVR[1])*%
X141575000Y-44625000D03*
%TO.P,R4,2*%
%TO.N,VREG*%
X140555002Y-44625000D03*
%TD*%
D12*
%TO.P,J3,1,Pin_1*%
%TO.N,VBUS*%
X150300000Y-50750000D03*
%TO.P,J3,2,Pin_2*%
%TO.N,USB_KB_N*%
X151800000Y-50750000D03*
%TO.P,J3,3,Pin_3*%
%TO.N,USB_KB_P*%
X153300000Y-50750000D03*
%TO.P,J3,4,Pin_4*%
%TO.N,GND*%
X154800000Y-50750000D03*
%TD*%
D10*
%TO.P,R2,1*%
%TO.N,Net-(U1-\u002ARESET)*%
X148815001Y-40425000D03*
%TO.P,R2,2*%
%TO.N,VREG*%
X149834999Y-40425000D03*
%TD*%
D13*
%TO.P,C4,1*%
%TO.N,VREG*%
X150275000Y-42630000D03*
%TO.P,C4,2*%
%TO.N,GND*%
X150275000Y-41670000D03*
%TD*%
D14*
%TO.P,C5,1*%
%TO.N,GND*%
X141680000Y-45740000D03*
%TO.P,C5,2*%
%TO.N,VBUS*%
X142640000Y-45740000D03*
%TD*%
D10*
%TO.P,R1,1*%
%TO.N,Net-(U1-RREF)*%
X149840001Y-46925000D03*
%TO.P,R1,2*%
%TO.N,GND*%
X150859999Y-46925000D03*
%TD*%
D15*
%TO.P,C1,1*%
%TO.N,GND*%
X146605000Y-40375000D03*
%TO.P,C1,2*%
%TO.N,VREG*%
X145645000Y-40375000D03*
%TD*%
%TO.P,C7,1*%
%TO.N,GND*%
X141330000Y-41500000D03*
%TO.P,C7,2*%
%TO.N,VBUS*%
X140370000Y-41500000D03*
%TD*%
D11*
%TO.P,R3,1*%
%TO.N,Net-(U1-GANG)*%
X142925000Y-42591667D03*
%TO.P,R3,2*%
%TO.N,VREG*%
X141905002Y-42591667D03*
%TD*%
D16*
%TO.P,U1,1,D-*%
%TO.N,USB_HOST_N*%
X145025000Y-46601100D03*
%TO.P,U1,2,D+*%
%TO.N,USB_HOST_P*%
X145524999Y-46601100D03*
%TO.P,U1,3,D0-[1]*%
%TO.N,USB_FNG_N*%
X146025001Y-46601100D03*
%TO.P,U1,4,D0+[1]*%
%TO.N,USB_FNG_P*%
X146525000Y-46601099D03*
%TO.P,U1,5,VCC_A*%
%TO.N,VREG*%
X147024999Y-46601100D03*
%TO.P,U1,6,DD-[2]*%
%TO.N,USB_KB_N*%
X147525001Y-46601100D03*
%TO.P,U1,7,DD+[2]*%
%TO.N,USB_KB_P*%
X148025000Y-46601100D03*
D17*
%TO.P,U1,8,RREF*%
%TO.N,Net-(U1-RREF)*%
X148976100Y-45650000D03*
%TO.P,U1,9,VCC_A*%
%TO.N,VREG*%
X148976100Y-45150001D03*
%TO.P,U1,10,XIN*%
%TO.N,X_IN*%
X148976100Y-44649999D03*
%TO.P,U1,11,XOUT*%
%TO.N,X_OUT*%
X148976099Y-44150000D03*
%TO.P,U1,12,NC*%
%TO.N,unconnected-(U1-NC-Pad12)*%
X148976100Y-43650001D03*
%TO.P,U1,13,NC*%
%TO.N,unconnected-(U1-NC-Pad13)*%
X148976100Y-43149999D03*
%TO.P,U1,14,VCC_A*%
%TO.N,VREG*%
X148976100Y-42650000D03*
D16*
%TO.P,U1,15,NC*%
%TO.N,unconnected-(U1-NC-Pad15)*%
X148025000Y-41698900D03*
%TO.P,U1,16,NC*%
%TO.N,unconnected-(U1-NC-Pad16)*%
X147525001Y-41698900D03*
%TO.P,U1,17,\u002ARESET*%
%TO.N,Net-(U1-\u002ARESET)*%
X147024999Y-41698900D03*
%TO.P,U1,18,TEST/I2C_SCL*%
%TO.N,unconnected-(U1-TEST{slash}I2C_SCL-Pad18)*%
X146525000Y-41698901D03*
%TO.P,U1,19,NC*%
%TO.N,unconnected-(U1-NC-Pad19)*%
X146025001Y-41698900D03*
%TO.P,U1,20,NC*%
%TO.N,unconnected-(U1-NC-Pad20)*%
X145524999Y-41698900D03*
%TO.P,U1,21,VCC_D*%
%TO.N,VREG*%
X145025000Y-41698900D03*
D17*
%TO.P,U1,22,SELFPWR*%
%TO.N,Net-(U1-SELFPWR)*%
X144073900Y-42650000D03*
%TO.P,U1,23,GANG*%
%TO.N,Net-(U1-GANG)*%
X144073900Y-43149999D03*
%TO.P,U1,24,\u002AOVR[2]*%
%TO.N,Net-(U1-\u002AOVR[2])*%
X144073900Y-43650001D03*
%TO.P,U1,25,\u002AOVR[1]*%
%TO.N,Net-(U1-\u002AOVR[1])*%
X144073901Y-44150000D03*
%TO.P,U1,26,\u002APWR/I2C_SDA*%
%TO.N,unconnected-(U1-\u002APWR{slash}I2C_SDA-Pad26)*%
X144073900Y-44649999D03*
%TO.P,U1,27,VCC*%
%TO.N,VBUS*%
X144073900Y-45150001D03*
%TO.P,U1,28,VREG*%
%TO.N,VREG*%
X144073900Y-45650000D03*
D18*
%TO.P,U1,29,29*%
%TO.N,GND*%
X146525000Y-44150000D03*
%TD*%
D15*
%TO.P,C9,1*%
%TO.N,X_IN*%
X155130000Y-48300000D03*
%TO.P,C9,2*%
%TO.N,GND*%
X154170000Y-48300000D03*
%TD*%
D10*
%TO.P,R6,1*%
%TO.N,GND*%
X142280002Y-41500000D03*
%TO.P,R6,2*%
%TO.N,Net-(U1-SELFPWR)*%
X143300000Y-41500000D03*
%TD*%
D19*
%TO.P,J2,1,1*%
%TO.N,VBUS*%
X143675000Y-33925000D03*
%TO.P,J2,2,2*%
%TO.N,USB_FNG_N*%
X143675000Y-34425001D03*
%TO.P,J2,3,3*%
%TO.N,USB_FNG_P*%
X143675000Y-34925000D03*
%TO.P,J2,4,4*%
%TO.N,GND*%
X143675000Y-35424999D03*
%TO.P,J2,5,5*%
%TO.N,EC_CTRL*%
X143675000Y-35925000D03*
%TO.P,J2,6,6*%
%TO.N,SWITCH*%
X143675000Y-36425000D03*
%TO.P,J2,7,7*%
%TO.N,RGB_W*%
X143675000Y-36925001D03*
%TO.P,J2,8,8*%
%TO.N,RGB_G*%
X143675000Y-37425000D03*
%TO.P,J2,9,9*%
%TO.N,RGB_R*%
X143675000Y-37924999D03*
%TO.P,J2,10,10*%
%TO.N,LED_COM*%
X143675000Y-38425000D03*
D20*
%TO.P,J2,MP1,MP1*%
%TO.N,GND*%
X141175001Y-32700000D03*
%TO.P,J2,MP2,MP2*%
X141175001Y-39650000D03*
%TD*%
D21*
%TO.P,Y1,1,1*%
%TO.N,X_IN*%
X154952501Y-46602500D03*
%TO.P,Y1,2,2*%
%TO.N,GND*%
X154952501Y-42602500D03*
%TO.P,Y1,3,3*%
%TO.N,Net-(C10-Pad2)*%
X152552499Y-42602500D03*
%TO.P,Y1,4,4*%
%TO.N,GND*%
X152552499Y-46602500D03*
%TD*%
D22*
%TO.P,C2,1*%
%TO.N,VREG*%
X147180000Y-47970000D03*
%TO.P,C2,2*%
%TO.N,GND*%
X147180000Y-48930000D03*
%TD*%
D14*
%TO.P,C8,1*%
%TO.N,GND*%
X147950000Y-50820000D03*
%TO.P,C8,2*%
%TO.N,VBUS*%
X148910000Y-50820000D03*
%TD*%
%TO.P,C6,1*%
%TO.N,GND*%
X141680000Y-46860000D03*
%TO.P,C6,2*%
%TO.N,VBUS*%
X142640000Y-46860000D03*
%TD*%
D10*
%TO.P,R7,1*%
%TO.N,X_OUT*%
X151750002Y-40950000D03*
%TO.P,R7,2*%
%TO.N,Net-(C10-Pad2)*%
X152770000Y-40950000D03*
%TD*%
D15*
%TO.P,C10,1*%
%TO.N,GND*%
X154665001Y-40900000D03*
%TO.P,C10,2*%
%TO.N,Net-(C10-Pad2)*%
X153705001Y-40900000D03*
%TD*%
D14*
%TO.P,C3,1*%
%TO.N,VREG*%
X150200000Y-45370000D03*
%TO.P,C3,2*%
%TO.N,GND*%
X151160000Y-45370000D03*
%TD*%
D23*
%TO.N,EC_CTRL*%
X139855252Y-38461477D03*
%TO.N,RGB_W*%
X141139479Y-38498755D03*
%TO.N,RGB_G*%
X142092244Y-38019938D03*
%TO.N,VBUS*%
X148540000Y-50040000D03*
X139800000Y-40150000D03*
X143300735Y-46600735D03*
X139100000Y-42300000D03*
X137000000Y-34975000D03*
%TO.N,USB_HOST_P*%
X137625000Y-45850000D03*
X136825000Y-46850000D03*
X138175521Y-39575521D03*
%TO.N,USB_HOST_N*%
X137574479Y-38974479D03*
%TO.N,RGB_R*%
X142100000Y-38900000D03*
%TO.N,SWITCH*%
X140483530Y-38956724D03*
%TO.N,GND*%
X142300000Y-40600000D03*
X146541500Y-45166000D03*
X155175000Y-49700000D03*
X137700000Y-34500000D03*
X145509000Y-44150000D03*
X145509000Y-43134000D03*
X147541000Y-44150000D03*
X138450000Y-36725000D03*
X145509000Y-45166000D03*
X147550000Y-40250000D03*
X151490000Y-46230000D03*
X153790000Y-42540000D03*
X153725000Y-46700000D03*
X146508500Y-44150000D03*
X146200000Y-50700000D03*
X146541500Y-43134000D03*
X141425000Y-40350000D03*
X142619265Y-44829265D03*
X147541000Y-45166000D03*
X150750000Y-40790000D03*
X145500000Y-34517100D03*
X147541000Y-43134000D03*
X135800000Y-32800000D03*
%TO.N,LED_COM*%
X143000000Y-39150000D03*
%TO.N,VREG*%
X141200000Y-42600000D03*
X144125000Y-46500000D03*
X150050000Y-46100000D03*
X144470000Y-40290000D03*
X149025000Y-41600000D03*
X148140000Y-48760000D03*
%TO.N,USB_FNG_P*%
X141736765Y-35025001D03*
X140101689Y-34275000D03*
%TD*%
D24*
%TO.N,EC_CTRL*%
X142253809Y-35925000D02*
X140634599Y-37544210D01*
X140634599Y-37544210D02*
X140341140Y-37544210D01*
X143675000Y-35925000D02*
X142253809Y-35925000D01*
X140341140Y-37544210D02*
X139855252Y-38030098D01*
X139855252Y-38030098D02*
X139855252Y-38461477D01*
D25*
%TO.N,RGB_W*%
X142429781Y-36858550D02*
X141139479Y-38148852D01*
X143608549Y-36858550D02*
X142429781Y-36858550D01*
X143675000Y-36925001D02*
X143608549Y-36858550D01*
X141139479Y-38148852D02*
X141139479Y-38498755D01*
%TO.N,RGB_G*%
X142687182Y-37425000D02*
X142092244Y-38019938D01*
X143675000Y-37425000D02*
X142687182Y-37425000D01*
D24*
%TO.N,VBUS*%
X142674000Y-33674000D02*
X142925000Y-33925000D01*
X139890000Y-40150000D02*
X139800000Y-40150000D01*
X150220000Y-50830000D02*
X150300000Y-50750000D01*
X138149000Y-35151000D02*
X139626000Y-33674000D01*
X143229999Y-45150001D02*
X144073900Y-45150001D01*
X139100000Y-42300000D02*
X139800000Y-42300000D01*
X137176000Y-35151000D02*
X138149000Y-35151000D01*
X140370000Y-40630000D02*
X139890000Y-40150000D01*
X142925000Y-33925000D02*
X143675000Y-33925000D01*
X142640000Y-45740000D02*
X143229999Y-45150001D01*
X143041470Y-46860000D02*
X143300735Y-46600735D01*
X148910000Y-50820000D02*
X148910000Y-50410000D01*
X140370000Y-41500000D02*
X140370000Y-40630000D01*
X150230000Y-50820000D02*
X150300000Y-50750000D01*
X139626000Y-33674000D02*
X142674000Y-33674000D01*
X148910000Y-50820000D02*
X150230000Y-50820000D01*
X139800000Y-42300000D02*
X140370000Y-41730000D01*
X137000000Y-34975000D02*
X137176000Y-35151000D01*
X150200000Y-50850000D02*
X150300000Y-50750000D01*
X142640000Y-46860000D02*
X143041470Y-46860000D01*
X142640000Y-46860000D02*
X142640000Y-45740000D01*
X140370000Y-41730000D02*
X140370000Y-41500000D01*
X150300000Y-50750000D02*
X150199999Y-50649999D01*
X148910000Y-50410000D02*
X148540000Y-50040000D01*
%TO.N,USB_HOST_P*%
X145499999Y-47868199D02*
X143968198Y-49400000D01*
X145499999Y-47235701D02*
X145499999Y-47868199D01*
X145524999Y-47210701D02*
X145499999Y-47235701D01*
X143968198Y-49400000D02*
X137931802Y-49400000D01*
X137625000Y-45850000D02*
X137625000Y-45475000D01*
X137892678Y-39575521D02*
X138175521Y-39575521D01*
X137625000Y-45475000D02*
X137475000Y-45325000D01*
X137931802Y-49400000D02*
X137024999Y-48493197D01*
X137475000Y-43803867D02*
X137475001Y-43803866D01*
X137475001Y-39993198D02*
X137892678Y-39575521D01*
X137024999Y-47049999D02*
X136825000Y-46850000D01*
X137024999Y-48493197D02*
X137024999Y-47049999D01*
X137475000Y-45325000D02*
X137475000Y-43803867D01*
X137475001Y-43803866D02*
X137475001Y-39993198D01*
X145524999Y-46601100D02*
X145524999Y-47210701D01*
%TO.N,USB_HOST_N*%
X145050000Y-47235701D02*
X145050000Y-47681802D01*
X137475001Y-47958892D02*
X137475001Y-46650058D01*
X137024999Y-39806802D02*
X137574479Y-39257322D01*
X138528969Y-48406188D02*
X138528969Y-48710000D01*
X145025000Y-47210701D02*
X145050000Y-47235701D01*
X137475001Y-48306803D02*
X137475001Y-47958892D01*
X138118198Y-48950000D02*
X137475001Y-48306803D01*
X137475001Y-46650058D02*
X137025000Y-46200057D01*
X138288969Y-48950000D02*
X138168969Y-48950000D01*
X143781802Y-48950000D02*
X139368969Y-48950000D01*
X139128969Y-48710000D02*
X139128969Y-48406188D01*
X145025000Y-46601100D02*
X145025000Y-47210701D01*
X138888969Y-48166188D02*
X138768969Y-48166188D01*
X137025000Y-43803867D02*
X137024999Y-43803866D01*
X145050000Y-47681802D02*
X143781802Y-48950000D01*
X138168969Y-48950000D02*
X138118198Y-48950000D01*
X137025000Y-46200057D02*
X137025000Y-43803867D01*
X137024999Y-43803866D02*
X137024999Y-39806802D01*
X137574479Y-39257322D02*
X137574479Y-38974479D01*
X139368969Y-48950000D02*
G75*
G02*
X139129000Y-48710000I31J240000D01*
G01*
X138768969Y-48166188D02*
G75*
G03*
X138528988Y-48406188I31J-240012D01*
G01*
X139128969Y-48406188D02*
G75*
G03*
X138888969Y-48166231I-239969J-12D01*
G01*
X138528969Y-48710000D02*
G75*
G02*
X138288969Y-48949969I-239969J0D01*
G01*
%TO.N,RGB_R*%
X143075001Y-37924999D02*
X142100000Y-38900000D01*
X143675000Y-37924999D02*
X143075001Y-37924999D01*
%TO.N,SWITCH*%
X140483530Y-38262379D02*
X140483530Y-38956724D01*
X142320909Y-36425000D02*
X140483530Y-38262379D01*
X143675000Y-36425000D02*
X142320909Y-36425000D01*
%TO.N,GND*%
X141330000Y-41500000D02*
X141400000Y-41500000D01*
X153725000Y-47855000D02*
X153725000Y-46700000D01*
X144600001Y-35424999D02*
X143675000Y-35424999D01*
X152552499Y-46602500D02*
X153627500Y-46602500D01*
X145150000Y-34875000D02*
X144600001Y-35424999D01*
X141680000Y-45740000D02*
X142590735Y-44829265D01*
X141795000Y-45600000D02*
X141630002Y-45600000D01*
X145150000Y-34875000D02*
X145150000Y-34867100D01*
X153627500Y-46602500D02*
X153725000Y-46700000D01*
X135900000Y-32700000D02*
X135800000Y-32800000D01*
X138525000Y-36800000D02*
X138450000Y-36725000D01*
X151160000Y-45900000D02*
X151490000Y-46230000D01*
X151160000Y-45370000D02*
X151160000Y-45900000D01*
X154665001Y-40954999D02*
X153790000Y-41830000D01*
X150859999Y-46860001D02*
X151490000Y-46230000D01*
X142186710Y-35424999D02*
X141985708Y-35626001D01*
X141175001Y-40100001D02*
X141425000Y-40350000D01*
X150275000Y-41265000D02*
X150750000Y-40790000D01*
X154952501Y-42602500D02*
X153852500Y-42602500D01*
X141175001Y-32700000D02*
X139400000Y-32700000D01*
X146320000Y-50820000D02*
X146200000Y-50700000D01*
X146605000Y-40375000D02*
X147425000Y-40375000D01*
X154800000Y-50075000D02*
X155175000Y-49700000D01*
X141460042Y-35626001D02*
X140286043Y-36800000D01*
X141175001Y-39650000D02*
X141175001Y-40100001D01*
X150859999Y-46925000D02*
X150859999Y-46860001D01*
X147425000Y-40375000D02*
X147550000Y-40250000D01*
X153790000Y-41830000D02*
X153790000Y-42540000D01*
X139400000Y-32700000D02*
X135900000Y-32700000D01*
X141400000Y-41500000D02*
X142300000Y-40600000D01*
X142280002Y-41500000D02*
X142280002Y-40619998D01*
X142590735Y-44829265D02*
X142619265Y-44829265D01*
X143675000Y-35424999D02*
X142186710Y-35424999D01*
X139400000Y-32700000D02*
X137800000Y-34300000D01*
X147950000Y-50820000D02*
X147650000Y-50820000D01*
X154800000Y-50750000D02*
X154800000Y-50075000D01*
X137700000Y-34400000D02*
X137700000Y-34500000D01*
X140286043Y-36800000D02*
X138525000Y-36800000D01*
X143626001Y-35376000D02*
X143675000Y-35424999D01*
X137800000Y-34300000D02*
X137700000Y-34400000D01*
X147230000Y-48980000D02*
X147180000Y-48930000D01*
X154170000Y-48300000D02*
X153725000Y-47855000D01*
X150275000Y-41670000D02*
X150275000Y-41265000D01*
X141985708Y-35626001D02*
X141460042Y-35626001D01*
X142280002Y-40619998D02*
X142300000Y-40600000D01*
X154665001Y-40900000D02*
X154665001Y-40954999D01*
X147950000Y-50820000D02*
X146320000Y-50820000D01*
X153852500Y-42602500D02*
X153790000Y-42540000D01*
X145150000Y-34867100D02*
X145500000Y-34517100D01*
X147180000Y-50350000D02*
X147180000Y-48930000D01*
X141680000Y-46860000D02*
X141680000Y-45740000D01*
X147650000Y-50820000D02*
X147180000Y-50350000D01*
X150859999Y-47050000D02*
X151004999Y-47050000D01*
%TO.N,LED_COM*%
X143675000Y-38475000D02*
X143000000Y-39150000D01*
X143675000Y-38425000D02*
X143675000Y-38475000D01*
X143000000Y-39150000D02*
X143000000Y-39125000D01*
%TO.N,VREG*%
X145645000Y-40375000D02*
X145525000Y-40375000D01*
X150200000Y-45950000D02*
X150050000Y-46100000D01*
X140555002Y-43600000D02*
X140555002Y-42755002D01*
X147180000Y-47970000D02*
X147350000Y-47970000D01*
X143094627Y-47655373D02*
X141155373Y-47655373D01*
X140555002Y-44625000D02*
X140555002Y-47055002D01*
X147024999Y-47814999D02*
X147024999Y-46601100D01*
X144125000Y-46500000D02*
X144125000Y-46625000D01*
X145025000Y-41698900D02*
X145025000Y-40875000D01*
X150200000Y-45370000D02*
X150200000Y-45950000D01*
X145645000Y-40375000D02*
X144555000Y-40375000D01*
X144073900Y-45650000D02*
X144073900Y-46448900D01*
X144125000Y-46625000D02*
X143094627Y-47655373D01*
X141905002Y-42591667D02*
X141208333Y-42591667D01*
X149834999Y-40425000D02*
X149834999Y-40790001D01*
X150200000Y-45370000D02*
X149980001Y-45150001D01*
X140710004Y-42600000D02*
X140555002Y-42755002D01*
X140555002Y-47055002D02*
X141155373Y-47655373D01*
X147350000Y-47970000D02*
X148140000Y-48760000D01*
X149980001Y-45150001D02*
X148976100Y-45150001D01*
X141208333Y-42591667D02*
X141200000Y-42600000D01*
X147180000Y-47970000D02*
X147024999Y-47814999D01*
X150255000Y-42650000D02*
X150275000Y-42630000D01*
X150055000Y-42630000D02*
X149025000Y-41600000D01*
X148976100Y-42650000D02*
X150255000Y-42650000D01*
X144073900Y-46448900D02*
X144125000Y-46500000D01*
X145525000Y-40375000D02*
X145025000Y-40875000D01*
X149834999Y-40790001D02*
X149025000Y-41600000D01*
X141200000Y-42600000D02*
X140710004Y-42600000D01*
X150275000Y-42630000D02*
X150055000Y-42630000D01*
X144555000Y-40375000D02*
X144470000Y-40290000D01*
%TO.N,X_IN*%
X153000000Y-44649999D02*
X148976100Y-44649999D01*
X154952501Y-46602500D02*
X153000000Y-44649999D01*
X155130000Y-48300000D02*
X155130000Y-46779999D01*
X155130000Y-46779999D02*
X154952501Y-46602500D01*
%TO.N,USB_FNG_N*%
X146025001Y-46601100D02*
X146049999Y-46626098D01*
X136339052Y-41751009D02*
X136290000Y-41751009D01*
X136579076Y-43311009D02*
X136579076Y-43191009D01*
X136290000Y-42351009D02*
X136339052Y-42351009D01*
X136579052Y-42111009D02*
X136579052Y-41991009D01*
X139924000Y-35976000D02*
X141474999Y-34425001D01*
X136050000Y-40191009D02*
X136050000Y-38678199D01*
X136050000Y-38678199D02*
X136050000Y-36543198D01*
X146049999Y-48056803D02*
X144106802Y-50000000D01*
X136579076Y-40911009D02*
X136579076Y-40791009D01*
X136339076Y-44151009D02*
X136290000Y-44151009D01*
X136050000Y-41511009D02*
X136050000Y-41391009D01*
X136617198Y-35976000D02*
X139924000Y-35976000D01*
X136050000Y-40311009D02*
X136050000Y-40191009D01*
X136290000Y-44751009D02*
X136339076Y-44751009D01*
X144106802Y-50000000D02*
X136518198Y-50000000D01*
X136579076Y-44511009D02*
X136579076Y-44391009D01*
X136339076Y-40551009D02*
X136290000Y-40551009D01*
X136290000Y-41151009D02*
X136339076Y-41151009D01*
X136518198Y-50000000D02*
X136050000Y-49531802D01*
X136290000Y-43551009D02*
X136339076Y-43551009D01*
X136050000Y-49531802D02*
X136050000Y-44991009D01*
X146049999Y-46626098D02*
X146049999Y-48056803D01*
X136339076Y-42951009D02*
X136290000Y-42951009D01*
X136050000Y-42711009D02*
X136050000Y-42591009D01*
X136050000Y-36543198D02*
X136617198Y-35976000D01*
X141474999Y-34425001D02*
X143675000Y-34425001D01*
X136050000Y-43911009D02*
X136050000Y-43791009D01*
X136290000Y-41751009D02*
G75*
G02*
X136049991Y-41511009I0J240009D01*
G01*
X136339076Y-44751009D02*
G75*
G03*
X136579109Y-44511009I24J240009D01*
G01*
X136290000Y-44151009D02*
G75*
G02*
X136049991Y-43911009I0J240009D01*
G01*
X136050000Y-43791009D02*
G75*
G02*
X136290000Y-43551000I240000J9D01*
G01*
X136050000Y-41391009D02*
G75*
G02*
X136290000Y-41151000I240000J9D01*
G01*
X136579052Y-41991009D02*
G75*
G03*
X136339052Y-41751048I-239952J9D01*
G01*
X136339052Y-42351009D02*
G75*
G03*
X136579109Y-42111009I48J240009D01*
G01*
X136290000Y-42951009D02*
G75*
G02*
X136049991Y-42711009I0J240009D01*
G01*
X136579076Y-43191009D02*
G75*
G03*
X136339076Y-42951024I-239976J9D01*
G01*
X136339076Y-43551009D02*
G75*
G03*
X136579109Y-43311009I24J240009D01*
G01*
X136579076Y-44391009D02*
G75*
G03*
X136339076Y-44151024I-239976J9D01*
G01*
X136050000Y-42591009D02*
G75*
G02*
X136290000Y-42351000I240000J9D01*
G01*
X136579076Y-40791009D02*
G75*
G03*
X136339076Y-40551024I-239976J9D01*
G01*
X136339076Y-41151009D02*
G75*
G03*
X136579109Y-40911009I24J240009D01*
G01*
X136050000Y-44991009D02*
G75*
G02*
X136290000Y-44751000I240000J9D01*
G01*
X136290000Y-40551009D02*
G75*
G02*
X136049991Y-40311009I0J240009D01*
G01*
%TO.N,USB_FNG_P*%
X141736765Y-35025001D02*
X141836766Y-34925000D01*
X135600000Y-36356802D02*
X136381802Y-35575000D01*
X141836766Y-34925000D02*
X143675000Y-34925000D01*
X138801689Y-35575000D02*
X140101689Y-34275000D01*
X146500001Y-46626098D02*
X146500001Y-48243197D01*
X146525000Y-46601099D02*
X146500001Y-46626098D01*
X144293198Y-50450000D02*
X136331802Y-50450000D01*
X136381802Y-35575000D02*
X138801689Y-35575000D01*
X135600000Y-49718198D02*
X135600000Y-36356802D01*
X136331802Y-50450000D02*
X135600000Y-49718198D01*
X146500001Y-48243197D02*
X144293198Y-50450000D01*
%TO.N,USB_KB_P*%
X148000000Y-46905500D02*
X148000000Y-47021802D01*
X148025000Y-46601100D02*
X148025000Y-46880500D01*
X148000000Y-47021802D02*
X149523198Y-48545000D01*
X152775001Y-50225001D02*
X153300000Y-50750000D01*
X148025000Y-46880500D02*
X148000000Y-46905500D01*
X151663198Y-48545000D02*
X152775001Y-49656803D01*
X149523198Y-48545000D02*
X151663198Y-48545000D01*
X152775001Y-49656803D02*
X152775001Y-50225001D01*
%TO.N,USB_KB_N*%
X147550001Y-47208199D02*
X149336802Y-48995000D01*
X147550001Y-46905500D02*
X147550001Y-47208199D01*
X147525001Y-46601100D02*
X147525001Y-46880500D01*
X147525001Y-46880500D02*
X147550001Y-46905500D01*
X149336802Y-48995000D02*
X151476802Y-48995000D01*
X152324999Y-49843197D02*
X152324999Y-50225001D01*
X151476802Y-48995000D02*
X152324999Y-49843197D01*
X152324999Y-50225001D02*
X151800000Y-50750000D01*
%TO.N,Net-(U1-RREF)*%
X149840001Y-46925000D02*
X149250000Y-46925000D01*
X149250000Y-46925000D02*
X148976100Y-46651100D01*
X148976100Y-46651100D02*
X148976100Y-45650000D01*
%TO.N,Net-(U1-\u002ARESET)*%
X147900000Y-40850000D02*
X148325000Y-40425000D01*
X147024999Y-41698900D02*
X147024999Y-41063502D01*
X148325000Y-40425000D02*
X148815001Y-40425000D01*
X147238501Y-40850000D02*
X147900000Y-40850000D01*
X147024999Y-41063502D02*
X147238501Y-40850000D01*
%TO.N,Net-(U1-GANG)*%
X143099999Y-43149999D02*
X142925000Y-42975000D01*
X144073900Y-43149999D02*
X143099999Y-43149999D01*
X142925000Y-42975000D02*
X142925000Y-42591667D01*
%TO.N,Net-(U1-\u002AOVR[1])*%
X141575000Y-44625000D02*
X141975000Y-44625000D01*
X141975000Y-44625000D02*
X142450000Y-44150000D01*
X142450000Y-44150000D02*
X144073901Y-44150000D01*
%TO.N,Net-(U1-\u002AOVR[2])*%
X141625001Y-43650001D02*
X141575000Y-43600000D01*
X144073900Y-43650001D02*
X141625001Y-43650001D01*
%TO.N,Net-(U1-SELFPWR)*%
X144073900Y-42650000D02*
X144073900Y-41623900D01*
X143950000Y-41500000D02*
X143300000Y-41500000D01*
X144073900Y-41623900D02*
X143950000Y-41500000D01*
%TO.N,X_OUT*%
X151750002Y-40950000D02*
X151265001Y-41435001D01*
X151265001Y-41435001D02*
X151265001Y-43634999D01*
X151265001Y-43634999D02*
X150750000Y-44150000D01*
X150750000Y-44150000D02*
X148976099Y-44150000D01*
%TO.N,Net-(C10-Pad2)*%
X153705001Y-40900000D02*
X152820000Y-40900000D01*
X152552499Y-42602500D02*
X153705001Y-41449998D01*
X153705001Y-41449998D02*
X153705001Y-40900000D01*
X152820000Y-40900000D02*
X152770000Y-40950000D01*
%TD*%
%TA.AperFunction,Conductor*%
%TO.N,VREG*%
G36*
X148195703Y-48703582D02*
G01*
X148202181Y-48709614D01*
X148523080Y-49030513D01*
X148556565Y-49091836D01*
X148551581Y-49161528D01*
X148509709Y-49217461D01*
X148459591Y-49239811D01*
X148306508Y-49270261D01*
X148306498Y-49270264D01*
X148160812Y-49330608D01*
X148160571Y-49330738D01*
X148160430Y-49330767D01*
X148155192Y-49332937D01*
X148154780Y-49331942D01*
X148092166Y-49344971D01*
X148026926Y-49319961D01*
X147985563Y-49263651D01*
X147981211Y-49193917D01*
X147983058Y-49186773D01*
X147987643Y-49170993D01*
X147990500Y-49134690D01*
X147990500Y-48797295D01*
X148010185Y-48730256D01*
X148062989Y-48684501D01*
X148132147Y-48674557D01*
X148195703Y-48703582D01*
G37*
%TD.AperFunction*%
%TA.AperFunction,Conductor*%
G36*
X140868766Y-42237355D02*
G01*
X140880496Y-42236920D01*
X140913117Y-42250377D01*
X140933605Y-42262494D01*
X140933607Y-42262494D01*
X140933608Y-42262495D01*
X141075906Y-42303837D01*
X141132367Y-42338742D01*
X141135071Y-42341667D01*
X141781002Y-42341667D01*
X141789687Y-42344217D01*
X141798649Y-42342929D01*
X141822689Y-42353907D01*
X141848041Y-42361352D01*
X141853968Y-42368192D01*
X141862205Y-42371954D01*
X141876494Y-42394188D01*
X141893796Y-42414156D01*
X141896083Y-42424670D01*
X141899979Y-42430732D01*
X141905002Y-42465667D01*
X141905002Y-42655672D01*
X141885317Y-42722711D01*
X141832513Y-42768466D01*
X141776616Y-42779483D01*
X141776616Y-42779500D01*
X141776533Y-42779500D01*
X141776143Y-42779577D01*
X141774182Y-42779500D01*
X141774181Y-42779500D01*
X141774179Y-42779500D01*
X141375830Y-42779500D01*
X141375808Y-42779501D01*
X141339799Y-42782334D01*
X141185604Y-42827132D01*
X141178597Y-42830164D01*
X141173836Y-42832525D01*
X141099668Y-42862700D01*
X141091271Y-42863549D01*
X141084029Y-42867881D01*
X141057032Y-42867012D01*
X141030153Y-42869731D01*
X141022629Y-42865905D01*
X141014196Y-42865634D01*
X140989818Y-42854575D01*
X140944191Y-42827592D01*
X140944190Y-42827591D01*
X140805003Y-42787153D01*
X140805002Y-42787154D01*
X140805002Y-43339566D01*
X140804620Y-43349294D01*
X140804500Y-43350811D01*
X140804500Y-43350819D01*
X140804500Y-43571836D01*
X140804501Y-43600000D01*
X140804501Y-43849184D01*
X140804620Y-43850689D01*
X140805002Y-43860418D01*
X140805002Y-44364566D01*
X140804620Y-44374294D01*
X140804500Y-44375811D01*
X140804500Y-44375825D01*
X140804501Y-44625000D01*
X140804501Y-44874184D01*
X140804620Y-44875689D01*
X140805002Y-44885418D01*
X140805002Y-45437844D01*
X140849952Y-45471594D01*
X140891743Y-45527587D01*
X140899500Y-45570755D01*
X140899500Y-45974697D01*
X140902356Y-46010991D01*
X140902357Y-46010997D01*
X140947504Y-46166390D01*
X140947504Y-46166391D01*
X140989190Y-46236880D01*
X141006371Y-46304604D01*
X140989190Y-46363120D01*
X140947504Y-46433608D01*
X140947504Y-46433609D01*
X140902357Y-46589002D01*
X140902356Y-46589008D01*
X140899500Y-46625302D01*
X140899500Y-47094697D01*
X140902356Y-47130991D01*
X140902357Y-47130997D01*
X140947504Y-47286390D01*
X140947505Y-47286393D01*
X141029881Y-47425684D01*
X141029887Y-47425692D01*
X141144307Y-47540112D01*
X141144311Y-47540115D01*
X141144313Y-47540117D01*
X141283605Y-47622494D01*
X141298072Y-47626697D01*
X141439002Y-47667642D01*
X141439005Y-47667642D01*
X141439007Y-47667643D01*
X141475310Y-47670500D01*
X141475318Y-47670500D01*
X141884682Y-47670500D01*
X141884690Y-47670500D01*
X141920993Y-47667643D01*
X141920995Y-47667642D01*
X141920997Y-47667642D01*
X141998210Y-47645209D01*
X142076395Y-47622494D01*
X142096879Y-47610379D01*
X142164601Y-47593196D01*
X142223119Y-47610379D01*
X142243605Y-47622494D01*
X142243607Y-47622494D01*
X142243608Y-47622495D01*
X142399002Y-47667642D01*
X142399005Y-47667642D01*
X142399007Y-47667643D01*
X142435310Y-47670500D01*
X142435318Y-47670500D01*
X142844682Y-47670500D01*
X142844690Y-47670500D01*
X142880993Y-47667643D01*
X142880995Y-47667642D01*
X142880997Y-47667642D01*
X142958210Y-47645209D01*
X143036395Y-47622494D01*
X143175687Y-47540117D01*
X143278251Y-47437552D01*
X143339572Y-47404069D01*
X143365931Y-47401235D01*
X143379579Y-47401235D01*
X143379580Y-47401234D01*
X143534232Y-47370472D01*
X143679914Y-47310129D01*
X143811024Y-47222524D01*
X143922524Y-47111024D01*
X144010129Y-46979914D01*
X144070472Y-46834232D01*
X144101235Y-46679577D01*
X144101235Y-46521893D01*
X144101235Y-46521890D01*
X144082000Y-46425192D01*
X144088227Y-46355600D01*
X144131090Y-46300423D01*
X144196979Y-46277178D01*
X144203617Y-46277000D01*
X144273500Y-46277000D01*
X144340539Y-46296685D01*
X144386294Y-46349489D01*
X144397500Y-46401000D01*
X144397500Y-47055370D01*
X144397501Y-47055376D01*
X144403908Y-47114981D01*
X144416681Y-47149225D01*
X144423752Y-47178971D01*
X144424499Y-47185746D01*
X144424499Y-47289758D01*
X144443980Y-47362463D01*
X144445016Y-47371853D01*
X144440490Y-47397327D01*
X144439875Y-47423197D01*
X144434258Y-47432410D01*
X144432796Y-47440646D01*
X144422388Y-47451885D01*
X144409444Y-47473122D01*
X143569386Y-48313181D01*
X143508063Y-48346666D01*
X143481705Y-48349500D01*
X139836465Y-48349500D01*
X139769426Y-48329815D01*
X139723671Y-48277011D01*
X139714849Y-48249699D01*
X139704464Y-48197506D01*
X139697196Y-48160979D01*
X139633822Y-48008013D01*
X139572489Y-47916237D01*
X139541824Y-47870351D01*
X139424734Y-47753281D01*
X139347256Y-47701523D01*
X139287054Y-47661306D01*
X139287052Y-47661305D01*
X139287049Y-47661303D01*
X139134075Y-47597959D01*
X139134074Y-47597958D01*
X138971680Y-47565678D01*
X138971677Y-47565677D01*
X138888891Y-47565688D01*
X138849282Y-47565688D01*
X138849115Y-47565678D01*
X138820274Y-47565681D01*
X138820212Y-47565663D01*
X138768891Y-47565669D01*
X138686275Y-47565678D01*
X138686114Y-47565679D01*
X138523746Y-47597994D01*
X138523745Y-47597994D01*
X138370808Y-47661358D01*
X138370805Y-47661359D01*
X138268398Y-47729795D01*
X138201722Y-47750677D01*
X138134340Y-47732196D01*
X138087647Y-47680220D01*
X138075501Y-47626697D01*
X138075501Y-46739117D01*
X138075501Y-46729118D01*
X138075502Y-46729116D01*
X138075502Y-46578015D01*
X138095187Y-46510976D01*
X138095193Y-46510970D01*
X138130612Y-46474913D01*
X138135289Y-46471789D01*
X138246789Y-46360289D01*
X138334394Y-46229179D01*
X138394737Y-46083497D01*
X138425500Y-45928842D01*
X138425500Y-45771158D01*
X138425500Y-45771155D01*
X138425499Y-45771153D01*
X138394738Y-45616510D01*
X138394737Y-45616503D01*
X138348680Y-45505310D01*
X138334397Y-45470827D01*
X138334390Y-45470814D01*
X138246789Y-45339711D01*
X138246786Y-45339707D01*
X138220620Y-45313541D01*
X138197286Y-45281103D01*
X138191746Y-45269970D01*
X138184577Y-45243215D01*
X138142006Y-45169480D01*
X138105520Y-45106284D01*
X138105516Y-45106280D01*
X138101125Y-45100557D01*
X138075930Y-45035388D01*
X138075500Y-45025069D01*
X138075500Y-44875000D01*
X139785071Y-44875000D01*
X139787834Y-44910122D01*
X139787835Y-44910128D01*
X139832594Y-45064188D01*
X139832595Y-45064191D01*
X139914263Y-45202285D01*
X139914270Y-45202294D01*
X140027707Y-45315731D01*
X140027716Y-45315738D01*
X140165807Y-45397404D01*
X140305002Y-45437844D01*
X140305002Y-44875000D01*
X139785071Y-44875000D01*
X138075500Y-44875000D01*
X138075500Y-44375000D01*
X139785071Y-44375000D01*
X140305002Y-44375000D01*
X140305002Y-43850000D01*
X139785071Y-43850000D01*
X139787834Y-43885122D01*
X139787835Y-43885128D01*
X139832595Y-44039191D01*
X139832596Y-44039194D01*
X139838620Y-44049380D01*
X139855801Y-44117104D01*
X139838620Y-44175620D01*
X139832596Y-44185805D01*
X139832595Y-44185808D01*
X139787835Y-44339871D01*
X139787834Y-44339877D01*
X139785071Y-44375000D01*
X138075500Y-44375000D01*
X138075500Y-43892925D01*
X138075500Y-43882926D01*
X138075501Y-43882924D01*
X138075501Y-43724809D01*
X138075501Y-42511716D01*
X138095186Y-42444677D01*
X138147990Y-42398922D01*
X138217148Y-42388978D01*
X138280704Y-42418003D01*
X138318478Y-42476781D01*
X138321118Y-42487525D01*
X138330261Y-42533489D01*
X138330264Y-42533501D01*
X138390602Y-42679172D01*
X138390609Y-42679185D01*
X138478210Y-42810288D01*
X138478213Y-42810292D01*
X138589707Y-42921786D01*
X138589711Y-42921789D01*
X138720814Y-43009390D01*
X138720827Y-43009397D01*
X138866498Y-43069735D01*
X138866503Y-43069737D01*
X139021153Y-43100499D01*
X139021156Y-43100500D01*
X139021158Y-43100500D01*
X139178844Y-43100500D01*
X139178845Y-43100499D01*
X139333497Y-43069737D01*
X139479179Y-43009394D01*
X139530463Y-42975127D01*
X139610875Y-42921398D01*
X139628921Y-42915747D01*
X139644831Y-42905523D01*
X139675792Y-42901071D01*
X139677553Y-42900520D01*
X139679766Y-42900500D01*
X139713331Y-42900500D01*
X139713347Y-42900501D01*
X139769146Y-42900501D01*
X139836185Y-42920186D01*
X139881940Y-42972990D01*
X139891884Y-43042148D01*
X139875878Y-43087622D01*
X139832595Y-43160808D01*
X139832594Y-43160811D01*
X139787835Y-43314871D01*
X139787834Y-43314877D01*
X139785071Y-43350000D01*
X140305002Y-43350000D01*
X140305002Y-42767928D01*
X140295852Y-42755669D01*
X140290966Y-42685971D01*
X140324412Y-42624822D01*
X140631612Y-42317622D01*
X140684694Y-42286230D01*
X140766395Y-42262494D01*
X140786879Y-42250379D01*
X140799764Y-42247109D01*
X140810675Y-42239512D01*
X140832971Y-42238684D01*
X140854601Y-42233196D01*
X140868766Y-42237355D01*
G37*
%TD.AperFunction*%
%TA.AperFunction,Conductor*%
G36*
X149839766Y-42397267D02*
G01*
X149848605Y-42402494D01*
X149848608Y-42402494D01*
X149848610Y-42402496D01*
X150004002Y-42447642D01*
X150004005Y-42447642D01*
X150004007Y-42447643D01*
X150040310Y-42450500D01*
X150040318Y-42450500D01*
X150151000Y-42450500D01*
X150159685Y-42453050D01*
X150168647Y-42451762D01*
X150192687Y-42462740D01*
X150218039Y-42470185D01*
X150223966Y-42477025D01*
X150232203Y-42480787D01*
X150246492Y-42503021D01*
X150263794Y-42522989D01*
X150266081Y-42533503D01*
X150269977Y-42539565D01*
X150275000Y-42574500D01*
X150275000Y-42756000D01*
X150255315Y-42823039D01*
X150202511Y-42868794D01*
X150151000Y-42880000D01*
X149949440Y-42880000D01*
X149882401Y-42860315D01*
X149836646Y-42807511D01*
X149833258Y-42799333D01*
X149826297Y-42780670D01*
X149826293Y-42780663D01*
X149740047Y-42665454D01*
X149740044Y-42665451D01*
X149656976Y-42603266D01*
X149638586Y-42578700D01*
X149618493Y-42555511D01*
X149617842Y-42550989D01*
X149615105Y-42547332D01*
X149612916Y-42516725D01*
X149608549Y-42486353D01*
X149610446Y-42482197D01*
X149610121Y-42477641D01*
X149624824Y-42450713D01*
X149637574Y-42422797D01*
X149641418Y-42420326D01*
X149643607Y-42416318D01*
X149670533Y-42401615D01*
X149696352Y-42385023D01*
X149702554Y-42384131D01*
X149704930Y-42382834D01*
X149731287Y-42380000D01*
X149776648Y-42380000D01*
X149839766Y-42397267D01*
G37*
%TD.AperFunction*%
%TA.AperFunction,Conductor*%
G36*
X149388614Y-41163582D02*
G01*
X149438829Y-41193280D01*
X149486511Y-41244350D01*
X149499014Y-41313092D01*
X149494783Y-41334605D01*
X149467356Y-41429008D01*
X149464500Y-41465302D01*
X149464500Y-41465310D01*
X149464500Y-41874690D01*
X149465647Y-41889270D01*
X149451285Y-41957646D01*
X149402235Y-42007404D01*
X149342030Y-42023000D01*
X149103100Y-42023000D01*
X149103100Y-42398499D01*
X149100549Y-42407184D01*
X149101838Y-42416146D01*
X149090859Y-42440186D01*
X149083415Y-42465538D01*
X149076574Y-42471465D01*
X149072813Y-42479702D01*
X149050578Y-42493991D01*
X149030611Y-42511293D01*
X149020096Y-42513580D01*
X149014035Y-42517476D01*
X148979100Y-42522499D01*
X148973100Y-42522499D01*
X148906061Y-42502814D01*
X148860306Y-42450010D01*
X148849100Y-42398499D01*
X148849100Y-42023000D01*
X148776499Y-42023000D01*
X148709460Y-42003315D01*
X148663705Y-41950511D01*
X148652499Y-41899000D01*
X148652499Y-41369499D01*
X148672184Y-41302460D01*
X148724988Y-41256705D01*
X148776499Y-41245499D01*
X149014169Y-41245499D01*
X149014181Y-41245499D01*
X149050205Y-41242665D01*
X149204394Y-41197869D01*
X149262371Y-41163581D01*
X149330093Y-41146398D01*
X149388614Y-41163582D01*
G37*
%TD.AperFunction*%
%TA.AperFunction,Conductor*%
G36*
X144704926Y-38723621D02*
G01*
X144754332Y-38773026D01*
X144769500Y-38832454D01*
X144769500Y-39400830D01*
X144769500Y-39445000D01*
X144769500Y-39504309D01*
X144800201Y-39618886D01*
X144859511Y-39721613D01*
X144859513Y-39721615D01*
X144909519Y-39771621D01*
X144943004Y-39832944D01*
X144938020Y-39902636D01*
X144928571Y-39922422D01*
X144912967Y-39948806D01*
X144912966Y-39948809D01*
X144867855Y-40104081D01*
X144867854Y-40104087D01*
X144866209Y-40124999D01*
X144866210Y-40125000D01*
X145521000Y-40125000D01*
X145588039Y-40144685D01*
X145633794Y-40197489D01*
X145645000Y-40249000D01*
X145645000Y-40501000D01*
X145625315Y-40568039D01*
X145572511Y-40613794D01*
X145521000Y-40625000D01*
X144866210Y-40625000D01*
X144867854Y-40645911D01*
X144868289Y-40647406D01*
X144868286Y-40648277D01*
X144868993Y-40652146D01*
X144868275Y-40652277D01*
X144868090Y-40717275D01*
X144830149Y-40775946D01*
X144792547Y-40798184D01*
X144655911Y-40849146D01*
X144655906Y-40849149D01*
X144540812Y-40935309D01*
X144494959Y-40996560D01*
X144493172Y-40997897D01*
X144492321Y-40999959D01*
X144465339Y-41018732D01*
X144439024Y-41038431D01*
X144436798Y-41038590D01*
X144434968Y-41039864D01*
X144402131Y-41041068D01*
X144369333Y-41043414D01*
X144366675Y-41042369D01*
X144365145Y-41042426D01*
X144358019Y-41038968D01*
X144332524Y-41028952D01*
X144321896Y-41022660D01*
X144318716Y-41019480D01*
X144230789Y-40968716D01*
X144230211Y-40968382D01*
X144230170Y-40968358D01*
X144195894Y-40948569D01*
X144181785Y-40940423D01*
X144029057Y-40899499D01*
X144029054Y-40899499D01*
X143969594Y-40899499D01*
X143902555Y-40879814D01*
X143881917Y-40863184D01*
X143827598Y-40808865D01*
X143809537Y-40798184D01*
X143689393Y-40727131D01*
X143689388Y-40727129D01*
X143535208Y-40682335D01*
X143535202Y-40682334D01*
X143499188Y-40679500D01*
X143224500Y-40679500D01*
X143157461Y-40659815D01*
X143111706Y-40607011D01*
X143100500Y-40555500D01*
X143100500Y-40521155D01*
X143100499Y-40521153D01*
X143091041Y-40473605D01*
X143069737Y-40366503D01*
X143060936Y-40345256D01*
X143009397Y-40220827D01*
X143009395Y-40220823D01*
X143009394Y-40220821D01*
X142974241Y-40168211D01*
X142957657Y-40143391D01*
X142936779Y-40076714D01*
X142955263Y-40009334D01*
X143007242Y-39962643D01*
X143060759Y-39950500D01*
X143078844Y-39950500D01*
X143078845Y-39950499D01*
X143233497Y-39919737D01*
X143379179Y-39859394D01*
X143510289Y-39771789D01*
X143621789Y-39660289D01*
X143709394Y-39529179D01*
X143769737Y-39383497D01*
X143800500Y-39228842D01*
X143800500Y-39228839D01*
X143800637Y-39228151D01*
X143809401Y-39211394D01*
X143813422Y-39192914D01*
X143832162Y-39167881D01*
X143833021Y-39166240D01*
X143834532Y-39164702D01*
X143861332Y-39137901D01*
X143887418Y-39111817D01*
X143948741Y-39078333D01*
X143975098Y-39075499D01*
X144122871Y-39075499D01*
X144122872Y-39075499D01*
X144182483Y-39069091D01*
X144317331Y-39018796D01*
X144432546Y-38932546D01*
X144518796Y-38817331D01*
X144529318Y-38789121D01*
X144571189Y-38733187D01*
X144636653Y-38708770D01*
X144704926Y-38723621D01*
G37*
%TD.AperFunction*%
%TD*%
M02*
