%TF.GenerationSoftware,KiCad,Pcbnew,9.0.4*%
%TF.CreationDate,2025-09-15T17:34:50-04:00*%
%TF.ProjectId,usb-hub,7573622d-6875-4622-9e6b-696361645f70,rev?*%
%TF.SameCoordinates,Original*%
%TF.FileFunction,Soldermask,Top*%
%TF.FilePolarity,Negative*%
%FSLAX46Y46*%
G04 Gerber Fmt 4.6, Leading zero omitted, Abs format (unit mm)*
G04 Created by KiCad (PCBNEW 9.0.4) date 2025-09-15 17:34:50*
%MOMM*%
%LPD*%
G01*
G04 APERTURE LIST*
G04 Aperture macros list*
%AMRoundRect*
0 Rectangle with rounded corners*
0 $1 Rounding radius*
0 $2 $3 $4 $5 $6 $7 $8 $9 X,Y pos of 4 corners*
0 Add a 4 corners polygon primitive as box body*
4,1,4,$2,$3,$4,$5,$6,$7,$8,$9,$2,$3,0*
0 Add four circle primitives for the rounded corners*
1,1,$1+$1,$2,$3*
1,1,$1+$1,$4,$5*
1,1,$1+$1,$6,$7*
1,1,$1+$1,$8,$9*
0 Add four rect primitives between the rounded corners*
20,1,$1+$1,$2,$3,$4,$5,0*
20,1,$1+$1,$4,$5,$6,$7,0*
20,1,$1+$1,$6,$7,$8,$9,0*
20,1,$1+$1,$8,$9,$2,$3,0*%
G04 Aperture macros list end*
%ADD10RoundRect,0.135000X-0.135000X-0.185000X0.135000X-0.185000X0.135000X0.185000X-0.135000X0.185000X0*%
%ADD11RoundRect,0.135000X0.135000X0.185000X-0.135000X0.185000X-0.135000X-0.185000X0.135000X-0.185000X0*%
%ADD12C,1.000000*%
%ADD13RoundRect,0.140000X0.170000X-0.140000X0.170000X0.140000X-0.170000X0.140000X-0.170000X-0.140000X0*%
%ADD14RoundRect,0.140000X-0.140000X-0.170000X0.140000X-0.170000X0.140000X0.170000X-0.140000X0.170000X0*%
%ADD15RoundRect,0.140000X0.140000X0.170000X-0.140000X0.170000X-0.140000X-0.170000X0.140000X-0.170000X0*%
%ADD16R,0.254000X0.812800*%
%ADD17R,0.812800X0.254000*%
%ADD18R,3.606800X3.606800*%
%ADD19R,0.800000X0.300000*%
%ADD20R,0.800000X0.400000*%
%ADD21RoundRect,0.250000X0.350000X-0.650000X0.350000X0.650000X-0.350000X0.650000X-0.350000X-0.650000X0*%
%ADD22RoundRect,0.140000X-0.170000X0.140000X-0.170000X-0.140000X0.170000X-0.140000X0.170000X0.140000X0*%
G04 APERTURE END LIST*
D10*
%TO.C,R5*%
X140555002Y-43600000D03*
X141575000Y-43600000D03*
%TD*%
D11*
%TO.C,R4*%
X141575000Y-44625000D03*
X140555002Y-44625000D03*
%TD*%
D12*
%TO.C,J3*%
X150300000Y-50750000D03*
X151800000Y-50750000D03*
X153300000Y-50750000D03*
X154800000Y-50750000D03*
%TD*%
D10*
%TO.C,R2*%
X148815001Y-40425000D03*
X149834999Y-40425000D03*
%TD*%
D13*
%TO.C,C4*%
X150275000Y-42630000D03*
X150275000Y-41670000D03*
%TD*%
D14*
%TO.C,C5*%
X141680000Y-45740000D03*
X142640000Y-45740000D03*
%TD*%
D10*
%TO.C,R1*%
X149840001Y-46925000D03*
X150859999Y-46925000D03*
%TD*%
D15*
%TO.C,C1*%
X146605000Y-40375000D03*
X145645000Y-40375000D03*
%TD*%
%TO.C,C7*%
X141330000Y-41500000D03*
X140370000Y-41500000D03*
%TD*%
D11*
%TO.C,R3*%
X142925000Y-42591667D03*
X141905002Y-42591667D03*
%TD*%
D16*
%TO.C,U1*%
X145025000Y-46601100D03*
X145524999Y-46601100D03*
X146025001Y-46601100D03*
X146525000Y-46601099D03*
X147024999Y-46601100D03*
X147525001Y-46601100D03*
X148025000Y-46601100D03*
D17*
X148976100Y-45650000D03*
X148976100Y-45150001D03*
X148976100Y-44649999D03*
X148976099Y-44150000D03*
X148976100Y-43650001D03*
X148976100Y-43149999D03*
X148976100Y-42650000D03*
D16*
X148025000Y-41698900D03*
X147525001Y-41698900D03*
X147024999Y-41698900D03*
X146525000Y-41698901D03*
X146025001Y-41698900D03*
X145524999Y-41698900D03*
X145025000Y-41698900D03*
D17*
X144073900Y-42650000D03*
X144073900Y-43149999D03*
X144073900Y-43650001D03*
X144073901Y-44150000D03*
X144073900Y-44649999D03*
X144073900Y-45150001D03*
X144073900Y-45650000D03*
D18*
X146525000Y-44150000D03*
%TD*%
D15*
%TO.C,C9*%
X155130000Y-48300000D03*
X154170000Y-48300000D03*
%TD*%
D10*
%TO.C,R6*%
X142280002Y-41500000D03*
X143300000Y-41500000D03*
%TD*%
D19*
%TO.C,J2*%
X143675000Y-33925000D03*
X143675000Y-34425001D03*
X143675000Y-34925000D03*
X143675000Y-35424999D03*
X143675000Y-35925000D03*
X143675000Y-36425000D03*
X143675000Y-36925001D03*
X143675000Y-37425000D03*
X143675000Y-37924999D03*
X143675000Y-38425000D03*
D20*
X141175001Y-32700000D03*
X141175001Y-39650000D03*
%TD*%
D21*
%TO.C,Y1*%
X154952501Y-46602500D03*
X154952501Y-42602500D03*
X152552499Y-42602500D03*
X152552499Y-46602500D03*
%TD*%
D22*
%TO.C,C2*%
X147180000Y-47970000D03*
X147180000Y-48930000D03*
%TD*%
D14*
%TO.C,C8*%
X147950000Y-50820000D03*
X148910000Y-50820000D03*
%TD*%
%TO.C,C6*%
X141680000Y-46860000D03*
X142640000Y-46860000D03*
%TD*%
D10*
%TO.C,R7*%
X151750002Y-40950000D03*
X152770000Y-40950000D03*
%TD*%
D15*
%TO.C,C10*%
X154665001Y-40900000D03*
X153705001Y-40900000D03*
%TD*%
D14*
%TO.C,C3*%
X150200000Y-45370000D03*
X151160000Y-45370000D03*
%TD*%
M02*
