%TF.GenerationSoftware,KiCad,Pcbnew,9.0.4*%
%TF.CreationDate,2025-09-14T17:04:40-04:00*%
%TF.ProjectId,usb-hub,7573622d-6875-4622-9e6b-696361645f70,rev?*%
%TF.SameCoordinates,Original*%
%TF.FileFunction,Copper,L2,Bot*%
%TF.FilePolarity,Positive*%
%FSLAX46Y46*%
G04 Gerber Fmt 4.6, Leading zero omitted, Abs format (unit mm)*
G04 Created by KiCad (PCBNEW 9.0.4) date 2025-09-14 17:04:40*
%MOMM*%
%LPD*%
G01*
G04 APERTURE LIST*
G04 Aperture macros list*
%AMFreePoly0*
4,1,5,0.150000,-1.250000,-0.150000,-1.250000,-0.150000,1.250000,0.150000,1.250000,0.150000,-1.250000,0.150000,-1.250000,$1*%
G04 Aperture macros list end*
%TA.AperFunction,ConnectorPad*%
%ADD10FreePoly0,270.000000*%
%TD*%
%TA.AperFunction,ViaPad*%
%ADD11C,0.600000*%
%TD*%
%TA.AperFunction,Conductor*%
%ADD12C,0.200000*%
%TD*%
%TA.AperFunction,Conductor*%
%ADD13C,0.165100*%
%TD*%
G04 APERTURE END LIST*
D10*
%TO.P,J1,1,Pin_1*%
%TO.N,VBUS*%
X148245000Y-32822500D03*
%TO.P,J1,2,Pin_2*%
%TO.N,USB_HOST_N*%
X148245000Y-33322500D03*
%TO.P,J1,3,Pin_3*%
%TO.N,USB_HOST_P*%
X148245000Y-33822500D03*
%TO.P,J1,4,Pin_4*%
%TO.N,GND*%
X148245000Y-34322500D03*
%TO.P,J1,5,Pin_5*%
%TO.N,EC_CTRL*%
X148245000Y-34822500D03*
%TO.P,J1,6,Pin_6*%
%TO.N,SWITCH*%
X148245000Y-35322500D03*
%TO.P,J1,7,Pin_7*%
%TO.N,RGB_W*%
X148245000Y-35822500D03*
%TO.P,J1,8,Pin_8*%
%TO.N,RGB_G*%
X148245000Y-36322500D03*
%TO.P,J1,9,Pin_9*%
%TO.N,RGB_R*%
X148245000Y-36822500D03*
%TO.P,J1,10,Pin_10*%
%TO.N,LED_COM*%
X148245000Y-37322500D03*
%TD*%
D11*
%TO.N,EC_CTRL*%
X139855252Y-38461477D03*
%TO.N,RGB_W*%
X141139479Y-38498755D03*
%TO.N,RGB_G*%
X142092244Y-38019938D03*
%TO.N,VBUS*%
X143050000Y-46850000D03*
X148450000Y-50325000D03*
X144700000Y-32975000D03*
%TO.N,USB_HOST_P*%
X137625000Y-45850000D03*
X136825000Y-46850000D03*
X138175521Y-39575521D03*
%TO.N,USB_HOST_N*%
X137574479Y-38974479D03*
%TO.N,RGB_R*%
X142100000Y-38900000D03*
%TO.N,SWITCH*%
X140483530Y-38956724D03*
%TO.N,GND*%
X146541500Y-45166000D03*
X155175000Y-49700000D03*
X153425000Y-45775000D03*
X148350000Y-51125000D03*
X145509000Y-44150000D03*
X145509000Y-43134000D03*
X153975000Y-43725000D03*
X147541000Y-44150000D03*
X138450000Y-36725000D03*
X151000000Y-40850000D03*
X137700000Y-34550000D03*
X147000000Y-48800000D03*
X145509000Y-45166000D03*
X146100000Y-34375840D03*
X141175000Y-41375000D03*
X146508500Y-44150000D03*
X141775000Y-45725000D03*
X146550000Y-40445000D03*
X146541500Y-43134000D03*
X141425000Y-40350000D03*
X151625000Y-43300000D03*
X147541000Y-45166000D03*
X147541000Y-43134000D03*
%TO.N,LED_COM*%
X143000000Y-39150000D03*
%TO.N,VREG*%
X148900000Y-41425000D03*
X141200000Y-42600000D03*
X149050000Y-40450000D03*
X144125000Y-46500000D03*
X144725000Y-40450000D03*
X150200000Y-45875000D03*
X148900000Y-42150000D03*
X148234416Y-48696116D03*
X140525000Y-42725000D03*
%TO.N,USB_FNG_P*%
X141736765Y-35025001D03*
X140101689Y-34275000D03*
%TD*%
D12*
%TO.N,EC_CTRL*%
X142457200Y-36452000D02*
X141583299Y-36452000D01*
X146503283Y-34822500D02*
X146208683Y-35117100D01*
X139855252Y-38461477D02*
X139855252Y-38180047D01*
X148245000Y-34822500D02*
X146503283Y-34822500D01*
X143792100Y-35117100D02*
X142457200Y-36452000D01*
X139855252Y-38180047D02*
X141583299Y-36452000D01*
X146208683Y-35117100D02*
X143792100Y-35117100D01*
%TO.N,RGB_W*%
X142008239Y-37254000D02*
X141139479Y-38122760D01*
X144125000Y-35919100D02*
X142790100Y-37254000D01*
X146823000Y-35919100D02*
X144125000Y-35919100D01*
X141139479Y-38122760D02*
X141139479Y-38498755D01*
X148245000Y-35822500D02*
X146919600Y-35822500D01*
X142790100Y-37254000D02*
X142008239Y-37254000D01*
X146919600Y-35822500D02*
X146823000Y-35919100D01*
D13*
%TO.N,RGB_G*%
X142092244Y-38019938D02*
X142566584Y-38019938D01*
X142566584Y-38019938D02*
X144264022Y-36322500D01*
X144264022Y-36322500D02*
X148245000Y-36322500D01*
D12*
%TO.N,VBUS*%
X143050000Y-49050000D02*
X142500000Y-49600000D01*
X148245000Y-32822500D02*
X144852500Y-32822500D01*
X136924000Y-33451000D02*
X135475000Y-34900000D01*
X147725000Y-49600000D02*
X148450000Y-50325000D01*
X144700000Y-32975000D02*
X144224000Y-33451000D01*
X142500000Y-49600000D02*
X147725000Y-49600000D01*
X135475000Y-34900000D02*
X135475000Y-47225000D01*
X144224000Y-33451000D02*
X136924000Y-33451000D01*
X135475000Y-47225000D02*
X137850000Y-49600000D01*
X143000000Y-46800000D02*
X143050000Y-46850000D01*
X144852500Y-32822500D02*
X144700000Y-32975000D01*
X137850000Y-49600000D02*
X142500000Y-49600000D01*
X143050000Y-46850000D02*
X143050000Y-49050000D01*
%TO.N,USB_HOST_P*%
X144733493Y-34358550D02*
X145317203Y-33774840D01*
X143983550Y-34358550D02*
X144733493Y-34358550D01*
X145317203Y-33774840D02*
X148197340Y-33774840D01*
X141417199Y-36051000D02*
X138175521Y-39292678D01*
X138175521Y-39292678D02*
X138175521Y-39575521D01*
X137475000Y-46000000D02*
X137625000Y-45850000D01*
X137475000Y-46000000D02*
X136825000Y-46650000D01*
X142291100Y-36051000D02*
X141417199Y-36051000D01*
X148197340Y-33774840D02*
X148245000Y-33822500D01*
X136825000Y-46650000D02*
X136825000Y-46850000D01*
X143983550Y-34358550D02*
X142291100Y-36051000D01*
%TO.N,USB_HOST_N*%
X142125000Y-35650000D02*
X143923000Y-33852000D01*
X144672943Y-33852000D02*
X145202443Y-33322500D01*
X137857322Y-38974479D02*
X141181801Y-35650000D01*
X145202443Y-33322500D02*
X148245000Y-33322500D01*
X143923000Y-33852000D02*
X144672943Y-33852000D01*
X141181801Y-35650000D02*
X142125000Y-35650000D01*
X137574479Y-38974479D02*
X137857322Y-38974479D01*
%TO.N,RGB_R*%
X148245000Y-36822500D02*
X144306444Y-36822500D01*
X144306444Y-36822500D02*
X142228944Y-38900000D01*
X142228944Y-38900000D02*
X142100000Y-38900000D01*
%TO.N,SWITCH*%
X146656900Y-35518100D02*
X146852500Y-35322500D01*
X143958200Y-35518100D02*
X146656900Y-35518100D01*
X140483530Y-38118869D02*
X141749399Y-36853000D01*
X142623300Y-36853000D02*
X143958200Y-35518100D01*
X146852500Y-35322500D02*
X148245000Y-35322500D01*
X140483530Y-38956724D02*
X140483530Y-38118869D01*
X141749399Y-36853000D02*
X142623300Y-36853000D01*
%TO.N,GND*%
X146153340Y-34322500D02*
X148245000Y-34322500D01*
X138450000Y-35300000D02*
X137700000Y-34550000D01*
X151625000Y-43300000D02*
X149200057Y-43300000D01*
X146100000Y-34375840D02*
X146153340Y-34322500D01*
X153975000Y-43725000D02*
X153975000Y-45225000D01*
X138450000Y-36725000D02*
X138450000Y-35300000D01*
X153975000Y-45225000D02*
X153425000Y-45775000D01*
X149200057Y-43300000D02*
X146550000Y-40649943D01*
X146550000Y-40649943D02*
X146550000Y-40445000D01*
%TO.N,LED_COM*%
X148245000Y-37322500D02*
X144827500Y-37322500D01*
X144827500Y-37322500D02*
X143000000Y-39150000D01*
%TO.N,VREG*%
X148900000Y-40600000D02*
X149050000Y-40450000D01*
X146038300Y-46500000D02*
X144125000Y-46500000D01*
X148900000Y-42150000D02*
X151800000Y-42150000D01*
X141200000Y-42600000D02*
X140650000Y-42600000D01*
X148900000Y-41775000D02*
X148900000Y-42150000D01*
X148900000Y-41425000D02*
X148900000Y-40600000D01*
X151800000Y-42150000D02*
X152850000Y-43200000D01*
X148234416Y-48696116D02*
X146038300Y-46500000D01*
X144725000Y-40450000D02*
X142575000Y-42600000D01*
X142575000Y-42600000D02*
X141200000Y-42600000D01*
X152850000Y-43200000D02*
X152850000Y-43225000D01*
X140650000Y-42600000D02*
X140525000Y-42725000D01*
X148234416Y-48696116D02*
X150200000Y-46730532D01*
X148900000Y-41775000D02*
X148900000Y-41425000D01*
X150200000Y-46730532D02*
X150200000Y-45875000D01*
X152850000Y-43225000D02*
X150200000Y-45875000D01*
%TO.N,USB_FNG_P*%
X141736765Y-35025001D02*
X140986764Y-34275000D01*
X140986764Y-34275000D02*
X140101689Y-34275000D01*
%TD*%
%TA.AperFunction,Conductor*%
%TO.N,GND*%
G36*
X144062969Y-32267265D02*
G01*
X144108739Y-32320056D01*
X144118702Y-32389212D01*
X144089695Y-32452776D01*
X144083645Y-32459276D01*
X144078210Y-32464711D01*
X143990609Y-32595814D01*
X143990602Y-32595827D01*
X143930264Y-32741498D01*
X143930263Y-32741502D01*
X143928436Y-32750690D01*
X143896051Y-32812602D01*
X143835335Y-32847176D01*
X143806818Y-32850500D01*
X136844940Y-32850500D01*
X136804019Y-32861464D01*
X136804019Y-32861465D01*
X136766751Y-32871451D01*
X136692214Y-32891423D01*
X136692209Y-32891426D01*
X136555290Y-32970475D01*
X136555282Y-32970481D01*
X134994479Y-34531284D01*
X134966366Y-34579978D01*
X134954484Y-34600560D01*
X134915423Y-34668215D01*
X134874499Y-34820943D01*
X134874499Y-34820945D01*
X134874499Y-34989046D01*
X134874500Y-34989059D01*
X134874500Y-47138330D01*
X134874499Y-47138348D01*
X134874499Y-47304054D01*
X134874498Y-47304054D01*
X134915423Y-47456785D01*
X134924086Y-47471789D01*
X134924087Y-47471792D01*
X134994475Y-47593709D01*
X134994481Y-47593717D01*
X135113349Y-47712585D01*
X135113355Y-47712590D01*
X137365139Y-49964374D01*
X137365149Y-49964385D01*
X137369479Y-49968715D01*
X137369480Y-49968716D01*
X137481284Y-50080520D01*
X137568095Y-50130639D01*
X137568097Y-50130641D01*
X137618213Y-50159576D01*
X137618215Y-50159577D01*
X137770942Y-50200500D01*
X137770943Y-50200500D01*
X137770944Y-50200500D01*
X142420939Y-50200500D01*
X142420943Y-50200501D01*
X142579057Y-50200501D01*
X142579061Y-50200500D01*
X147424903Y-50200500D01*
X147491942Y-50220185D01*
X147512584Y-50236819D01*
X147615425Y-50339660D01*
X147648910Y-50400983D01*
X147649361Y-50403149D01*
X147680261Y-50558491D01*
X147680264Y-50558501D01*
X147740602Y-50704172D01*
X147740609Y-50704185D01*
X147828210Y-50835288D01*
X147828213Y-50835292D01*
X147939707Y-50946786D01*
X147939711Y-50946789D01*
X148070814Y-51034390D01*
X148070827Y-51034397D01*
X148216498Y-51094735D01*
X148216503Y-51094737D01*
X148371153Y-51125499D01*
X148371156Y-51125500D01*
X148371158Y-51125500D01*
X148528844Y-51125500D01*
X148528845Y-51125499D01*
X148683497Y-51094737D01*
X148829179Y-51034394D01*
X148960289Y-50946789D01*
X149071789Y-50835289D01*
X149159394Y-50704179D01*
X149219737Y-50558497D01*
X149250500Y-50403842D01*
X149250500Y-50246158D01*
X149250500Y-50246155D01*
X149250499Y-50246153D01*
X149233278Y-50159577D01*
X149219737Y-50091503D01*
X149215188Y-50080520D01*
X149159397Y-49945827D01*
X149159390Y-49945814D01*
X149071789Y-49814711D01*
X149071786Y-49814707D01*
X148960292Y-49703213D01*
X148960288Y-49703210D01*
X148829185Y-49615609D01*
X148829175Y-49615604D01*
X148716320Y-49568858D01*
X148661917Y-49525017D01*
X148639852Y-49458723D01*
X148657131Y-49391023D01*
X148694883Y-49351194D01*
X148744705Y-49317905D01*
X148856205Y-49206405D01*
X148943810Y-49075295D01*
X149004153Y-48929613D01*
X149034916Y-48774958D01*
X149035054Y-48774266D01*
X149067439Y-48712355D01*
X149068933Y-48710833D01*
X150680520Y-47099248D01*
X150759577Y-46962316D01*
X150800501Y-46809589D01*
X150800501Y-46651474D01*
X150800501Y-46643879D01*
X150800500Y-46643861D01*
X150800500Y-46454765D01*
X150820185Y-46387726D01*
X150821398Y-46385874D01*
X150909390Y-46254185D01*
X150909390Y-46254184D01*
X150909394Y-46254179D01*
X150969737Y-46108497D01*
X150993366Y-45989707D01*
X151000638Y-45953150D01*
X151033023Y-45891239D01*
X151034519Y-45889715D01*
X153208506Y-43715727D01*
X153208511Y-43715724D01*
X153218714Y-43705520D01*
X153218716Y-43705520D01*
X153330520Y-43593716D01*
X153387665Y-43494737D01*
X153409577Y-43456785D01*
X153450501Y-43304057D01*
X153450501Y-43145943D01*
X153450501Y-43138348D01*
X153450500Y-43138330D01*
X153450500Y-43120943D01*
X153447647Y-43110293D01*
X153409576Y-42968213D01*
X153399349Y-42950499D01*
X153374885Y-42908127D01*
X153330520Y-42831284D01*
X153218716Y-42719480D01*
X153218715Y-42719479D01*
X153214385Y-42715149D01*
X153214374Y-42715139D01*
X152287590Y-41788355D01*
X152287588Y-41788352D01*
X152168717Y-41669481D01*
X152168709Y-41669475D01*
X152073911Y-41614744D01*
X152073909Y-41614743D01*
X152031790Y-41590425D01*
X152031789Y-41590424D01*
X152019263Y-41587067D01*
X151879057Y-41549499D01*
X151720943Y-41549499D01*
X151713347Y-41549499D01*
X151713331Y-41549500D01*
X149824500Y-41549500D01*
X149757461Y-41529815D01*
X149711706Y-41477011D01*
X149700500Y-41425500D01*
X149700500Y-41346155D01*
X149700499Y-41346153D01*
X149675353Y-41219737D01*
X149669737Y-41191503D01*
X149669735Y-41191498D01*
X149634324Y-41106006D01*
X149626855Y-41036536D01*
X149658131Y-40974057D01*
X149661183Y-40970894D01*
X149671789Y-40960289D01*
X149759394Y-40829179D01*
X149819737Y-40683497D01*
X149850500Y-40528842D01*
X149850500Y-40371158D01*
X149850500Y-40371155D01*
X149850499Y-40371153D01*
X149845348Y-40345256D01*
X149819737Y-40216503D01*
X149765603Y-40085810D01*
X149757792Y-40066952D01*
X149750323Y-39997483D01*
X149781598Y-39935004D01*
X149841688Y-39899352D01*
X149872353Y-39895500D01*
X155635500Y-39895500D01*
X155702539Y-39915185D01*
X155748294Y-39967989D01*
X155759500Y-40019500D01*
X155759500Y-51635500D01*
X155739815Y-51702539D01*
X155687011Y-51748294D01*
X155635500Y-51759500D01*
X133999500Y-51759500D01*
X133932461Y-51739815D01*
X133886706Y-51687011D01*
X133875500Y-51635500D01*
X133875500Y-32374394D01*
X133895185Y-32307355D01*
X133947989Y-32261600D01*
X133999463Y-32250394D01*
X143995924Y-32247599D01*
X144062969Y-32267265D01*
G37*
%TD.AperFunction*%
%TA.AperFunction,Conductor*%
G36*
X139245908Y-34071185D02*
G01*
X139291663Y-34123989D01*
X139301159Y-34190033D01*
X139301786Y-34190095D01*
X139301534Y-34192645D01*
X139301607Y-34193147D01*
X139301321Y-34194816D01*
X139301189Y-34196157D01*
X139301189Y-34353846D01*
X139331950Y-34508489D01*
X139331953Y-34508501D01*
X139392291Y-34654172D01*
X139392298Y-34654185D01*
X139479899Y-34785288D01*
X139479902Y-34785292D01*
X139591396Y-34896786D01*
X139591400Y-34896789D01*
X139722503Y-34984390D01*
X139722516Y-34984397D01*
X139848069Y-35036402D01*
X139868192Y-35044737D01*
X139996343Y-35070228D01*
X140022842Y-35075499D01*
X140022845Y-35075500D01*
X140022847Y-35075500D01*
X140180533Y-35075500D01*
X140180534Y-35075499D01*
X140335186Y-35044737D01*
X140480868Y-34984394D01*
X140498669Y-34972500D01*
X140612564Y-34896398D01*
X140630610Y-34890747D01*
X140646520Y-34880523D01*
X140677481Y-34876071D01*
X140679242Y-34875520D01*
X140681455Y-34875500D01*
X140686667Y-34875500D01*
X140753706Y-34895185D01*
X140774348Y-34911819D01*
X140837608Y-34975079D01*
X140871093Y-35036402D01*
X140866109Y-35106094D01*
X140824237Y-35162027D01*
X140813974Y-35168797D01*
X140813083Y-35169481D01*
X140701279Y-35281286D01*
X137829692Y-38152872D01*
X137768369Y-38186357D01*
X137717820Y-38186808D01*
X137653325Y-38173979D01*
X137653321Y-38173979D01*
X137495637Y-38173979D01*
X137495634Y-38173979D01*
X137340989Y-38204740D01*
X137340977Y-38204743D01*
X137195306Y-38265081D01*
X137195293Y-38265088D01*
X137064190Y-38352689D01*
X137064186Y-38352692D01*
X136952692Y-38464186D01*
X136952689Y-38464190D01*
X136865088Y-38595293D01*
X136865081Y-38595306D01*
X136804743Y-38740977D01*
X136804740Y-38740989D01*
X136773979Y-38895632D01*
X136773979Y-39053325D01*
X136804740Y-39207968D01*
X136804743Y-39207980D01*
X136865081Y-39353651D01*
X136865088Y-39353664D01*
X136952689Y-39484767D01*
X136952692Y-39484771D01*
X137064186Y-39596265D01*
X137064190Y-39596268D01*
X137195293Y-39683869D01*
X137195306Y-39683876D01*
X137339350Y-39743540D01*
X137393754Y-39787380D01*
X137406459Y-39810649D01*
X137466123Y-39954693D01*
X137466130Y-39954706D01*
X137553731Y-40085809D01*
X137553734Y-40085813D01*
X137665228Y-40197307D01*
X137665232Y-40197310D01*
X137796335Y-40284911D01*
X137796348Y-40284918D01*
X137942019Y-40345256D01*
X137942024Y-40345258D01*
X138075710Y-40371850D01*
X138096674Y-40376020D01*
X138096677Y-40376021D01*
X138096679Y-40376021D01*
X138254365Y-40376021D01*
X138254366Y-40376020D01*
X138409018Y-40345258D01*
X138554700Y-40284915D01*
X138685810Y-40197310D01*
X138797310Y-40085810D01*
X138884915Y-39954700D01*
X138945258Y-39809018D01*
X138976021Y-39654363D01*
X138976021Y-39496679D01*
X138976021Y-39496676D01*
X138963191Y-39432178D01*
X138969418Y-39362586D01*
X138997125Y-39320307D01*
X139206589Y-39110843D01*
X139267910Y-39077360D01*
X139337602Y-39082344D01*
X139363157Y-39095423D01*
X139476073Y-39170871D01*
X139476075Y-39170872D01*
X139476079Y-39170874D01*
X139543343Y-39198735D01*
X139621755Y-39231214D01*
X139675556Y-39241915D01*
X139737464Y-39274299D01*
X139765923Y-39316078D01*
X139774131Y-39335894D01*
X139774139Y-39335909D01*
X139861740Y-39467012D01*
X139861743Y-39467016D01*
X139973237Y-39578510D01*
X139973241Y-39578513D01*
X140104344Y-39666114D01*
X140104357Y-39666121D01*
X140250028Y-39726459D01*
X140250033Y-39726461D01*
X140404683Y-39757223D01*
X140404686Y-39757224D01*
X140404688Y-39757224D01*
X140562374Y-39757224D01*
X140562375Y-39757223D01*
X140717027Y-39726461D01*
X140844448Y-39673682D01*
X140862702Y-39666121D01*
X140862702Y-39666120D01*
X140862709Y-39666118D01*
X140993819Y-39578513D01*
X141105319Y-39467013D01*
X141143221Y-39410289D01*
X141188737Y-39342170D01*
X141212277Y-39322496D01*
X141234363Y-39301185D01*
X141240270Y-39299100D01*
X141242349Y-39297364D01*
X141267640Y-39289444D01*
X141300973Y-39282814D01*
X141370562Y-39289041D01*
X141425740Y-39331903D01*
X141428265Y-39335540D01*
X141478210Y-39410288D01*
X141478213Y-39410292D01*
X141589707Y-39521786D01*
X141589711Y-39521789D01*
X141720814Y-39609390D01*
X141720827Y-39609397D01*
X141857756Y-39666114D01*
X141866503Y-39669737D01*
X142021153Y-39700499D01*
X142021156Y-39700500D01*
X142021158Y-39700500D01*
X142178844Y-39700500D01*
X142178845Y-39700499D01*
X142215803Y-39693147D01*
X142313667Y-39673682D01*
X142383258Y-39679909D01*
X142425539Y-39707618D01*
X142489707Y-39771786D01*
X142489711Y-39771789D01*
X142620814Y-39859390D01*
X142620827Y-39859397D01*
X142755513Y-39915185D01*
X142766503Y-39919737D01*
X142921153Y-39950499D01*
X142921156Y-39950500D01*
X142921158Y-39950500D01*
X143078844Y-39950500D01*
X143078845Y-39950499D01*
X143233497Y-39919737D01*
X143379179Y-39859394D01*
X143510289Y-39771789D01*
X143621789Y-39660289D01*
X143709394Y-39529179D01*
X143769737Y-39383497D01*
X143793542Y-39263823D01*
X143800638Y-39228150D01*
X143833023Y-39166239D01*
X143834520Y-39164714D01*
X144557819Y-38441414D01*
X144619142Y-38407930D01*
X144688834Y-38412914D01*
X144744767Y-38454786D01*
X144769184Y-38520250D01*
X144769500Y-38529096D01*
X144769500Y-39504308D01*
X144770159Y-39509314D01*
X144759394Y-39578349D01*
X144713014Y-39630605D01*
X144652137Y-39648087D01*
X144652218Y-39648903D01*
X144647775Y-39649340D01*
X144647220Y-39649500D01*
X144646155Y-39649500D01*
X144491510Y-39680261D01*
X144491498Y-39680264D01*
X144345827Y-39740602D01*
X144345814Y-39740609D01*
X144214711Y-39828210D01*
X144214707Y-39828213D01*
X144103213Y-39939707D01*
X144103210Y-39939711D01*
X144015609Y-40070814D01*
X144015602Y-40070827D01*
X143955264Y-40216498D01*
X143955261Y-40216508D01*
X143924361Y-40371850D01*
X143891976Y-40433761D01*
X143890425Y-40435339D01*
X142362584Y-41963181D01*
X142301261Y-41996666D01*
X142274903Y-41999500D01*
X141779766Y-41999500D01*
X141712727Y-41979815D01*
X141710875Y-41978602D01*
X141579185Y-41890609D01*
X141579172Y-41890602D01*
X141433501Y-41830264D01*
X141433489Y-41830261D01*
X141278845Y-41799500D01*
X141278842Y-41799500D01*
X141121158Y-41799500D01*
X141121155Y-41799500D01*
X140966510Y-41830261D01*
X140966498Y-41830264D01*
X140820828Y-41890602D01*
X140820819Y-41890607D01*
X140774660Y-41921449D01*
X140707982Y-41942325D01*
X140681581Y-41939963D01*
X140603842Y-41924500D01*
X140446158Y-41924500D01*
X140446155Y-41924500D01*
X140291510Y-41955261D01*
X140291498Y-41955264D01*
X140145827Y-42015602D01*
X140145814Y-42015609D01*
X140014711Y-42103210D01*
X140014707Y-42103213D01*
X139903213Y-42214707D01*
X139903210Y-42214711D01*
X139815609Y-42345814D01*
X139815602Y-42345827D01*
X139755264Y-42491498D01*
X139755261Y-42491510D01*
X139724500Y-42646153D01*
X139724500Y-42803846D01*
X139755261Y-42958489D01*
X139755264Y-42958501D01*
X139815602Y-43104172D01*
X139815609Y-43104185D01*
X139903210Y-43235288D01*
X139903213Y-43235292D01*
X140014707Y-43346786D01*
X140014711Y-43346789D01*
X140145814Y-43434390D01*
X140145827Y-43434397D01*
X140291496Y-43494734D01*
X140291503Y-43494737D01*
X140446153Y-43525499D01*
X140446156Y-43525500D01*
X140446158Y-43525500D01*
X140603844Y-43525500D01*
X140603845Y-43525499D01*
X140758497Y-43494737D01*
X140904179Y-43434394D01*
X140950338Y-43403550D01*
X141017011Y-43382673D01*
X141043413Y-43385035D01*
X141104737Y-43397233D01*
X141121157Y-43400500D01*
X141121158Y-43400500D01*
X141278844Y-43400500D01*
X141278845Y-43400499D01*
X141433497Y-43369737D01*
X141579179Y-43309394D01*
X141592967Y-43300181D01*
X141710875Y-43221398D01*
X141777553Y-43200520D01*
X141779766Y-43200500D01*
X142488331Y-43200500D01*
X142488347Y-43200501D01*
X142495943Y-43200501D01*
X142654054Y-43200501D01*
X142654057Y-43200501D01*
X142806785Y-43159577D01*
X142856904Y-43130639D01*
X142943716Y-43080520D01*
X143055520Y-42968716D01*
X143055520Y-42968714D01*
X143065728Y-42958507D01*
X143065729Y-42958504D01*
X144739662Y-41284572D01*
X144800983Y-41251089D01*
X144803150Y-41250638D01*
X144861085Y-41239113D01*
X144958497Y-41219737D01*
X145104179Y-41159394D01*
X145235289Y-41071789D01*
X145346789Y-40960289D01*
X145434394Y-40829179D01*
X145494737Y-40683497D01*
X145525500Y-40528842D01*
X145525500Y-40371158D01*
X145525500Y-40371155D01*
X145525499Y-40371153D01*
X145520348Y-40345256D01*
X145494737Y-40216503D01*
X145440603Y-40085810D01*
X145432792Y-40066952D01*
X145425323Y-39997483D01*
X145456598Y-39935004D01*
X145516688Y-39899352D01*
X145547353Y-39895500D01*
X148227647Y-39895500D01*
X148294686Y-39915185D01*
X148340441Y-39967989D01*
X148350385Y-40037147D01*
X148342208Y-40066952D01*
X148280264Y-40216498D01*
X148280261Y-40216510D01*
X148249500Y-40371153D01*
X148249500Y-40528846D01*
X148280261Y-40683489D01*
X148280263Y-40683497D01*
X148290061Y-40707151D01*
X148291687Y-40715328D01*
X148294477Y-40719669D01*
X148299500Y-40754604D01*
X148299500Y-40845234D01*
X148279815Y-40912273D01*
X148278602Y-40914125D01*
X148190609Y-41045814D01*
X148190602Y-41045827D01*
X148130264Y-41191498D01*
X148130261Y-41191510D01*
X148099500Y-41346153D01*
X148099500Y-41503846D01*
X148130260Y-41658488D01*
X148130263Y-41658498D01*
X148164042Y-41740048D01*
X148171511Y-41809517D01*
X148164042Y-41834952D01*
X148130263Y-41916501D01*
X148130260Y-41916511D01*
X148099500Y-42071153D01*
X148099500Y-42228846D01*
X148130261Y-42383489D01*
X148130264Y-42383501D01*
X148190602Y-42529172D01*
X148190609Y-42529185D01*
X148278210Y-42660288D01*
X148278213Y-42660292D01*
X148389707Y-42771786D01*
X148389711Y-42771789D01*
X148520814Y-42859390D01*
X148520827Y-42859397D01*
X148638476Y-42908128D01*
X148666503Y-42919737D01*
X148821153Y-42950499D01*
X148821156Y-42950500D01*
X148821158Y-42950500D01*
X148978844Y-42950500D01*
X148978845Y-42950499D01*
X149133497Y-42919737D01*
X149279179Y-42859394D01*
X149321249Y-42831284D01*
X149410875Y-42771398D01*
X149477553Y-42750520D01*
X149479766Y-42750500D01*
X151499903Y-42750500D01*
X151566942Y-42770185D01*
X151587584Y-42786819D01*
X151925584Y-43124819D01*
X151959069Y-43186142D01*
X151954085Y-43255834D01*
X151925584Y-43300181D01*
X150185339Y-45040425D01*
X150124016Y-45073910D01*
X150121850Y-45074361D01*
X149966508Y-45105261D01*
X149966498Y-45105264D01*
X149820827Y-45165602D01*
X149820814Y-45165609D01*
X149689711Y-45253210D01*
X149689707Y-45253213D01*
X149578213Y-45364707D01*
X149578210Y-45364711D01*
X149490609Y-45495814D01*
X149490602Y-45495827D01*
X149430264Y-45641498D01*
X149430261Y-45641510D01*
X149399500Y-45796153D01*
X149399500Y-45953846D01*
X149430261Y-46108489D01*
X149430264Y-46108501D01*
X149490602Y-46254172D01*
X149490609Y-46254184D01*
X149568856Y-46371288D01*
X149589734Y-46437965D01*
X149571250Y-46505345D01*
X149553435Y-46527860D01*
X148322096Y-47759199D01*
X148260773Y-47792684D01*
X148191081Y-47787700D01*
X148146734Y-47759199D01*
X146525890Y-46138355D01*
X146525888Y-46138352D01*
X146407017Y-46019481D01*
X146407016Y-46019480D01*
X146320204Y-45969360D01*
X146320204Y-45969359D01*
X146320200Y-45969358D01*
X146270085Y-45940423D01*
X146117357Y-45899499D01*
X145959243Y-45899499D01*
X145951647Y-45899499D01*
X145951631Y-45899500D01*
X144704766Y-45899500D01*
X144637727Y-45879815D01*
X144635875Y-45878602D01*
X144504185Y-45790609D01*
X144504172Y-45790602D01*
X144358501Y-45730264D01*
X144358489Y-45730261D01*
X144203845Y-45699500D01*
X144203842Y-45699500D01*
X144046158Y-45699500D01*
X144046155Y-45699500D01*
X143891510Y-45730261D01*
X143891498Y-45730264D01*
X143745827Y-45790602D01*
X143745814Y-45790609D01*
X143614711Y-45878210D01*
X143614707Y-45878213D01*
X143503213Y-45989707D01*
X143464730Y-46047301D01*
X143411117Y-46092105D01*
X143341792Y-46100812D01*
X143314178Y-46092971D01*
X143283497Y-46080263D01*
X143283488Y-46080260D01*
X143128845Y-46049500D01*
X143128842Y-46049500D01*
X142971158Y-46049500D01*
X142971155Y-46049500D01*
X142816510Y-46080261D01*
X142816498Y-46080264D01*
X142670827Y-46140602D01*
X142670814Y-46140609D01*
X142539711Y-46228210D01*
X142539707Y-46228213D01*
X142428213Y-46339707D01*
X142428210Y-46339711D01*
X142340609Y-46470814D01*
X142340602Y-46470827D01*
X142280264Y-46616498D01*
X142280261Y-46616510D01*
X142249500Y-46771153D01*
X142249500Y-46928846D01*
X142280261Y-47083489D01*
X142280264Y-47083501D01*
X142340602Y-47229172D01*
X142340609Y-47229185D01*
X142428602Y-47360874D01*
X142449480Y-47427551D01*
X142449500Y-47429765D01*
X142449500Y-48749903D01*
X142440855Y-48779343D01*
X142434332Y-48809330D01*
X142430577Y-48814345D01*
X142429815Y-48816942D01*
X142413181Y-48837584D01*
X142287584Y-48963181D01*
X142226261Y-48996666D01*
X142199903Y-48999500D01*
X138150097Y-48999500D01*
X138083058Y-48979815D01*
X138062416Y-48963181D01*
X136939342Y-47840107D01*
X136905857Y-47778784D01*
X136910841Y-47709092D01*
X136952713Y-47653159D01*
X137002829Y-47630810D01*
X137058497Y-47619737D01*
X137204179Y-47559394D01*
X137335289Y-47471789D01*
X137446789Y-47360289D01*
X137534394Y-47229179D01*
X137594737Y-47083497D01*
X137625500Y-46928842D01*
X137625500Y-46771158D01*
X137625500Y-46767847D01*
X137645185Y-46700808D01*
X137697989Y-46655053D01*
X137725309Y-46646230D01*
X137741291Y-46643050D01*
X137858497Y-46619737D01*
X138004179Y-46559394D01*
X138135289Y-46471789D01*
X138246789Y-46360289D01*
X138334394Y-46229179D01*
X138394737Y-46083497D01*
X138425500Y-45928842D01*
X138425500Y-45771158D01*
X138425500Y-45771155D01*
X138425499Y-45771153D01*
X138394738Y-45616510D01*
X138394738Y-45616508D01*
X138394737Y-45616503D01*
X138344752Y-45495827D01*
X138334397Y-45470827D01*
X138334390Y-45470814D01*
X138246789Y-45339711D01*
X138246786Y-45339707D01*
X138135292Y-45228213D01*
X138135288Y-45228210D01*
X138004185Y-45140609D01*
X138004172Y-45140602D01*
X137858501Y-45080264D01*
X137858489Y-45080261D01*
X137703845Y-45049500D01*
X137703842Y-45049500D01*
X137546158Y-45049500D01*
X137546155Y-45049500D01*
X137391510Y-45080261D01*
X137391498Y-45080264D01*
X137245827Y-45140602D01*
X137245814Y-45140609D01*
X137114711Y-45228210D01*
X137114707Y-45228213D01*
X137003213Y-45339707D01*
X137003210Y-45339711D01*
X136915609Y-45470814D01*
X136915602Y-45470827D01*
X136855264Y-45616498D01*
X136855261Y-45616508D01*
X136824361Y-45771850D01*
X136791976Y-45833761D01*
X136790425Y-45835339D01*
X136530415Y-46095348D01*
X136490188Y-46122227D01*
X136445829Y-46140601D01*
X136445814Y-46140609D01*
X136314711Y-46228210D01*
X136314707Y-46228213D01*
X136287181Y-46255740D01*
X136225858Y-46289225D01*
X136156166Y-46284241D01*
X136100233Y-46242369D01*
X136075816Y-46176905D01*
X136075500Y-46168059D01*
X136075500Y-35200097D01*
X136095185Y-35133058D01*
X136111819Y-35112416D01*
X137136416Y-34087819D01*
X137197739Y-34054334D01*
X137224097Y-34051500D01*
X139178869Y-34051500D01*
X139245908Y-34071185D01*
G37*
%TD.AperFunction*%
%TA.AperFunction,Conductor*%
G36*
X145805242Y-47120185D02*
G01*
X145825884Y-47136819D01*
X147399841Y-48710776D01*
X147408903Y-48727372D01*
X147422035Y-48740981D01*
X147432442Y-48770480D01*
X147433326Y-48772099D01*
X147433777Y-48774264D01*
X147449103Y-48851307D01*
X147442876Y-48920899D01*
X147400014Y-48976077D01*
X147334125Y-48999322D01*
X147327486Y-48999500D01*
X143774500Y-48999500D01*
X143707461Y-48979815D01*
X143661706Y-48927011D01*
X143650500Y-48875500D01*
X143650500Y-47429765D01*
X143670185Y-47362726D01*
X143671398Y-47360875D01*
X143710269Y-47302700D01*
X143763881Y-47257894D01*
X143833206Y-47249187D01*
X143860820Y-47257028D01*
X143891503Y-47269737D01*
X144046153Y-47300499D01*
X144046156Y-47300500D01*
X144046158Y-47300500D01*
X144203844Y-47300500D01*
X144203845Y-47300499D01*
X144358497Y-47269737D01*
X144504179Y-47209394D01*
X144504185Y-47209390D01*
X144635875Y-47121398D01*
X144702553Y-47100520D01*
X144704766Y-47100500D01*
X145738203Y-47100500D01*
X145805242Y-47120185D01*
G37*
%TD.AperFunction*%
%TD*%
M02*
