M48
; DRILL file {KiCad 9.0.4} date 2025-09-14T17:04:40-0400
; FORMAT={-:-/ absolute / inch / decimal}
; #@! TF.CreationDate,2025-09-14T17:04:40-04:00
; #@! TF.GenerationSoftware,Kicad,Pcbnew,9.0.4
; #@! TF.FileFunction,Plated,1,2,PTH
FMAT,2
INCH
; #@! TA.AperFunction,Plated,PTH,ViaDrill
T1C0.0118
%
G90
G05
T1
X5.3868Y-1.8445
X5.4163Y-1.5344
X5.4183Y-1.8051
X5.4213Y-1.3602
X5.44Y-1.5581
X5.4508Y-1.4459
X5.5061Y-1.5142
X5.5158Y-1.3494
X5.5308Y-1.5337
X5.5325Y-1.6821
X5.5567Y-1.5157
X5.5581Y-1.6289
X5.5591Y-1.6772
X5.5679Y-1.5886
X5.5802Y-1.3789
X5.5817Y-1.8002
X5.5942Y-1.4968
X5.5945Y-1.5315
X5.6299Y-1.5413
X5.6319Y-1.8445
X5.6742Y-1.8307
X5.6969Y-1.2982
X5.6978Y-1.5925
X5.7287Y-1.6982
X5.7287Y-1.7382
X5.7287Y-1.7782
X5.752Y-1.3534
X5.7681Y-1.7382
X5.7694Y-1.6982
X5.7694Y-1.7782
X5.7697Y-1.5923
X5.7874Y-1.9213
X5.8087Y-1.6982
X5.8087Y-1.7382
X5.8087Y-1.7782
X5.836Y-1.9172
X5.8406Y-2.0128
X5.8445Y-1.9813
X5.8622Y-1.6309
X5.8622Y-1.6594
X5.8681Y-1.5925
X5.9134Y-1.8061
X5.9449Y-1.6083
X5.9695Y-1.7047
X6.0404Y-1.8022
X6.062Y-1.7215
X6.1093Y-1.9567
M30
