%TF.GenerationSoftware,KiCad,Pcbnew,9.0.4*%
%TF.CreationDate,2025-09-14T17:04:40-04:00*%
%TF.ProjectId,usb-hub,7573622d-6875-4622-9e6b-696361645f70,rev?*%
%TF.SameCoordinates,Original*%
%TF.FileFunction,Legend,Top*%
%TF.FilePolarity,Positive*%
%FSLAX46Y46*%
G04 Gerber Fmt 4.6, Leading zero omitted, Abs format (unit mm)*
G04 Created by KiCad (PCBNEW 9.0.4) date 2025-09-14 17:04:40*
%MOMM*%
%LPD*%
G01*
G04 APERTURE LIST*
G04 Aperture macros list*
%AMRoundRect*
0 Rectangle with rounded corners*
0 $1 Rounding radius*
0 $2 $3 $4 $5 $6 $7 $8 $9 X,Y pos of 4 corners*
0 Add a 4 corners polygon primitive as box body*
4,1,4,$2,$3,$4,$5,$6,$7,$8,$9,$2,$3,0*
0 Add four circle primitives for the rounded corners*
1,1,$1+$1,$2,$3*
1,1,$1+$1,$4,$5*
1,1,$1+$1,$6,$7*
1,1,$1+$1,$8,$9*
0 Add four rect primitives between the rounded corners*
20,1,$1+$1,$2,$3,$4,$5,0*
20,1,$1+$1,$4,$5,$6,$7,0*
20,1,$1+$1,$6,$7,$8,$9,0*
20,1,$1+$1,$8,$9,$2,$3,0*%
G04 Aperture macros list end*
%ADD10C,0.050000*%
%ADD11C,0.080000*%
%ADD12C,0.100000*%
%ADD13C,0.120000*%
%ADD14C,0.152400*%
%ADD15C,0.000000*%
%ADD16C,0.200000*%
%ADD17RoundRect,0.135000X-0.135000X-0.185000X0.135000X-0.185000X0.135000X0.185000X-0.135000X0.185000X0*%
%ADD18RoundRect,0.135000X0.135000X0.185000X-0.135000X0.185000X-0.135000X-0.185000X0.135000X-0.185000X0*%
%ADD19C,1.000000*%
%ADD20RoundRect,0.075000X0.075000X-0.125000X0.075000X0.125000X-0.075000X0.125000X-0.075000X-0.125000X0*%
%ADD21RoundRect,0.075000X-0.125000X-0.075000X0.125000X-0.075000X0.125000X0.075000X-0.125000X0.075000X0*%
%ADD22RoundRect,0.075000X0.125000X0.075000X-0.125000X0.075000X-0.125000X-0.075000X0.125000X-0.075000X0*%
%ADD23R,0.254000X0.812800*%
%ADD24R,0.812800X0.254000*%
%ADD25R,3.606800X3.606800*%
%ADD26R,0.800000X0.300000*%
%ADD27R,0.800000X0.400000*%
%ADD28RoundRect,0.250000X0.350000X-0.650000X0.350000X0.650000X-0.350000X0.650000X-0.350000X-0.650000X0*%
%ADD29RoundRect,0.075000X-0.075000X0.125000X-0.075000X-0.125000X0.075000X-0.125000X0.075000X0.125000X0*%
%ADD30RoundRect,0.135000X0.185000X-0.135000X0.185000X0.135000X-0.185000X0.135000X-0.185000X-0.135000X0*%
G04 APERTURE END LIST*
D10*
X140010000Y-32002500D02*
X140010000Y-52010000D01*
D11*
X153627935Y-50036892D02*
X152827935Y-50036892D01*
X152827935Y-50036892D02*
X152827935Y-49846416D01*
X152827935Y-49846416D02*
X152866030Y-49732130D01*
X152866030Y-49732130D02*
X152942220Y-49655940D01*
X152942220Y-49655940D02*
X153018411Y-49617845D01*
X153018411Y-49617845D02*
X153170792Y-49579749D01*
X153170792Y-49579749D02*
X153285078Y-49579749D01*
X153285078Y-49579749D02*
X153437459Y-49617845D01*
X153437459Y-49617845D02*
X153513649Y-49655940D01*
X153513649Y-49655940D02*
X153589840Y-49732130D01*
X153589840Y-49732130D02*
X153627935Y-49846416D01*
X153627935Y-49846416D02*
X153627935Y-50036892D01*
X153323173Y-49236892D02*
X153323173Y-48627369D01*
X153627935Y-48932130D02*
X153018411Y-48932130D01*
X152127935Y-50036892D02*
X151327935Y-50036892D01*
X151327935Y-50036892D02*
X151327935Y-49846416D01*
X151327935Y-49846416D02*
X151366030Y-49732130D01*
X151366030Y-49732130D02*
X151442220Y-49655940D01*
X151442220Y-49655940D02*
X151518411Y-49617845D01*
X151518411Y-49617845D02*
X151670792Y-49579749D01*
X151670792Y-49579749D02*
X151785078Y-49579749D01*
X151785078Y-49579749D02*
X151937459Y-49617845D01*
X151937459Y-49617845D02*
X152013649Y-49655940D01*
X152013649Y-49655940D02*
X152089840Y-49732130D01*
X152089840Y-49732130D02*
X152127935Y-49846416D01*
X152127935Y-49846416D02*
X152127935Y-50036892D01*
X151823173Y-49236892D02*
X151823173Y-48627369D01*
X149827935Y-49655940D02*
X149827935Y-50036892D01*
X149827935Y-50036892D02*
X150208887Y-50074988D01*
X150208887Y-50074988D02*
X150170792Y-50036892D01*
X150170792Y-50036892D02*
X150132697Y-49960702D01*
X150132697Y-49960702D02*
X150132697Y-49770226D01*
X150132697Y-49770226D02*
X150170792Y-49694035D01*
X150170792Y-49694035D02*
X150208887Y-49655940D01*
X150208887Y-49655940D02*
X150285078Y-49617845D01*
X150285078Y-49617845D02*
X150475554Y-49617845D01*
X150475554Y-49617845D02*
X150551744Y-49655940D01*
X150551744Y-49655940D02*
X150589840Y-49694035D01*
X150589840Y-49694035D02*
X150627935Y-49770226D01*
X150627935Y-49770226D02*
X150627935Y-49960702D01*
X150627935Y-49960702D02*
X150589840Y-50036892D01*
X150589840Y-50036892D02*
X150551744Y-50074988D01*
X149827935Y-49389273D02*
X150627935Y-49122606D01*
X150627935Y-49122606D02*
X149827935Y-48855940D01*
X154366030Y-49617845D02*
X154327935Y-49694035D01*
X154327935Y-49694035D02*
X154327935Y-49808321D01*
X154327935Y-49808321D02*
X154366030Y-49922607D01*
X154366030Y-49922607D02*
X154442220Y-49998797D01*
X154442220Y-49998797D02*
X154518411Y-50036892D01*
X154518411Y-50036892D02*
X154670792Y-50074988D01*
X154670792Y-50074988D02*
X154785078Y-50074988D01*
X154785078Y-50074988D02*
X154937459Y-50036892D01*
X154937459Y-50036892D02*
X155013649Y-49998797D01*
X155013649Y-49998797D02*
X155089840Y-49922607D01*
X155089840Y-49922607D02*
X155127935Y-49808321D01*
X155127935Y-49808321D02*
X155127935Y-49732130D01*
X155127935Y-49732130D02*
X155089840Y-49617845D01*
X155089840Y-49617845D02*
X155051744Y-49579749D01*
X155051744Y-49579749D02*
X154785078Y-49579749D01*
X154785078Y-49579749D02*
X154785078Y-49732130D01*
X155127935Y-49236892D02*
X154327935Y-49236892D01*
X154327935Y-49236892D02*
X155127935Y-48779749D01*
X155127935Y-48779749D02*
X154327935Y-48779749D01*
X155127935Y-48398797D02*
X154327935Y-48398797D01*
X154327935Y-48398797D02*
X154327935Y-48208321D01*
X154327935Y-48208321D02*
X154366030Y-48094035D01*
X154366030Y-48094035D02*
X154442220Y-48017845D01*
X154442220Y-48017845D02*
X154518411Y-47979750D01*
X154518411Y-47979750D02*
X154670792Y-47941654D01*
X154670792Y-47941654D02*
X154785078Y-47941654D01*
X154785078Y-47941654D02*
X154937459Y-47979750D01*
X154937459Y-47979750D02*
X155013649Y-48017845D01*
X155013649Y-48017845D02*
X155089840Y-48094035D01*
X155089840Y-48094035D02*
X155127935Y-48208321D01*
X155127935Y-48208321D02*
X155127935Y-48398797D01*
D12*
%TO.C,J1*%
X146520000Y-32172500D02*
X146545000Y-32247500D01*
X146620000Y-32322500D01*
X146720000Y-32347500D01*
X147470000Y-32347500D01*
X147570000Y-32322500D01*
X147620000Y-32272500D01*
X147670000Y-32197500D01*
X147670000Y-31997500D01*
X149370000Y-31997500D01*
X149445000Y-32047500D01*
X149495000Y-32097500D01*
X149520000Y-32197500D01*
X149520000Y-37947500D01*
X149495000Y-38047500D01*
X149420000Y-38122500D01*
X149345000Y-38147500D01*
X147670000Y-38147500D01*
X147670000Y-37997500D01*
X147645000Y-37897500D01*
X147570000Y-37822500D01*
X147495000Y-37797500D01*
X146670000Y-37797500D01*
X146595000Y-37847500D01*
X146545000Y-37897500D01*
X146520000Y-37972500D01*
X146520000Y-38147500D01*
X146020000Y-38147500D01*
X146020000Y-31997500D01*
X146520000Y-31997500D01*
X146520000Y-32172500D01*
G36*
X146520000Y-32172500D02*
G01*
X146545000Y-32247500D01*
X146620000Y-32322500D01*
X146720000Y-32347500D01*
X147470000Y-32347500D01*
X147570000Y-32322500D01*
X147620000Y-32272500D01*
X147670000Y-32197500D01*
X147670000Y-31997500D01*
X149370000Y-31997500D01*
X149445000Y-32047500D01*
X149495000Y-32097500D01*
X149520000Y-32197500D01*
X149520000Y-37947500D01*
X149495000Y-38047500D01*
X149420000Y-38122500D01*
X149345000Y-38147500D01*
X147670000Y-38147500D01*
X147670000Y-37997500D01*
X147645000Y-37897500D01*
X147570000Y-37822500D01*
X147495000Y-37797500D01*
X146670000Y-37797500D01*
X146595000Y-37847500D01*
X146545000Y-37897500D01*
X146520000Y-37972500D01*
X146520000Y-38147500D01*
X146020000Y-38147500D01*
X146020000Y-31997500D01*
X146520000Y-31997500D01*
X146520000Y-32172500D01*
G37*
D13*
%TO.C,R5*%
X140911360Y-43220000D02*
X141218642Y-43220000D01*
X140911360Y-43980000D02*
X141218642Y-43980000D01*
%TO.C,R4*%
X141218642Y-44245000D02*
X140911360Y-44245000D01*
X141218642Y-45005000D02*
X140911360Y-45005000D01*
%TO.C,R2*%
X147746359Y-40095000D02*
X148053641Y-40095000D01*
X147746359Y-40855000D02*
X148053641Y-40855000D01*
%TO.C,R1*%
X150196359Y-46670000D02*
X150503641Y-46670000D01*
X150196359Y-47430000D02*
X150503641Y-47430000D01*
%TO.C,R3*%
X142568642Y-42211667D02*
X142261360Y-42211667D01*
X142568642Y-42971667D02*
X142261360Y-42971667D01*
D14*
%TO.C,U1*%
X143845300Y-41470300D02*
X143845300Y-42190261D01*
X143845300Y-46109739D02*
X143845300Y-46829700D01*
X143845300Y-46829700D02*
X144565261Y-46829700D01*
X144565261Y-41470300D02*
X143845300Y-41470300D01*
X148484739Y-46829700D02*
X149204700Y-46829700D01*
X149204700Y-41470300D02*
X148484739Y-41470300D01*
X149204700Y-42190261D02*
X149204700Y-41470300D01*
X149204700Y-46829700D02*
X149204700Y-46109739D01*
D15*
G36*
X145715499Y-41038500D02*
G01*
X145334499Y-41038500D01*
X145334499Y-40784500D01*
X145715499Y-40784500D01*
X145715499Y-41038500D01*
G37*
G36*
X149890499Y-44840499D02*
G01*
X149636500Y-44840499D01*
X149636500Y-44459499D01*
X149890500Y-44459499D01*
X149890499Y-44840499D01*
G37*
D13*
%TO.C,R6*%
X142261360Y-41020000D02*
X142568642Y-41020000D01*
X142261360Y-41780000D02*
X142568642Y-41780000D01*
D16*
%TO.C,J2*%
X140175000Y-32490000D02*
X140175000Y-32975000D01*
X140175000Y-32490000D02*
X140175000Y-39860000D01*
X140175000Y-39860000D02*
X140175000Y-39375000D01*
X140575000Y-32490000D02*
X140175000Y-32490000D01*
X140575000Y-39860000D02*
X140175000Y-39860000D01*
X143775000Y-32490000D02*
X141975000Y-32490001D01*
X143775000Y-33175000D02*
X143775000Y-32490000D01*
X143775000Y-39175000D02*
X143775000Y-39860000D01*
X143775000Y-39860000D02*
X141975000Y-39859999D01*
D12*
X144475000Y-33925000D02*
X144475000Y-33925000D01*
X144575000Y-33925000D02*
X144575000Y-33925000D01*
X144475000Y-33925000D02*
G75*
G02*
X144575000Y-33925000I50000J0D01*
G01*
X144575000Y-33925000D02*
G75*
G02*
X144475000Y-33925000I-50000J0D01*
G01*
D13*
%TO.C,Y1*%
X151592500Y-44642500D02*
X151592500Y-42962500D01*
X153112500Y-41042500D02*
X153792500Y-41042500D01*
X153792500Y-46562500D02*
X153112500Y-46562500D01*
X153792500Y-46962500D02*
X153792500Y-46562500D01*
X155312500Y-42962500D02*
X155312500Y-44642500D01*
X155312500Y-44642500D02*
X155812500Y-44642500D01*
%TO.C,R7*%
X150395000Y-43293642D02*
X150395000Y-42986360D01*
X151155000Y-43293642D02*
X151155000Y-42986360D01*
%TD*%
%LPC*%
D17*
%TO.C,R5*%
X140555002Y-43600000D03*
X141575000Y-43600000D03*
%TD*%
D18*
%TO.C,R4*%
X141575000Y-44625000D03*
X140555002Y-44625000D03*
%TD*%
D19*
%TO.C,J3*%
X150300000Y-50750000D03*
X151800000Y-50750000D03*
X153300000Y-50750000D03*
X154800000Y-50750000D03*
%TD*%
D17*
%TO.C,R2*%
X147390001Y-40475000D03*
X148409999Y-40475000D03*
%TD*%
D20*
%TO.C,C4*%
X149625000Y-41650000D03*
X149625000Y-41150000D03*
%TD*%
D21*
%TO.C,C5*%
X142425000Y-45175000D03*
X142925000Y-45175000D03*
%TD*%
D17*
%TO.C,R1*%
X149840001Y-47050000D03*
X150859999Y-47050000D03*
%TD*%
D22*
%TO.C,C1*%
X145975000Y-40425000D03*
X145475000Y-40425000D03*
%TD*%
D20*
%TO.C,C8*%
X145450000Y-34575000D03*
X145450000Y-34075000D03*
%TD*%
D18*
%TO.C,R3*%
X142925000Y-42591667D03*
X141905002Y-42591667D03*
%TD*%
D23*
%TO.C,U1*%
X145025000Y-46601100D03*
X145524999Y-46601100D03*
X146025001Y-46601100D03*
X146525000Y-46601099D03*
X147024999Y-46601100D03*
X147525001Y-46601100D03*
X148025000Y-46601100D03*
D24*
X148976100Y-45650000D03*
X148976100Y-45150001D03*
X148976100Y-44649999D03*
X148976099Y-44150000D03*
X148976100Y-43650001D03*
X148976100Y-43149999D03*
X148976100Y-42650000D03*
D23*
X148025000Y-41698900D03*
X147525001Y-41698900D03*
X147024999Y-41698900D03*
X146525000Y-41698901D03*
X146025001Y-41698900D03*
X145524999Y-41698900D03*
X145025000Y-41698900D03*
D24*
X144073900Y-42650000D03*
X144073900Y-43149999D03*
X144073900Y-43650001D03*
X144073901Y-44150000D03*
X144073900Y-44649999D03*
X144073900Y-45150001D03*
X144073900Y-45650000D03*
D25*
X146525000Y-44150000D03*
%TD*%
D22*
%TO.C,C10*%
X154499999Y-47300000D03*
X153999999Y-47300000D03*
%TD*%
D17*
%TO.C,R6*%
X141905002Y-41400000D03*
X142925000Y-41400000D03*
%TD*%
D26*
%TO.C,J2*%
X143675000Y-33925000D03*
X143675000Y-34425001D03*
X143675000Y-34925000D03*
X143675000Y-35424999D03*
X143675000Y-35925000D03*
X143675000Y-36425000D03*
X143675000Y-36925001D03*
X143675000Y-37425000D03*
X143675000Y-37924999D03*
X143675000Y-38425000D03*
D27*
X141175001Y-32700000D03*
X141175001Y-39650000D03*
%TD*%
D28*
%TO.C,Y1*%
X154652501Y-45802500D03*
X154652501Y-41802500D03*
X152252499Y-41802500D03*
X152252499Y-45802500D03*
%TD*%
D29*
%TO.C,C2*%
X147025000Y-47650000D03*
X147025000Y-48150000D03*
%TD*%
D20*
%TO.C,C9*%
X149150000Y-51149999D03*
X149150000Y-50649999D03*
%TD*%
D21*
%TO.C,C6*%
X141775000Y-46950000D03*
X142275000Y-46950000D03*
%TD*%
D30*
%TO.C,R7*%
X150775000Y-43650000D03*
X150775000Y-42630002D03*
%TD*%
D21*
%TO.C,C11*%
X150300000Y-41800000D03*
X150800000Y-41800000D03*
%TD*%
%TO.C,C3*%
X150150000Y-45150000D03*
X150650000Y-45150000D03*
%TD*%
%LPD*%
M02*
