%TF.GenerationSoftware,KiCad,Pcbnew,9.0.4*%
%TF.CreationDate,2025-09-15T17:34:50-04:00*%
%TF.ProjectId,usb-hub,7573622d-6875-4622-9e6b-696361645f70,rev?*%
%TF.SameCoordinates,Original*%
%TF.FileFunction,Profile,NP*%
%FSLAX46Y46*%
G04 Gerber Fmt 4.6, Leading zero omitted, Abs format (unit mm)*
G04 Created by KiCad (PCBNEW 9.0.4) date 2025-09-15 17:34:50*
%MOMM*%
%LPD*%
G01*
G04 APERTURE LIST*
%TA.AperFunction,Profile*%
%ADD10C,0.050000*%
%TD*%
G04 APERTURE END LIST*
D10*
X133625000Y-32199944D02*
X133625000Y-51810000D01*
X155810000Y-39645000D02*
G75*
G02*
X156010000Y-39845000I0J-200000D01*
G01*
X146020000Y-38147500D02*
X145220000Y-38147500D01*
X155810000Y-39645000D02*
X145220000Y-39645000D01*
X133825000Y-52010000D02*
G75*
G02*
X133625000Y-51810000I0J200000D01*
G01*
X145020000Y-38347500D02*
G75*
G02*
X145220000Y-38147500I200000J0D01*
G01*
X156010000Y-51810000D02*
G75*
G02*
X155810000Y-52010000I-200000J0D01*
G01*
X156010000Y-51810000D02*
X156010000Y-39845000D01*
X133825000Y-52010000D02*
X155810000Y-52010000D01*
X146020000Y-31997500D02*
X133824944Y-31999944D01*
X145020000Y-38347500D02*
X145020000Y-39445000D01*
X145220000Y-39645000D02*
G75*
G02*
X145020000Y-39445000I0J200000D01*
G01*
X133625000Y-32199944D02*
G75*
G02*
X133824944Y-32000000I199900J44D01*
G01*
%TO.C,J1*%
X149320000Y-31997500D02*
X147670000Y-31997500D01*
X147670000Y-31997500D02*
X147670000Y-32147500D01*
X146520000Y-31997500D02*
X146020000Y-31997500D01*
X146520000Y-32147500D02*
X146520000Y-31997500D01*
X147470000Y-32347500D02*
X146720000Y-32347500D01*
X147470000Y-37797500D02*
X146720000Y-37797500D01*
X149520000Y-37947500D02*
X149520000Y-32197500D01*
X146520000Y-37997500D02*
X146520000Y-38147500D01*
X149320000Y-38147500D02*
X147670000Y-38147500D01*
X147670000Y-38147500D02*
X147670000Y-37997500D01*
X146520000Y-38147500D02*
X146020000Y-38147500D01*
X149320000Y-31997500D02*
G75*
G02*
X149520000Y-32197500I-1J-200001D01*
G01*
X147670000Y-32147500D02*
G75*
G02*
X147470000Y-32347500I-200001J1D01*
G01*
X146720000Y-32347500D02*
G75*
G02*
X146520000Y-32147500I1J200001D01*
G01*
X147470000Y-37797500D02*
G75*
G02*
X147670000Y-37997500I0J-200000D01*
G01*
X149520000Y-37947500D02*
G75*
G02*
X149320000Y-38147500I-200000J0D01*
G01*
X146520000Y-37997500D02*
G75*
G02*
X146720000Y-37797500I200000J0D01*
G01*
%TD*%
M02*
