%TF.GenerationSoftware,KiCad,Pcbnew,9.0.4*%
%TF.CreationDate,2025-09-15T17:34:50-04:00*%
%TF.ProjectId,usb-hub,7573622d-6875-4622-9e6b-696361645f70,rev?*%
%TF.SameCoordinates,Original*%
%TF.FileFunction,Copper,L2,Bot*%
%TF.FilePolarity,Positive*%
%FSLAX46Y46*%
G04 Gerber Fmt 4.6, Leading zero omitted, Abs format (unit mm)*
G04 Created by KiCad (PCBNEW 9.0.4) date 2025-09-15 17:34:50*
%MOMM*%
%LPD*%
G01*
G04 APERTURE LIST*
G04 Aperture macros list*
%AMFreePoly0*
4,1,5,0.150000,-1.250000,-0.150000,-1.250000,-0.150000,1.250000,0.150000,1.250000,0.150000,-1.250000,0.150000,-1.250000,$1*%
G04 Aperture macros list end*
%TA.AperFunction,ConnectorPad*%
%ADD10FreePoly0,270.000000*%
%TD*%
%TA.AperFunction,ViaPad*%
%ADD11C,0.600000*%
%TD*%
%TA.AperFunction,Conductor*%
%ADD12C,0.200000*%
%TD*%
%TA.AperFunction,Conductor*%
%ADD13C,0.165100*%
%TD*%
G04 APERTURE END LIST*
D10*
%TO.P,J1,1,Pin_1*%
%TO.N,VBUS*%
X148245000Y-32822500D03*
%TO.P,J1,2,Pin_2*%
%TO.N,USB_HOST_N*%
X148245000Y-33322500D03*
%TO.P,J1,3,Pin_3*%
%TO.N,USB_HOST_P*%
X148245000Y-33822500D03*
%TO.P,J1,4,Pin_4*%
%TO.N,GND*%
X148245000Y-34322500D03*
%TO.P,J1,5,Pin_5*%
%TO.N,EC_CTRL*%
X148245000Y-34822500D03*
%TO.P,J1,6,Pin_6*%
%TO.N,SWITCH*%
X148245000Y-35322500D03*
%TO.P,J1,7,Pin_7*%
%TO.N,RGB_W*%
X148245000Y-35822500D03*
%TO.P,J1,8,Pin_8*%
%TO.N,RGB_G*%
X148245000Y-36322500D03*
%TO.P,J1,9,Pin_9*%
%TO.N,RGB_R*%
X148245000Y-36822500D03*
%TO.P,J1,10,Pin_10*%
%TO.N,LED_COM*%
X148245000Y-37322500D03*
%TD*%
D11*
%TO.N,EC_CTRL*%
X139855252Y-38461477D03*
%TO.N,RGB_W*%
X141139479Y-38498755D03*
%TO.N,RGB_G*%
X142092244Y-38019938D03*
%TO.N,VBUS*%
X148540000Y-50040000D03*
X139800000Y-40150000D03*
X143300735Y-46600735D03*
X139100000Y-42300000D03*
X137000000Y-34975000D03*
%TO.N,USB_HOST_P*%
X137625000Y-45850000D03*
X136825000Y-46850000D03*
X138175521Y-39575521D03*
%TO.N,USB_HOST_N*%
X137574479Y-38974479D03*
%TO.N,RGB_R*%
X142100000Y-38900000D03*
%TO.N,SWITCH*%
X140483530Y-38956724D03*
%TO.N,GND*%
X142300000Y-40600000D03*
X146541500Y-45166000D03*
X155175000Y-49700000D03*
X137700000Y-34500000D03*
X145509000Y-44150000D03*
X145509000Y-43134000D03*
X147541000Y-44150000D03*
X138450000Y-36725000D03*
X145509000Y-45166000D03*
X147550000Y-40250000D03*
X151490000Y-46230000D03*
X153790000Y-42540000D03*
X153725000Y-46700000D03*
X146508500Y-44150000D03*
X146200000Y-50700000D03*
X146541500Y-43134000D03*
X141425000Y-40350000D03*
X142619265Y-44829265D03*
X147541000Y-45166000D03*
X150750000Y-40790000D03*
X145500000Y-34517100D03*
X147541000Y-43134000D03*
X135800000Y-32800000D03*
%TO.N,LED_COM*%
X143000000Y-39150000D03*
%TO.N,VREG*%
X141200000Y-42600000D03*
X144125000Y-46500000D03*
X150050000Y-46100000D03*
X144470000Y-40290000D03*
X149025000Y-41600000D03*
X148140000Y-48760000D03*
%TO.N,USB_FNG_P*%
X141736765Y-35025001D03*
X140101689Y-34275000D03*
%TD*%
D12*
%TO.N,EC_CTRL*%
X139855252Y-38180047D02*
X139855252Y-38461477D01*
X148245000Y-34822500D02*
X146802500Y-34822500D01*
X146507900Y-35117100D02*
X143792100Y-35117100D01*
X141583299Y-36452000D02*
X139855252Y-38180047D01*
X143792100Y-35117100D02*
X142457200Y-36452000D01*
X142457200Y-36452000D02*
X141583299Y-36452000D01*
X146802500Y-34822500D02*
X146507900Y-35117100D01*
%TO.N,RGB_W*%
X142008239Y-37254000D02*
X141139479Y-38122760D01*
X144125000Y-35919100D02*
X142790100Y-37254000D01*
X146823000Y-35919100D02*
X144125000Y-35919100D01*
X141139479Y-38122760D02*
X141139479Y-38498755D01*
X148245000Y-35822500D02*
X146919600Y-35822500D01*
X142790100Y-37254000D02*
X142008239Y-37254000D01*
X146919600Y-35822500D02*
X146823000Y-35919100D01*
D13*
%TO.N,RGB_G*%
X142092244Y-38019938D02*
X142566584Y-38019938D01*
X142566584Y-38019938D02*
X144264022Y-36322500D01*
X144264022Y-36322500D02*
X148245000Y-36322500D01*
D12*
%TO.N,VBUS*%
X136800000Y-35175000D02*
X137000000Y-34975000D01*
X137550000Y-40400000D02*
X136800000Y-39650000D01*
X143300735Y-46600735D02*
X143397997Y-46503473D01*
X143050000Y-49050000D02*
X143050000Y-46851470D01*
X139100000Y-42300000D02*
X138850000Y-42550000D01*
X143050000Y-49050000D02*
X142500000Y-49600000D01*
X139550000Y-40400000D02*
X137950000Y-40400000D01*
X139800000Y-40150000D02*
X139550000Y-40400000D01*
X142500000Y-49600000D02*
X148100000Y-49600000D01*
X137950000Y-40400000D02*
X137550000Y-40400000D01*
X136849000Y-33451000D02*
X144224000Y-33451000D01*
X135475000Y-47225000D02*
X135475000Y-41300000D01*
X136800000Y-39650000D02*
X136800000Y-35175000D01*
X148245000Y-32822500D02*
X144852500Y-32822500D01*
X135475000Y-47225000D02*
X137850000Y-49600000D01*
X144852500Y-32822500D02*
X144224000Y-33451000D01*
X143050000Y-46851470D02*
X143300735Y-46600735D01*
X148100000Y-49600000D02*
X148540000Y-50040000D01*
X135475000Y-34825000D02*
X136700000Y-33600000D01*
X137850000Y-49600000D02*
X142500000Y-49600000D01*
X135475000Y-41300000D02*
X135475000Y-34825000D01*
X143397997Y-46503473D02*
X143397997Y-46500000D01*
X136725000Y-42550000D02*
X135475000Y-41300000D01*
X136700000Y-33600000D02*
X136849000Y-33451000D01*
X138850000Y-42550000D02*
X136725000Y-42550000D01*
%TO.N,USB_HOST_P*%
X144733493Y-34358550D02*
X145317203Y-33774840D01*
X143983550Y-34358550D02*
X144733493Y-34358550D01*
X145317203Y-33774840D02*
X148197340Y-33774840D01*
X141417199Y-36051000D02*
X138175521Y-39292678D01*
X138175521Y-39292678D02*
X138175521Y-39575521D01*
X137475000Y-46000000D02*
X137625000Y-45850000D01*
X137475000Y-46000000D02*
X136825000Y-46650000D01*
X142291100Y-36051000D02*
X141417199Y-36051000D01*
X148197340Y-33774840D02*
X148245000Y-33822500D01*
X136825000Y-46650000D02*
X136825000Y-46850000D01*
X143983550Y-34358550D02*
X142291100Y-36051000D01*
%TO.N,USB_HOST_N*%
X142125000Y-35650000D02*
X143923000Y-33852000D01*
X144672943Y-33852000D02*
X145202443Y-33322500D01*
X137857322Y-38974479D02*
X141181801Y-35650000D01*
X145202443Y-33322500D02*
X148245000Y-33322500D01*
X143923000Y-33852000D02*
X144672943Y-33852000D01*
X141181801Y-35650000D02*
X142125000Y-35650000D01*
X137574479Y-38974479D02*
X137857322Y-38974479D01*
%TO.N,RGB_R*%
X148245000Y-36822500D02*
X144306444Y-36822500D01*
X144306444Y-36822500D02*
X142228944Y-38900000D01*
X142228944Y-38900000D02*
X142100000Y-38900000D01*
%TO.N,SWITCH*%
X146656900Y-35518100D02*
X146852500Y-35322500D01*
X143958200Y-35518100D02*
X146656900Y-35518100D01*
X140483530Y-38118869D02*
X141749399Y-36853000D01*
X142623300Y-36853000D02*
X143958200Y-35518100D01*
X146852500Y-35322500D02*
X148245000Y-35322500D01*
X140483530Y-38956724D02*
X140483530Y-38118869D01*
X141749399Y-36853000D02*
X142623300Y-36853000D01*
%TO.N,GND*%
X146455341Y-34322500D02*
X146260741Y-34517100D01*
X151490000Y-46230000D02*
X151960000Y-46700000D01*
X137700000Y-34550000D02*
X138450000Y-35300000D01*
X138450000Y-36725000D02*
X138450000Y-35300000D01*
X137700000Y-34500000D02*
X137700000Y-34550000D01*
X146260741Y-34517100D02*
X145500000Y-34517100D01*
X148245000Y-34322500D02*
X146455341Y-34322500D01*
X151960000Y-46700000D02*
X153725000Y-46700000D01*
%TO.N,LED_COM*%
X148245000Y-37322500D02*
X144827500Y-37322500D01*
X144827500Y-37322500D02*
X143000000Y-39150000D01*
%TO.N,VREG*%
X144470000Y-40290000D02*
X144070000Y-40290000D01*
X149025000Y-45075000D02*
X150050000Y-46100000D01*
X149650000Y-46500000D02*
X150050000Y-46100000D01*
X144125000Y-46500000D02*
X149650000Y-46500000D01*
X141680000Y-42600000D02*
X141200000Y-42600000D01*
X148140000Y-48010000D02*
X149650000Y-46500000D01*
X149025000Y-41600000D02*
X149025000Y-45075000D01*
X148140000Y-48760000D02*
X148140000Y-48010000D01*
X141680000Y-42600000D02*
X143990000Y-40290000D01*
X143990000Y-40290000D02*
X144070000Y-40290000D01*
%TO.N,USB_FNG_P*%
X141736765Y-35025001D02*
X140986764Y-34275000D01*
X140986764Y-34275000D02*
X140101689Y-34275000D01*
%TD*%
%TA.AperFunction,Conductor*%
%TO.N,GND*%
G36*
X144345891Y-32267186D02*
G01*
X144391661Y-32319977D01*
X144401624Y-32389133D01*
X144372617Y-32452697D01*
X144366562Y-32459201D01*
X144011584Y-32814181D01*
X143950261Y-32847666D01*
X143923903Y-32850500D01*
X136935669Y-32850500D01*
X136935653Y-32850499D01*
X136928057Y-32850499D01*
X136769943Y-32850499D01*
X136662587Y-32879265D01*
X136617210Y-32891424D01*
X136617209Y-32891425D01*
X136567096Y-32920359D01*
X136567095Y-32920360D01*
X136523689Y-32945420D01*
X136480285Y-32970479D01*
X136480282Y-32970481D01*
X134994479Y-34456284D01*
X134970002Y-34498680D01*
X134959657Y-34516600D01*
X134915423Y-34593215D01*
X134874499Y-34745943D01*
X134874499Y-34745945D01*
X134874499Y-34914046D01*
X134874500Y-34914059D01*
X134874500Y-41220939D01*
X134874499Y-41220943D01*
X134874499Y-41379057D01*
X134874500Y-41379060D01*
X134874500Y-47138330D01*
X134874499Y-47138348D01*
X134874499Y-47304054D01*
X134874498Y-47304054D01*
X134915423Y-47456785D01*
X134924086Y-47471789D01*
X134924087Y-47471792D01*
X134994475Y-47593709D01*
X134994481Y-47593717D01*
X135113349Y-47712585D01*
X135113355Y-47712590D01*
X137365139Y-49964374D01*
X137365149Y-49964385D01*
X137369479Y-49968715D01*
X137369480Y-49968716D01*
X137481284Y-50080520D01*
X137481286Y-50080521D01*
X137481290Y-50080524D01*
X137548028Y-50119055D01*
X137548032Y-50119056D01*
X137548033Y-50119057D01*
X137583124Y-50139317D01*
X137618212Y-50159576D01*
X137618214Y-50159576D01*
X137618215Y-50159577D01*
X137770942Y-50200500D01*
X137770943Y-50200500D01*
X137770944Y-50200500D01*
X142420939Y-50200500D01*
X142420943Y-50200501D01*
X142579057Y-50200501D01*
X142579061Y-50200500D01*
X147657173Y-50200500D01*
X147724212Y-50220185D01*
X147769967Y-50272989D01*
X147771734Y-50277048D01*
X147830602Y-50419172D01*
X147830609Y-50419185D01*
X147918210Y-50550288D01*
X147918213Y-50550292D01*
X148029707Y-50661786D01*
X148029711Y-50661789D01*
X148160814Y-50749390D01*
X148160827Y-50749397D01*
X148306498Y-50809735D01*
X148306503Y-50809737D01*
X148461153Y-50840499D01*
X148461156Y-50840500D01*
X148461158Y-50840500D01*
X148618844Y-50840500D01*
X148618845Y-50840499D01*
X148773497Y-50809737D01*
X148919179Y-50749394D01*
X149050289Y-50661789D01*
X149161789Y-50550289D01*
X149249394Y-50419179D01*
X149309737Y-50273497D01*
X149340500Y-50118842D01*
X149340500Y-49961158D01*
X149340500Y-49961155D01*
X149340499Y-49961153D01*
X149309738Y-49806510D01*
X149309737Y-49806503D01*
X149309735Y-49806498D01*
X149249397Y-49660827D01*
X149249390Y-49660814D01*
X149161789Y-49529711D01*
X149161786Y-49529707D01*
X149050292Y-49418213D01*
X149050288Y-49418210D01*
X148919185Y-49330609D01*
X148919178Y-49330605D01*
X148908143Y-49326034D01*
X148903934Y-49324291D01*
X148849531Y-49280451D01*
X148827465Y-49214157D01*
X148844743Y-49146458D01*
X148848267Y-49140864D01*
X148849394Y-49139179D01*
X148909737Y-48993497D01*
X148940500Y-48838842D01*
X148940500Y-48681158D01*
X148940500Y-48681155D01*
X148940499Y-48681153D01*
X148909738Y-48526510D01*
X148909737Y-48526503D01*
X148909735Y-48526498D01*
X148849397Y-48380827D01*
X148849390Y-48380814D01*
X148813413Y-48326971D01*
X148792535Y-48260294D01*
X148811019Y-48192913D01*
X148828830Y-48170403D01*
X150018713Y-46980521D01*
X150018716Y-46980520D01*
X150064667Y-46934568D01*
X150116855Y-46906073D01*
X150125984Y-46901088D01*
X150125985Y-46901087D01*
X150125988Y-46901087D01*
X150128152Y-46900637D01*
X150128841Y-46900500D01*
X150128842Y-46900500D01*
X150283497Y-46869737D01*
X150429179Y-46809394D01*
X150560289Y-46721789D01*
X150671789Y-46610289D01*
X150759394Y-46479179D01*
X150819737Y-46333497D01*
X150850500Y-46178842D01*
X150850500Y-46021158D01*
X150850500Y-46021155D01*
X150850499Y-46021153D01*
X150832137Y-45928842D01*
X150819737Y-45866503D01*
X150805031Y-45830999D01*
X150759397Y-45720827D01*
X150759390Y-45720814D01*
X150671789Y-45589711D01*
X150671786Y-45589707D01*
X150560292Y-45478213D01*
X150560288Y-45478210D01*
X150429185Y-45390609D01*
X150429172Y-45390602D01*
X150283501Y-45330264D01*
X150283491Y-45330261D01*
X150128149Y-45299361D01*
X150066238Y-45266976D01*
X150064660Y-45265425D01*
X149661819Y-44862584D01*
X149628334Y-44801261D01*
X149625500Y-44774903D01*
X149625500Y-42179765D01*
X149645185Y-42112726D01*
X149646398Y-42110874D01*
X149734390Y-41979185D01*
X149734390Y-41979184D01*
X149734394Y-41979179D01*
X149794737Y-41833497D01*
X149825500Y-41678842D01*
X149825500Y-41521158D01*
X149825500Y-41521155D01*
X149825499Y-41521153D01*
X149821192Y-41499500D01*
X149794737Y-41366503D01*
X149734443Y-41220939D01*
X149734397Y-41220827D01*
X149734390Y-41220814D01*
X149646789Y-41089711D01*
X149646786Y-41089707D01*
X149535292Y-40978213D01*
X149535288Y-40978210D01*
X149404185Y-40890609D01*
X149404172Y-40890602D01*
X149258501Y-40830264D01*
X149258489Y-40830261D01*
X149103845Y-40799500D01*
X149103842Y-40799500D01*
X148946158Y-40799500D01*
X148946155Y-40799500D01*
X148791510Y-40830261D01*
X148791498Y-40830264D01*
X148645827Y-40890602D01*
X148645814Y-40890609D01*
X148514711Y-40978210D01*
X148514707Y-40978213D01*
X148403213Y-41089707D01*
X148403210Y-41089711D01*
X148315609Y-41220814D01*
X148315602Y-41220827D01*
X148255264Y-41366498D01*
X148255261Y-41366510D01*
X148224500Y-41521153D01*
X148224500Y-41678846D01*
X148255261Y-41833489D01*
X148255264Y-41833501D01*
X148315602Y-41979172D01*
X148315609Y-41979185D01*
X148403602Y-42110874D01*
X148424480Y-42177551D01*
X148424500Y-42179765D01*
X148424500Y-44988330D01*
X148424499Y-44988348D01*
X148424499Y-45154054D01*
X148424498Y-45154054D01*
X148424499Y-45154057D01*
X148465423Y-45306785D01*
X148478978Y-45330263D01*
X148484430Y-45339707D01*
X148544481Y-45443717D01*
X148663349Y-45562585D01*
X148663355Y-45562590D01*
X148788584Y-45687819D01*
X148822069Y-45749142D01*
X148817085Y-45818834D01*
X148775213Y-45874767D01*
X148709749Y-45899184D01*
X148700903Y-45899500D01*
X144704766Y-45899500D01*
X144637727Y-45879815D01*
X144635875Y-45878602D01*
X144504185Y-45790609D01*
X144504172Y-45790602D01*
X144358501Y-45730264D01*
X144358489Y-45730261D01*
X144203845Y-45699500D01*
X144203842Y-45699500D01*
X144046158Y-45699500D01*
X144046155Y-45699500D01*
X143891510Y-45730261D01*
X143891498Y-45730264D01*
X143745828Y-45790602D01*
X143745812Y-45790611D01*
X143682639Y-45832821D01*
X143615961Y-45853698D01*
X143566298Y-45844279D01*
X143534237Y-45830999D01*
X143534229Y-45830996D01*
X143379580Y-45800235D01*
X143379577Y-45800235D01*
X143221893Y-45800235D01*
X143221890Y-45800235D01*
X143067245Y-45830996D01*
X143067233Y-45830999D01*
X142921562Y-45891337D01*
X142921549Y-45891344D01*
X142790446Y-45978945D01*
X142790442Y-45978948D01*
X142678948Y-46090442D01*
X142678945Y-46090446D01*
X142591344Y-46221549D01*
X142591337Y-46221562D01*
X142530999Y-46367233D01*
X142530996Y-46367245D01*
X142500235Y-46521888D01*
X142500235Y-46571331D01*
X142492197Y-46611746D01*
X142492527Y-46611835D01*
X142491180Y-46616861D01*
X142490799Y-46618778D01*
X142490423Y-46619683D01*
X142483310Y-46646230D01*
X142449499Y-46772413D01*
X142449499Y-46772415D01*
X142449499Y-46940516D01*
X142449500Y-46940529D01*
X142449500Y-48749903D01*
X142440855Y-48779343D01*
X142434332Y-48809330D01*
X142430577Y-48814345D01*
X142429815Y-48816942D01*
X142413181Y-48837584D01*
X142287584Y-48963181D01*
X142226261Y-48996666D01*
X142199903Y-48999500D01*
X138150097Y-48999500D01*
X138083058Y-48979815D01*
X138062416Y-48963181D01*
X136939342Y-47840107D01*
X136905857Y-47778784D01*
X136910841Y-47709092D01*
X136952713Y-47653159D01*
X137002829Y-47630810D01*
X137058497Y-47619737D01*
X137204179Y-47559394D01*
X137335289Y-47471789D01*
X137446789Y-47360289D01*
X137534394Y-47229179D01*
X137594737Y-47083497D01*
X137625500Y-46928842D01*
X137625500Y-46771158D01*
X137625500Y-46767847D01*
X137645185Y-46700808D01*
X137697989Y-46655053D01*
X137725309Y-46646230D01*
X137741291Y-46643050D01*
X137858497Y-46619737D01*
X138004179Y-46559394D01*
X138135289Y-46471789D01*
X138246789Y-46360289D01*
X138334394Y-46229179D01*
X138337555Y-46221549D01*
X138356046Y-46176905D01*
X138394737Y-46083497D01*
X138425500Y-45928842D01*
X138425500Y-45771158D01*
X138425500Y-45771155D01*
X138425499Y-45771153D01*
X138394738Y-45616510D01*
X138394738Y-45616508D01*
X138394737Y-45616503D01*
X138394735Y-45616498D01*
X138334397Y-45470827D01*
X138334390Y-45470814D01*
X138246789Y-45339711D01*
X138246786Y-45339707D01*
X138135292Y-45228213D01*
X138135288Y-45228210D01*
X138004185Y-45140609D01*
X138004172Y-45140602D01*
X137858501Y-45080264D01*
X137858489Y-45080261D01*
X137703845Y-45049500D01*
X137703842Y-45049500D01*
X137546158Y-45049500D01*
X137546155Y-45049500D01*
X137391510Y-45080261D01*
X137391498Y-45080264D01*
X137245827Y-45140602D01*
X137245814Y-45140609D01*
X137114711Y-45228210D01*
X137114707Y-45228213D01*
X137003213Y-45339707D01*
X137003210Y-45339711D01*
X136915609Y-45470814D01*
X136915602Y-45470827D01*
X136855264Y-45616498D01*
X136855261Y-45616508D01*
X136824361Y-45771850D01*
X136791976Y-45833761D01*
X136790425Y-45835339D01*
X136530415Y-46095348D01*
X136490188Y-46122227D01*
X136445829Y-46140601D01*
X136445814Y-46140609D01*
X136314711Y-46228210D01*
X136314707Y-46228213D01*
X136287181Y-46255740D01*
X136225858Y-46289225D01*
X136156166Y-46284241D01*
X136100233Y-46242369D01*
X136075816Y-46176905D01*
X136075500Y-46168059D01*
X136075500Y-43049098D01*
X136079477Y-43035550D01*
X136078620Y-43021457D01*
X136089126Y-43002690D01*
X136095185Y-42982059D01*
X136105854Y-42972814D01*
X136112753Y-42960492D01*
X136131739Y-42950384D01*
X136147989Y-42936304D01*
X136161963Y-42934294D01*
X136174428Y-42927659D01*
X136195861Y-42929420D01*
X136217147Y-42926360D01*
X136231366Y-42932338D01*
X136244062Y-42933382D01*
X136262753Y-42945534D01*
X136274858Y-42950624D01*
X136281375Y-42955611D01*
X136356284Y-43030520D01*
X136442886Y-43080519D01*
X136449856Y-43084543D01*
X136449861Y-43084547D01*
X136493211Y-43109575D01*
X136493215Y-43109577D01*
X136645943Y-43150501D01*
X136645946Y-43150501D01*
X136811653Y-43150501D01*
X136811669Y-43150500D01*
X138763331Y-43150500D01*
X138763347Y-43150501D01*
X138770943Y-43150501D01*
X138929054Y-43150501D01*
X138929057Y-43150501D01*
X139081785Y-43109577D01*
X139081786Y-43109575D01*
X139089635Y-43107473D01*
X139089820Y-43108165D01*
X139128364Y-43100500D01*
X139178844Y-43100500D01*
X139178845Y-43100499D01*
X139333497Y-43069737D01*
X139479179Y-43009394D01*
X139610289Y-42921789D01*
X139721789Y-42810289D01*
X139809394Y-42679179D01*
X139869737Y-42533497D01*
X139900500Y-42378842D01*
X139900500Y-42221158D01*
X139900500Y-42221155D01*
X139900499Y-42221153D01*
X139878563Y-42110874D01*
X139869737Y-42066503D01*
X139833569Y-41979185D01*
X139809397Y-41920827D01*
X139809390Y-41920814D01*
X139721789Y-41789711D01*
X139721786Y-41789707D01*
X139610292Y-41678213D01*
X139610288Y-41678210D01*
X139479185Y-41590609D01*
X139479172Y-41590602D01*
X139333501Y-41530264D01*
X139333489Y-41530261D01*
X139178845Y-41499500D01*
X139178842Y-41499500D01*
X139021158Y-41499500D01*
X139021155Y-41499500D01*
X138866510Y-41530261D01*
X138866498Y-41530264D01*
X138720827Y-41590602D01*
X138720814Y-41590609D01*
X138589711Y-41678210D01*
X138589707Y-41678213D01*
X138478210Y-41789710D01*
X138408266Y-41894391D01*
X138354654Y-41939196D01*
X138305164Y-41949500D01*
X137025097Y-41949500D01*
X136958058Y-41929815D01*
X136937416Y-41913181D01*
X136111819Y-41087584D01*
X136078334Y-41026261D01*
X136075500Y-40999903D01*
X136075500Y-40058904D01*
X136095185Y-39991865D01*
X136147989Y-39946110D01*
X136217147Y-39936166D01*
X136280703Y-39965191D01*
X136291271Y-39975513D01*
X136300227Y-39985370D01*
X136319480Y-40018716D01*
X136431284Y-40130520D01*
X136431286Y-40130521D01*
X136440454Y-40139689D01*
X137065139Y-40764374D01*
X137065149Y-40764385D01*
X137069479Y-40768715D01*
X137069480Y-40768716D01*
X137181284Y-40880520D01*
X137268095Y-40930639D01*
X137268097Y-40930641D01*
X137302492Y-40950499D01*
X137318215Y-40959577D01*
X137470943Y-41000500D01*
X137629057Y-41000500D01*
X137870943Y-41000500D01*
X139463331Y-41000500D01*
X139463347Y-41000501D01*
X139470943Y-41000501D01*
X139629054Y-41000501D01*
X139629057Y-41000501D01*
X139781785Y-40959577D01*
X139781786Y-40959575D01*
X139789635Y-40957473D01*
X139789820Y-40958165D01*
X139828364Y-40950500D01*
X139878844Y-40950500D01*
X139878845Y-40950499D01*
X140033497Y-40919737D01*
X140179179Y-40859394D01*
X140310289Y-40771789D01*
X140421789Y-40660289D01*
X140509394Y-40529179D01*
X140569737Y-40383497D01*
X140600500Y-40228842D01*
X140600500Y-40071158D01*
X140600500Y-40071155D01*
X140600499Y-40071153D01*
X140569737Y-39916503D01*
X140566043Y-39907586D01*
X140558575Y-39838119D01*
X140589850Y-39775640D01*
X140649938Y-39739987D01*
X140656414Y-39738518D01*
X140674077Y-39735004D01*
X140717027Y-39726461D01*
X140848248Y-39672108D01*
X140862702Y-39666121D01*
X140862702Y-39666120D01*
X140862709Y-39666118D01*
X140993819Y-39578513D01*
X141105319Y-39467013D01*
X141143221Y-39410289D01*
X141188737Y-39342170D01*
X141212277Y-39322496D01*
X141234363Y-39301185D01*
X141240270Y-39299100D01*
X141242349Y-39297364D01*
X141267640Y-39289444D01*
X141300973Y-39282814D01*
X141370562Y-39289041D01*
X141425740Y-39331903D01*
X141428265Y-39335540D01*
X141478210Y-39410288D01*
X141478213Y-39410292D01*
X141589707Y-39521786D01*
X141589711Y-39521789D01*
X141720814Y-39609390D01*
X141720827Y-39609397D01*
X141839905Y-39658720D01*
X141866503Y-39669737D01*
X141955175Y-39687375D01*
X142021153Y-39700499D01*
X142021156Y-39700500D01*
X142021158Y-39700500D01*
X142178844Y-39700500D01*
X142178845Y-39700499D01*
X142215803Y-39693147D01*
X142313667Y-39673682D01*
X142383258Y-39679909D01*
X142425539Y-39707618D01*
X142489707Y-39771786D01*
X142489711Y-39771789D01*
X142620814Y-39859390D01*
X142620827Y-39859397D01*
X142755513Y-39915185D01*
X142766503Y-39919737D01*
X142899088Y-39946110D01*
X142921153Y-39950499D01*
X142921156Y-39950500D01*
X142921158Y-39950500D01*
X143078843Y-39950500D01*
X143110978Y-39944107D01*
X143179020Y-39930573D01*
X143248610Y-39936800D01*
X143303788Y-39979662D01*
X143327033Y-40045552D01*
X143310966Y-40113549D01*
X143290892Y-40139871D01*
X141610173Y-41820590D01*
X141548850Y-41854075D01*
X141479158Y-41849091D01*
X141475041Y-41847471D01*
X141433497Y-41830263D01*
X141433493Y-41830262D01*
X141433488Y-41830260D01*
X141278845Y-41799500D01*
X141278842Y-41799500D01*
X141121158Y-41799500D01*
X141121155Y-41799500D01*
X140966510Y-41830261D01*
X140966498Y-41830264D01*
X140820827Y-41890602D01*
X140820814Y-41890609D01*
X140689711Y-41978210D01*
X140689707Y-41978213D01*
X140578213Y-42089707D01*
X140578210Y-42089711D01*
X140490609Y-42220814D01*
X140490602Y-42220827D01*
X140430264Y-42366498D01*
X140430261Y-42366510D01*
X140399500Y-42521153D01*
X140399500Y-42678846D01*
X140430261Y-42833489D01*
X140430264Y-42833501D01*
X140490602Y-42979172D01*
X140490609Y-42979185D01*
X140578210Y-43110288D01*
X140578213Y-43110292D01*
X140689707Y-43221786D01*
X140689711Y-43221789D01*
X140820814Y-43309390D01*
X140820827Y-43309397D01*
X140966498Y-43369735D01*
X140966503Y-43369737D01*
X141121153Y-43400499D01*
X141121156Y-43400500D01*
X141121158Y-43400500D01*
X141278844Y-43400500D01*
X141278845Y-43400499D01*
X141433497Y-43369737D01*
X141579179Y-43309394D01*
X141710289Y-43221789D01*
X141710289Y-43221788D01*
X141713960Y-43219336D01*
X141751867Y-43205073D01*
X141751206Y-43202604D01*
X141759054Y-43200501D01*
X141759057Y-43200501D01*
X141911785Y-43159577D01*
X141961904Y-43130639D01*
X142048716Y-43080520D01*
X142160520Y-42968716D01*
X142160520Y-42968714D01*
X142170728Y-42958507D01*
X142170730Y-42958504D01*
X144059827Y-41069406D01*
X144121148Y-41035923D01*
X144190840Y-41040907D01*
X144194945Y-41042523D01*
X144210450Y-41048945D01*
X144236497Y-41059735D01*
X144236499Y-41059735D01*
X144236503Y-41059737D01*
X144391153Y-41090499D01*
X144391156Y-41090500D01*
X144391158Y-41090500D01*
X144548844Y-41090500D01*
X144548845Y-41090499D01*
X144703497Y-41059737D01*
X144821589Y-41010822D01*
X144849172Y-40999397D01*
X144849172Y-40999396D01*
X144849179Y-40999394D01*
X144980289Y-40911789D01*
X145091789Y-40800289D01*
X145179394Y-40669179D01*
X145239737Y-40523497D01*
X145270500Y-40368842D01*
X145270500Y-40211158D01*
X145270500Y-40211155D01*
X145270499Y-40211153D01*
X145239739Y-40056512D01*
X145239738Y-40056509D01*
X145239737Y-40056503D01*
X145239734Y-40056496D01*
X145239431Y-40055496D01*
X145239426Y-40054937D01*
X145238549Y-40050528D01*
X145239385Y-40050361D01*
X145238808Y-39985629D01*
X145276056Y-39926516D01*
X145339350Y-39896925D01*
X145358092Y-39895500D01*
X155635500Y-39895500D01*
X155702539Y-39915185D01*
X155748294Y-39967989D01*
X155759500Y-40019500D01*
X155759500Y-51635500D01*
X155739815Y-51702539D01*
X155687011Y-51748294D01*
X155635500Y-51759500D01*
X133999500Y-51759500D01*
X133932461Y-51739815D01*
X133886706Y-51687011D01*
X133875500Y-51635500D01*
X133875500Y-32374394D01*
X133895185Y-32307355D01*
X133947989Y-32261600D01*
X133999463Y-32250394D01*
X144278848Y-32247520D01*
X144345891Y-32267186D01*
G37*
%TD.AperFunction*%
%TA.AperFunction,Conductor*%
G36*
X139245908Y-34071185D02*
G01*
X139291663Y-34123989D01*
X139301159Y-34190033D01*
X139301786Y-34190095D01*
X139301534Y-34192645D01*
X139301607Y-34193147D01*
X139301321Y-34194816D01*
X139301189Y-34196157D01*
X139301189Y-34353846D01*
X139331950Y-34508489D01*
X139331953Y-34508501D01*
X139392291Y-34654172D01*
X139392298Y-34654185D01*
X139479899Y-34785288D01*
X139479902Y-34785292D01*
X139591396Y-34896786D01*
X139591400Y-34896789D01*
X139722503Y-34984390D01*
X139722516Y-34984397D01*
X139848069Y-35036402D01*
X139868192Y-35044737D01*
X139996343Y-35070228D01*
X140022842Y-35075499D01*
X140022845Y-35075500D01*
X140022847Y-35075500D01*
X140180533Y-35075500D01*
X140180534Y-35075499D01*
X140335186Y-35044737D01*
X140480868Y-34984394D01*
X140586132Y-34914059D01*
X140612564Y-34896398D01*
X140630610Y-34890747D01*
X140646520Y-34880523D01*
X140677481Y-34876071D01*
X140679242Y-34875520D01*
X140681455Y-34875500D01*
X140686667Y-34875500D01*
X140753706Y-34895185D01*
X140774348Y-34911819D01*
X140837608Y-34975079D01*
X140871093Y-35036402D01*
X140866109Y-35106094D01*
X140824237Y-35162027D01*
X140813974Y-35168797D01*
X140813083Y-35169481D01*
X140701279Y-35281286D01*
X137829692Y-38152872D01*
X137799108Y-38169571D01*
X137768560Y-38186315D01*
X137768443Y-38186316D01*
X137768369Y-38186357D01*
X137733360Y-38188889D01*
X137725523Y-38188340D01*
X137653321Y-38173979D01*
X137520167Y-38173979D01*
X137515849Y-38173677D01*
X137486988Y-38162964D01*
X137457461Y-38154294D01*
X137454535Y-38150918D01*
X137450346Y-38149363D01*
X137431856Y-38124745D01*
X137411706Y-38101490D01*
X137410611Y-38096457D01*
X137408387Y-38093496D01*
X137407587Y-38082556D01*
X137400500Y-38049979D01*
X137400500Y-35736426D01*
X137420185Y-35669387D01*
X137455607Y-35633325D01*
X137510289Y-35596789D01*
X137621789Y-35485289D01*
X137709394Y-35354179D01*
X137769737Y-35208497D01*
X137800500Y-35053842D01*
X137800500Y-34896158D01*
X137800500Y-34896155D01*
X137800499Y-34896153D01*
X137778447Y-34785292D01*
X137769737Y-34741503D01*
X137769735Y-34741498D01*
X137709397Y-34595827D01*
X137709390Y-34595814D01*
X137621789Y-34464711D01*
X137621786Y-34464707D01*
X137510292Y-34353213D01*
X137510288Y-34353210D01*
X137398630Y-34278602D01*
X137353825Y-34224990D01*
X137345118Y-34155665D01*
X137375273Y-34092637D01*
X137434716Y-34055918D01*
X137467521Y-34051500D01*
X139178869Y-34051500D01*
X139245908Y-34071185D01*
G37*
%TD.AperFunction*%
%TD*%
M02*
